<svg id="svg" version="1.1" width="400" height="400" viewBox="0, 0, 400,400" xmlns="http://www.w3.org/2000/svg">
  <g id="svgg">
    <path id="path0" d="M268.917 68.954 C 268.612 69.029,267.848 69.717,267.384 70.333 C 267.281 70.471,267.146 70.854,267.084 71.185 L 266.971 71.788 268.205 72.465 C 271.293 74.160,272.062 76.268,270.424 78.551 C 268.737 80.902,268.575 81.409,269.396 81.752 C 269.706 81.882,270.004 82.103,270.058 82.244 C 270.112 82.385,270.265 82.500,270.398 82.500 C 270.530 82.500,270.670 82.594,270.709 82.708 C 270.805 82.993,271.316 82.567,271.519 82.034 L 271.669 81.638 272.509 82.341 C 272.971 82.728,273.488 83.317,273.658 83.649 C 274.012 84.343,274.784 85.167,275.080 85.167 C 275.546 85.167,276.791 83.115,276.925 82.126 C 276.978 81.736,277.055 81.248,277.097 81.042 C 277.156 80.751,277.097 80.667,276.837 80.667 C 276.452 80.667,276.412 80.470,276.702 80.005 C 277.154 79.281,276.318 79.397,275.423 80.183 L 274.868 80.671 273.642 79.650 C 272.968 79.089,272.393 78.608,272.364 78.582 C 272.335 78.555,272.493 78.169,272.716 77.725 C 274.251 74.665,273.268 71.268,270.268 69.266 C 269.613 68.829,269.517 68.806,268.917 68.954 M264.829 77.786 C 263.687 78.578,262.923 79.400,263.262 79.473 C 263.410 79.505,263.485 79.632,263.434 79.765 C 263.365 79.945,263.510 80.000,264.051 80.000 C 264.441 80.000,264.927 80.117,265.131 80.261 C 265.662 80.632,265.958 80.476,267.060 79.242 C 268.143 78.030,268.143 78.014,267.034 77.722 C 265.943 77.434,265.310 77.452,264.829 77.786 M263.633 83.007 C 262.564 83.572,261.415 84.911,262.169 84.714 C 262.407 84.652,262.479 84.693,262.417 84.855 C 262.304 85.149,264.078 85.149,264.627 84.854 C 264.957 84.678,266.333 82.986,266.333 82.757 C 266.333 82.508,264.204 82.706,263.633 83.007 M270.750 83.496 C 269.617 83.977,268.695 85.447,269.008 86.271 C 269.354 87.182,270.148 86.419,271.169 84.195 C 271.608 83.237,271.558 83.153,270.750 83.496 M272.918 85.787 C 272.049 86.392,271.994 86.447,271.368 87.362 L 270.835 88.142 271.240 88.948 C 271.462 89.392,271.844 89.941,272.088 90.169 L 272.531 90.583 273.106 89.917 C 274.252 88.589,274.494 87.742,274.272 85.833 C 274.204 85.249,273.716 85.232,272.918 85.787 M266.845 87.151 C 266.415 87.754,266.363 90.483,266.751 92.126 C 266.886 92.700,267.077 93.825,267.176 94.626 C 267.274 95.428,267.416 96.588,267.491 97.205 C 267.667 98.657,268.800 103.307,269.654 106.083 C 270.217 107.916,273.092 119.611,273.259 120.750 C 273.463 122.135,274.230 125.273,274.503 125.833 C 274.930 126.712,275.945 129.949,276.149 131.083 C 276.376 132.346,276.661 134.064,276.778 134.875 C 276.883 135.605,276.928 135.625,277.334 135.125 C 278.039 134.256,277.730 136.392,276.914 138.030 C 275.911 140.043,276.603 141.193,277.732 139.389 C 278.419 138.290,278.669 137.627,279.100 135.759 C 279.268 135.031,279.533 134.326,279.688 134.193 C 279.905 134.007,279.930 133.883,279.794 133.666 C 279.654 133.441,279.744 133.175,280.225 132.396 C 280.560 131.854,280.833 131.318,280.833 131.205 C 280.833 130.955,282.264 130.920,282.417 131.167 C 282.473 131.258,282.401 131.333,282.256 131.333 C 282.111 131.333,281.920 131.523,281.832 131.754 C 281.744 131.986,281.539 132.223,281.378 132.281 C 280.480 132.605,280.170 132.999,280.258 133.700 C 280.410 134.915,280.728 134.986,281.534 133.983 C 281.836 133.607,282.271 133.202,282.500 133.083 C 282.729 132.965,283.742 132.030,284.750 131.006 C 286.881 128.842,286.796 128.900,288.183 128.678 C 289.347 128.491,289.567 128.311,290.750 126.573 C 291.065 126.110,291.645 125.498,292.037 125.214 C 292.429 124.930,293.377 124.129,294.142 123.434 C 295.913 121.827,298.908 119.730,300.913 118.694 C 301.187 118.553,301.862 117.991,302.413 117.445 C 303.444 116.426,304.102 116.126,306.333 115.655 C 306.746 115.568,307.287 115.348,307.535 115.165 C 308.128 114.729,308.360 114.746,308.845 115.263 C 309.140 115.576,309.374 115.674,309.711 115.625 C 309.970 115.587,310.254 115.654,310.357 115.778 C 310.458 115.900,310.607 116.000,310.687 116.000 C 310.889 116.000,310.872 115.377,310.667 115.250 C 310.575 115.193,310.500 114.917,310.500 114.637 C 310.500 114.021,309.811 112.831,308.958 111.975 C 308.615 111.629,308.333 111.274,308.333 111.185 C 308.333 110.910,307.389 110.333,306.938 110.333 C 306.703 110.333,306.189 110.165,305.797 109.958 C 304.789 109.429,301.571 109.431,300.124 109.963 C 299.249 110.285,299.115 110.295,298.588 110.075 C 297.739 109.720,297.297 109.775,296.526 110.333 C 296.147 110.608,295.772 110.833,295.694 110.833 C 295.616 110.833,295.415 110.984,295.249 111.168 C 295.082 111.352,294.865 111.487,294.765 111.467 C 294.473 111.411,293.474 111.998,292.685 112.691 C 292.282 113.044,291.851 113.333,291.726 113.333 C 291.283 113.333,289.303 115.556,288.827 116.587 C 288.488 117.323,288.195 118.893,288.408 118.831 C 289.527 118.506,289.772 118.324,290.167 117.528 C 290.396 117.066,290.658 116.709,290.750 116.736 C 290.842 116.762,291.142 116.470,291.417 116.088 C 292.460 114.636,294.571 113.000,295.400 113.000 C 295.825 113.000,295.709 113.406,295.171 113.804 C 294.680 114.167,293.811 115.741,293.710 116.449 C 293.665 116.765,293.746 116.821,294.325 116.865 C 295.499 116.956,294.408 118.099,289.917 121.486 C 289.092 122.109,287.756 123.210,286.949 123.934 C 286.142 124.658,285.120 125.550,284.678 125.917 C 283.251 127.100,281.819 128.564,281.456 129.210 C 280.976 130.063,280.791 129.931,280.558 128.570 C 280.448 127.936,280.241 127.088,280.096 126.687 C 279.952 126.286,279.833 125.831,279.833 125.675 C 279.833 125.504,279.336 125.076,278.576 124.595 C 277.021 123.610,276.876 123.390,276.238 121.050 L 275.724 119.168 276.154 118.885 C 276.445 118.693,276.879 118.611,277.500 118.630 C 278.659 118.665,280.855 118.378,281.070 118.163 C 281.319 117.915,281.548 117.969,281.440 118.250 C 281.380 118.405,281.441 118.500,281.598 118.500 C 281.738 118.500,281.810 118.570,281.757 118.655 C 281.602 118.905,281.993 119.047,282.250 118.833 C 282.379 118.726,282.560 118.684,282.652 118.741 C 282.744 118.798,282.932 118.626,283.070 118.359 C 283.208 118.092,283.442 117.827,283.591 117.770 C 283.965 117.626,284.036 117.640,283.917 117.833 C 283.788 118.041,283.868 118.042,284.399 117.840 C 284.786 117.693,285.500 116.496,285.500 115.993 C 285.500 115.888,285.651 115.590,285.835 115.331 C 286.020 115.072,286.387 114.423,286.653 113.888 C 286.918 113.354,287.329 112.706,287.567 112.450 C 288.008 111.974,288.138 111.500,287.828 111.500 C 287.134 111.500,285.147 113.106,284.908 113.862 C 284.758 114.333,284.448 114.230,284.568 113.750 C 284.691 113.261,284.646 113.249,283.979 113.594 C 283.519 113.832,283.350 113.829,282.029 113.562 C 278.489 112.845,274.833 113.369,274.833 114.593 C 274.833 115.264,274.501 114.654,274.034 113.125 C 273.543 111.515,273.338 110.765,272.158 106.250 C 271.895 105.242,271.374 103.563,271.002 102.520 C 270.231 100.362,269.376 96.724,268.921 93.667 C 268.859 93.254,268.598 92.129,268.340 91.167 C 268.007 89.923,267.885 89.115,267.920 88.375 C 267.957 87.568,267.915 87.333,267.734 87.333 C 267.605 87.333,267.500 87.183,267.500 87.000 C 267.500 86.528,267.246 86.587,266.845 87.151 M244.333 100.221 C 244.333 100.342,244.155 100.609,243.938 100.813 C 243.684 101.052,243.505 101.458,243.438 101.950 C 243.255 103.283,242.753 103.533,242.167 102.583 C 241.799 101.989,241.500 101.825,241.500 102.218 C 241.500 102.861,241.046 103.101,240.609 102.691 C 240.078 102.192,239.947 102.283,239.596 103.399 C 239.311 104.306,239.309 104.308,238.811 104.134 C 237.773 103.772,235.276 104.550,234.413 105.504 C 234.025 105.933,234.347 106.500,234.977 106.500 C 235.591 106.500,235.512 107.326,234.821 108.119 C 233.050 110.152,233.352 113.471,235.217 112.473 C 235.414 112.368,235.591 112.367,235.719 112.472 C 236.456 113.076,237.165 112.655,237.174 111.607 C 237.182 110.640,238.884 108.500,239.646 108.500 C 239.838 108.500,240.346 108.162,240.777 107.750 C 241.559 107.000,241.750 106.914,242.227 107.098 C 242.411 107.168,242.197 107.414,241.462 107.978 C 239.051 109.829,238.347 112.132,239.842 113.281 C 240.796 114.014,241.652 113.762,241.095 112.912 C 240.207 111.556,240.581 110.193,242.075 109.338 C 242.541 109.071,243.093 108.623,243.301 108.342 L 243.679 107.830 244.338 108.207 C 245.075 108.627,245.081 108.650,244.745 109.583 C 243.888 111.964,245.048 115.333,246.726 115.333 L 247.272 115.333 246.716 114.208 C 246.205 113.174,245.831 111.650,245.610 109.698 L 245.529 108.980 246.015 109.087 C 246.460 109.184,246.501 109.154,246.513 108.722 C 246.524 108.343,246.565 108.398,246.722 109.000 C 246.873 109.581,247.034 109.806,247.437 110.000 C 247.723 110.138,248.036 110.438,248.132 110.667 C 249.357 113.582,249.826 114.811,249.829 115.115 C 249.835 115.629,250.059 115.708,250.459 115.336 C 250.963 114.866,250.425 112.945,249.204 110.855 C 248.850 110.250,248.812 110.072,248.978 109.807 C 249.140 109.548,249.122 109.393,248.887 108.995 C 248.676 108.637,248.647 108.453,248.780 108.320 C 249.069 108.031,249.669 108.429,249.631 108.884 C 249.613 109.101,249.890 109.644,250.286 110.171 C 250.664 110.673,251.151 111.421,251.368 111.833 C 252.120 113.257,252.418 113.665,252.708 113.666 C 252.869 113.666,253.001 113.648,253.003 113.625 C 253.004 113.602,253.103 113.301,253.224 112.956 L 253.442 112.328 254.479 113.789 C 255.049 114.593,255.854 115.790,256.268 116.450 L 257.020 117.650 256.235 119.160 C 255.500 120.576,255.468 120.689,255.726 120.973 C 255.876 121.140,256.000 121.361,256.000 121.465 C 256.000 121.569,256.412 122.260,256.917 123.000 C 257.421 123.740,257.833 124.377,257.833 124.415 C 257.833 124.727,258.890 125.968,259.090 125.891 C 259.265 125.824,259.333 125.920,259.333 126.232 C 259.333 126.686,259.485 126.781,259.764 126.502 C 259.872 126.394,259.921 126.552,259.905 126.961 C 259.874 127.814,260.148 127.917,260.791 127.294 C 261.511 126.596,261.490 126.954,260.766 127.721 C 259.643 128.912,260.337 130.364,261.497 129.253 C 262.319 128.466,262.642 128.999,261.833 129.808 C 261.152 130.489,261.133 131.346,261.792 131.676 C 262.512 132.037,262.947 131.999,263.148 131.558 C 263.341 131.135,263.579 131.056,263.763 131.354 C 263.914 131.598,264.455 130.421,264.596 129.544 C 264.661 129.135,264.633 128.832,264.525 128.765 C 264.410 128.695,264.384 128.263,264.449 127.557 C 264.536 126.629,264.508 126.435,264.269 126.300 C 264.088 126.199,264.022 126.028,264.085 125.828 C 264.144 125.643,264.017 125.219,263.778 124.798 C 262.421 122.417,261.606 121.052,261.407 120.827 C 261.282 120.686,261.063 120.293,260.921 119.952 C 260.580 119.137,260.201 119.155,259.346 120.027 C 258.599 120.789,258.597 120.794,258.828 121.403 C 258.929 121.668,259.078 121.793,259.226 121.736 C 259.825 121.506,260.725 124.405,260.163 124.752 C 260.024 124.838,259.996 124.775,260.070 124.543 C 260.148 124.297,260.055 124.132,259.713 123.908 C 259.458 123.742,259.175 123.520,259.083 123.416 C 258.992 123.312,258.510 122.803,258.012 122.286 C 256.935 121.167,256.954 120.500,258.063 120.500 C 258.655 120.500,258.654 120.501,259.711 118.788 C 260.197 118.001,259.813 117.755,259.001 118.332 C 258.378 118.776,258.183 118.365,258.647 117.580 C 258.941 117.081,258.945 117.017,258.697 116.768 C 258.479 116.550,258.462 116.408,258.608 116.021 C 258.725 115.712,258.732 115.444,258.629 115.260 C 258.541 115.104,258.517 114.786,258.576 114.555 C 258.653 114.248,258.565 113.981,258.253 113.573 L 257.825 113.011 258.454 112.684 C 259.163 112.317,260.167 111.438,260.167 111.186 C 260.167 110.865,259.869 110.841,259.315 111.117 C 258.447 111.551,256.731 111.500,256.403 111.031 C 256.263 110.831,256.040 110.667,255.907 110.667 C 255.569 110.667,255.608 110.518,256.036 110.171 C 256.362 109.907,256.378 109.838,256.169 109.586 C 255.961 109.336,255.972 109.280,256.258 109.126 C 256.637 108.921,258.246 107.279,258.792 106.539 C 259.492 105.589,259.171 104.840,258.379 105.575 C 258.126 105.809,257.843 106.000,257.748 106.000 C 257.653 106.000,257.315 106.213,256.996 106.474 C 256.678 106.735,256.253 107.035,256.053 107.141 C 255.676 107.340,253.333 107.415,253.333 107.228 C 253.333 107.071,254.186 106.348,254.688 106.080 C 255.147 105.835,255.400 105.409,255.241 105.152 C 255.082 104.894,254.784 104.987,253.841 105.588 C 252.791 106.257,252.717 106.267,252.189 105.827 C 251.815 105.516,251.809 105.478,252.064 105.089 C 252.508 104.412,252.436 103.719,251.958 104.064 C 250.756 104.935,250.959 104.919,249.717 104.236 C 248.305 103.460,247.957 103.172,248.146 102.933 C 248.466 102.526,248.689 101.511,248.523 101.214 C 248.372 100.944,248.342 100.956,248.196 101.340 C 248.107 101.573,247.914 101.864,247.767 101.986 C 247.620 102.108,247.500 102.351,247.500 102.526 C 247.500 102.973,247.031 103.106,246.760 102.736 C 246.564 102.468,246.500 102.459,246.251 102.666 C 245.306 103.450,244.667 102.901,244.667 101.307 C 244.667 100.547,244.597 100.000,244.500 100.000 C 244.408 100.000,244.333 100.099,244.333 100.221 M253.708 102.770 C 252.939 103.614,252.996 103.850,253.885 103.512 C 254.436 103.302,254.834 102.149,254.347 102.171 C 254.294 102.173,254.006 102.443,253.708 102.770 M238.582 107.168 C 238.416 107.352,238.244 107.466,238.199 107.422 C 238.088 107.310,238.503 106.833,238.713 106.833 C 238.808 106.833,238.749 106.984,238.582 107.168 M252.560 107.917 C 252.460 108.178,252.000 108.269,252.000 108.028 C 252.000 107.824,252.192 107.667,252.439 107.667 C 252.564 107.667,252.615 107.773,252.560 107.917 M236.982 108.875 C 236.874 109.081,236.637 109.463,236.455 109.723 C 236.273 109.983,235.990 110.545,235.826 110.973 L 235.528 111.750 235.348 111.281 C 234.944 110.235,235.140 109.665,236.157 108.920 C 236.904 108.374,237.254 108.355,236.982 108.875 M243.278 109.468 C 242.447 111.318,242.351 113.000,243.076 113.000 C 243.339 113.000,243.414 112.771,243.587 111.443 C 243.644 110.999,243.831 110.312,244.001 109.915 C 244.320 109.169,244.282 108.500,243.920 108.500 C 243.806 108.500,243.517 108.935,243.278 109.468 M253.083 109.923 C 253.413 110.183,253.122 110.610,252.712 110.468 C 252.578 110.422,251.833 109.379,251.833 109.238 C 251.833 109.134,252.653 109.583,253.083 109.923 M255.625 109.875 C 255.587 109.990,255.456 110.083,255.333 110.083 C 255.211 110.083,255.080 109.990,255.042 109.875 C 255.000 109.751,255.119 109.667,255.333 109.667 C 255.548 109.667,255.666 109.751,255.625 109.875 M291.217 110.300 C 288.975 111.465,286.877 114.128,286.594 116.167 C 286.544 116.533,286.313 117.048,286.071 117.333 C 285.100 118.478,284.930 122.379,285.893 121.417 C 286.030 121.279,286.255 121.167,286.391 121.167 C 286.696 121.167,287.055 120.229,287.505 118.258 C 287.693 117.435,288.054 116.427,288.310 116.008 C 288.566 115.591,288.972 114.818,289.212 114.290 C 289.644 113.342,289.850 113.157,290.556 113.081 C 290.755 113.060,290.975 113.033,291.045 113.021 C 291.646 112.922,293.601 110.504,293.434 110.068 C 293.288 109.688,292.168 109.805,291.217 110.300 M266.798 116.758 C 266.748 116.808,266.154 116.981,265.478 117.142 C 263.991 117.497,262.642 118.472,262.479 119.307 C 262.288 120.285,262.395 120.541,262.900 120.311 C 263.344 120.108,264.084 120.413,264.666 121.038 C 265.133 121.539,266.151 121.587,266.518 121.125 C 266.783 120.792,266.787 120.793,266.896 121.227 C 267.084 121.975,267.409 121.718,267.705 120.589 C 268.099 119.087,267.404 116.152,266.798 116.758 M252.894 121.992 C 251.495 122.326,250.458 124.333,251.684 124.333 C 252.011 124.333,252.121 124.739,251.841 124.912 C 251.754 124.966,251.515 125.245,251.310 125.533 L 250.938 126.055 251.316 125.956 C 251.595 125.883,251.670 125.918,251.604 126.090 C 251.402 126.616,251.896 126.489,252.492 125.862 C 253.134 125.187,253.637 124.354,253.759 123.766 C 253.795 123.591,253.984 123.278,254.180 123.070 C 254.592 122.630,254.484 122.333,253.912 122.333 C 253.624 122.333,253.537 122.263,253.606 122.083 C 253.711 121.812,253.672 121.807,252.894 121.992 M254.529 124.719 C 254.082 125.195,254.074 125.582,254.491 126.520 C 255.072 127.825,255.700 127.948,256.005 126.816 C 256.104 126.447,256.223 126.046,256.270 125.924 C 256.348 125.721,255.234 124.333,254.994 124.333 C 254.938 124.333,254.728 124.507,254.529 124.719 M238.667 129.500 C 238.414 130.109,238.278 130.127,238.030 129.583 C 237.788 129.052,237.535 129.053,237.332 129.586 C 237.244 129.817,236.988 130.076,236.763 130.162 C 236.538 130.247,236.265 130.490,236.156 130.700 C 236.047 130.911,235.810 131.247,235.628 131.446 C 235.447 131.645,235.341 131.878,235.394 131.964 C 235.487 132.114,234.460 133.455,234.057 133.710 C 233.820 133.860,232.433 135.947,232.273 136.394 C 232.180 136.656,232.122 136.670,231.899 136.485 C 231.502 136.156,231.060 136.848,230.930 138.003 C 230.785 139.282,230.784 139.280,232.648 140.463 L 234.291 141.507 234.306 142.264 C 234.324 143.158,234.278 143.097,237.623 146.611 C 240.197 149.314,240.251 149.344,240.656 148.278 C 240.774 147.967,240.735 147.712,240.499 147.248 L 240.184 146.631 240.551 146.936 C 240.752 147.104,241.084 147.387,241.289 147.564 C 241.927 148.116,242.695 148.102,242.573 147.541 C 242.136 145.538,239.918 142.656,236.836 140.085 C 235.563 139.024,235.346 138.674,235.467 137.875 C 235.557 137.276,235.759 137.422,236.676 138.748 C 237.211 139.522,237.610 139.950,237.728 139.875 C 237.832 139.809,237.989 139.754,238.077 139.753 C 238.164 139.751,238.284 139.518,238.342 139.235 C 238.399 138.952,238.513 138.615,238.594 138.485 C 238.675 138.356,238.781 137.917,238.829 137.511 L 238.917 136.771 239.377 137.469 C 240.086 138.543,240.960 138.440,241.240 137.250 C 241.609 135.680,241.507 135.256,240.482 134.088 C 240.007 133.547,239.990 133.486,240.245 133.231 C 240.396 133.080,240.478 132.850,240.428 132.719 C 240.378 132.588,240.452 132.205,240.593 131.868 C 240.940 131.037,240.796 130.612,239.869 129.743 C 238.933 128.865,238.930 128.864,238.667 129.500 M302.601 129.700 C 302.263 129.889,302.250 130.500,302.583 130.500 C 302.721 130.500,302.833 130.599,302.833 130.721 C 302.833 130.946,303.510 131.667,303.721 131.667 C 303.992 131.667,304.887 132.832,305.438 133.903 C 305.765 134.537,306.210 135.325,306.427 135.653 C 306.644 135.981,307.193 137.188,307.648 138.335 C 308.103 139.482,308.743 140.980,309.071 141.664 C 309.398 142.348,309.667 142.997,309.667 143.108 C 309.667 143.218,309.894 143.875,310.171 144.569 C 310.449 145.262,310.814 146.374,310.981 147.040 C 311.838 150.437,314.296 154.010,315.834 154.091 C 316.381 154.120,317.387 154.382,318.333 154.742 C 319.204 155.074,320.742 155.609,321.750 155.933 C 323.531 156.503,324.356 156.803,325.442 157.273 C 325.731 157.398,326.199 157.500,326.484 157.500 C 326.768 157.500,327.000 157.575,327.000 157.667 C 327.000 157.758,327.088 157.833,327.195 157.833 C 327.303 157.833,327.525 157.955,327.688 158.103 C 328.074 158.452,328.872 158.285,328.809 157.869 C 328.785 157.712,328.862 157.407,328.981 157.190 C 329.233 156.734,329.063 156.477,328.469 156.416 C 328.257 156.394,328.026 156.366,327.955 156.355 C 327.884 156.343,327.476 155.791,327.047 155.128 C 326.618 154.466,326.076 153.711,325.842 153.451 C 325.415 152.976,324.131 150.162,323.773 148.917 C 323.667 148.550,323.530 148.171,323.468 148.074 C 323.405 147.978,322.817 146.553,322.160 144.908 C 320.886 141.717,319.873 139.653,319.205 138.888 C 318.979 138.629,318.612 138.146,318.391 137.816 C 317.549 136.561,313.242 133.138,311.417 132.273 C 310.715 131.940,309.171 131.508,306.867 130.998 C 306.106 130.829,305.178 130.533,304.805 130.338 C 303.716 129.771,302.898 129.534,302.601 129.700 M277.587 154.161 C 277.527 154.258,276.858 154.333,276.062 154.333 C 274.271 154.333,271.708 154.896,271.283 155.382 C 270.695 156.055,266.381 157.292,262.417 157.925 C 259.883 158.330,258.335 158.877,256.631 159.972 C 255.352 160.794,255.040 162.163,256.131 162.169 C 256.704 162.172,256.945 162.329,257.024 162.750 C 257.152 163.429,259.090 163.317,259.774 162.592 C 260.348 161.984,260.934 161.834,261.300 162.200 C 261.428 162.328,261.500 162.336,261.500 162.222 C 261.500 162.046,262.591 162.164,262.938 162.378 C 263.027 162.434,263.772 162.562,264.592 162.663 C 265.412 162.765,266.258 162.885,266.472 162.930 C 266.801 163.000,266.844 162.961,266.752 162.673 C 266.668 162.409,266.718 162.333,266.975 162.333 C 267.157 162.333,267.333 162.251,267.367 162.150 C 267.410 162.019,267.635 162.023,268.163 162.166 C 269.803 162.607,270.535 162.651,270.624 162.312 C 270.669 162.140,270.801 162.000,270.917 162.000 C 271.033 162.000,271.170 161.839,271.221 161.643 C 271.344 161.173,272.588 161.273,274.750 161.926 C 275.575 162.175,276.536 162.460,276.885 162.560 C 278.626 163.056,279.539 160.650,277.826 160.081 C 276.977 159.799,276.679 159.550,277.409 159.733 C 277.668 159.798,278.143 159.692,278.701 159.446 L 279.583 159.056 280.583 159.527 C 281.133 159.785,281.608 160.073,281.638 160.165 C 281.669 160.258,281.807 160.333,281.945 160.333 C 282.082 160.333,282.701 160.783,283.320 161.333 C 284.588 162.460,284.667 162.495,284.667 161.927 C 284.667 161.703,284.742 161.473,284.833 161.417 C 285.282 161.139,285.006 160.319,284.375 160.055 C 284.031 159.912,283.493 159.569,283.179 159.293 C 282.865 159.017,282.366 158.691,282.070 158.567 C 281.554 158.352,281.539 158.318,281.679 157.713 C 281.962 156.493,282.177 156.706,278.305 154.360 C 277.920 154.127,277.654 154.053,277.587 154.161 M279.904 157.169 C 280.599 157.629,281.167 158.041,281.167 158.086 C 281.167 158.273,280.853 158.124,279.750 157.412 C 278.747 156.765,278.558 156.696,278.398 156.913 C 278.297 157.053,278.131 157.167,278.031 157.167 C 277.668 157.167,276.146 156.799,276.217 156.728 C 276.257 156.688,276.593 156.723,276.964 156.807 C 277.516 156.931,277.725 156.902,278.111 156.647 C 278.371 156.476,278.597 156.335,278.613 156.334 C 278.629 156.334,279.210 156.709,279.904 157.169 M312.583 158.583 C 311.250 159.219,311.216 159.271,311.084 160.846 C 310.882 163.272,311.701 167.428,312.774 169.417 C 312.922 169.692,313.208 170.223,313.410 170.597 C 314.149 171.966,315.524 174.164,315.720 174.289 C 315.831 174.359,316.546 175.148,317.309 176.042 C 318.071 176.935,318.767 177.667,318.854 177.667 C 318.941 177.667,319.165 178.023,319.351 178.458 C 319.757 179.406,321.698 181.333,322.247 181.333 C 322.289 181.333,322.756 181.531,323.285 181.773 C 326.396 183.196,329.814 183.181,332.236 181.733 C 333.542 180.952,334.907 180.997,337.554 181.908 C 338.487 182.229,340.269 182.752,341.515 183.071 C 342.760 183.389,343.960 183.720,344.181 183.807 C 345.836 184.458,346.736 184.528,347.582 184.073 C 348.358 183.655,348.282 183.528,346.821 182.800 C 345.557 182.170,344.909 181.934,343.000 181.408 C 342.404 181.244,341.002 180.749,339.883 180.309 C 337.812 179.494,335.919 179.129,334.167 179.206 C 331.199 179.337,327.833 174.480,326.747 168.500 C 326.528 167.297,326.499 165.984,326.662 164.621 C 326.983 161.934,326.994 161.652,326.781 161.592 C 326.672 161.562,326.171 161.455,325.667 161.355 C 320.639 160.357,317.758 159.622,315.795 158.834 C 313.873 158.063,313.702 158.050,312.583 158.583 M260.908 158.645 C 260.664 158.869,259.833 159.026,259.833 158.849 C 259.833 158.683,260.195 158.552,260.742 158.519 C 260.936 158.508,261.003 158.559,260.908 158.645 M56.383 171.375 C 56.093 171.856,55.636 172.509,55.369 172.826 L 54.883 173.401 54.419 172.367 C 53.798 170.985,53.820 170.976,53.139 172.875 C 53.032 173.173,52.837 173.544,52.705 173.699 C 52.573 173.854,52.400 174.561,52.321 175.269 C 52.205 176.302,52.083 176.676,51.704 177.154 C 51.444 177.482,50.942 178.229,50.589 178.815 C 50.236 179.401,49.378 180.488,48.682 181.232 C 47.986 181.975,47.120 182.977,46.757 183.458 C 45.952 184.527,45.980 184.526,45.510 183.487 C 44.877 182.085,41.460 177.154,40.611 176.415 C 39.487 175.437,38.842 174.497,39.023 174.100 C 39.453 173.156,38.320 171.737,37.767 172.527 C 37.469 172.952,37.100 172.753,36.930 172.076 C 36.792 171.527,36.283 171.547,35.910 172.117 C 35.747 172.365,35.241 172.942,34.784 173.399 C 33.262 174.920,32.697 176.873,33.402 178.170 L 33.865 179.019 33.338 180.718 C 31.975 185.108,32.067 183.588,32.251 198.833 C 32.388 210.212,31.768 217.549,30.146 223.750 C 29.787 225.125,29.386 226.737,29.256 227.333 C 29.125 227.929,28.871 228.904,28.690 229.500 C 28.154 231.267,27.043 235.506,26.834 236.583 C 26.727 237.133,26.563 237.921,26.469 238.333 C 26.185 239.584,25.898 243.504,25.994 244.833 C 26.082 246.068,25.952 247.963,25.668 249.583 C 25.499 250.542,25.028 253.963,24.796 255.917 C 24.708 256.650,24.644 257.616,24.652 258.063 C 24.660 258.511,24.482 259.551,24.256 260.375 C 23.773 262.137,24.173 262.121,24.853 260.352 C 26.709 255.527,26.797 255.262,27.814 251.500 C 28.905 247.465,29.720 244.039,30.153 241.667 C 30.345 240.612,30.647 239.188,30.824 238.500 C 31.002 237.813,31.338 236.463,31.572 235.500 C 32.188 232.960,34.274 225.159,34.474 224.643 C 34.648 224.195,36.150 217.615,36.599 215.333 C 37.573 210.391,38.033 203.675,38.060 194.000 C 38.084 185.490,38.105 185.256,38.747 186.296 C 38.932 186.597,39.552 187.568,40.125 188.454 C 40.698 189.341,41.167 190.100,41.167 190.141 C 41.167 190.182,41.447 190.561,41.789 190.983 C 42.132 191.405,42.488 191.853,42.581 191.978 C 42.940 192.463,45.217 194.667,45.358 194.667 C 45.568 194.667,47.115 193.043,47.627 192.284 C 48.135 191.532,48.200 189.814,47.772 188.438 L 47.520 187.625 48.385 186.688 C 48.861 186.172,49.288 185.713,49.334 185.667 C 49.850 185.153,51.849 182.632,52.044 182.250 C 52.854 180.661,53.052 180.853,53.507 183.676 C 53.706 184.908,54.012 186.367,54.188 186.917 C 54.363 187.467,54.773 189.154,55.098 190.667 C 55.424 192.179,55.766 193.754,55.859 194.167 C 55.952 194.579,56.046 195.029,56.067 195.167 C 56.089 195.304,56.153 195.529,56.209 195.667 C 56.365 196.047,56.658 197.395,57.006 199.333 C 57.179 200.296,57.555 201.946,57.841 203.000 C 58.127 204.054,58.612 205.892,58.920 207.083 C 59.227 208.275,59.675 209.963,59.915 210.833 C 60.155 211.704,60.579 213.354,60.855 214.500 C 61.907 218.853,62.330 220.456,62.748 221.667 C 62.984 222.354,63.357 223.667,63.576 224.583 C 63.795 225.500,64.125 226.662,64.310 227.167 C 64.495 227.671,64.958 229.243,65.338 230.661 C 65.718 232.079,66.144 233.462,66.285 233.735 C 66.744 234.623,67.949 239.133,68.672 242.667 C 68.868 243.629,69.142 244.867,69.280 245.417 C 69.592 246.664,70.121 249.127,70.331 250.314 C 70.418 250.808,70.530 251.252,70.578 251.301 C 70.810 251.532,70.835 251.068,70.676 249.478 C 70.202 244.721,70.639 244.613,71.602 249.250 C 71.830 250.350,72.126 251.416,72.258 251.619 C 72.391 251.822,72.500 252.197,72.501 252.452 C 72.502 252.708,72.651 253.142,72.833 253.417 C 73.015 253.692,73.165 254.081,73.166 254.282 C 73.166 254.483,73.242 254.693,73.334 254.750 C 73.603 254.917,73.809 254.126,73.802 252.953 C 73.799 252.353,73.852 251.771,73.921 251.660 C 74.101 251.368,74.039 244.873,73.836 242.917 C 73.659 241.200,73.379 239.527,72.832 236.917 C 72.660 236.092,72.433 234.967,72.330 234.417 C 72.051 232.941,71.119 229.425,70.258 226.598 C 69.841 225.230,69.500 224.011,69.500 223.887 C 69.500 223.763,69.430 223.532,69.344 223.373 C 69.162 223.034,67.774 218.640,66.924 215.714 C 66.599 214.595,66.226 213.357,66.095 212.964 C 65.846 212.215,65.289 209.886,65.088 208.750 C 65.024 208.383,64.755 207.408,64.492 206.583 C 64.229 205.758,63.743 204.071,63.412 202.833 C 62.631 199.916,62.328 198.846,61.595 196.417 C 61.262 195.317,60.810 193.592,60.590 192.583 C 60.070 190.211,58.872 185.513,58.676 185.083 C 58.454 184.597,58.103 183.405,57.339 180.550 C 56.967 179.157,56.513 177.669,56.331 177.245 C 55.923 176.292,55.919 176.001,56.304 175.116 C 57.356 172.695,57.710 171.470,57.511 170.945 C 57.261 170.288,56.973 170.397,56.383 171.375 M214.922 177.861 C 214.880 177.983,214.699 178.496,214.520 179.000 C 214.341 179.504,214.065 180.517,213.907 181.250 C 213.748 181.983,213.508 182.921,213.374 183.333 C 213.205 183.852,213.092 185.319,213.009 188.097 C 212.942 190.305,212.840 192.187,212.783 192.280 C 212.725 192.373,212.643 194.955,212.599 198.016 C 212.556 201.078,212.469 205.308,212.405 207.417 C 212.323 210.158,212.356 212.009,212.520 213.917 C 212.647 215.383,212.734 217.896,212.714 219.500 C 212.634 225.842,212.475 230.179,212.248 232.167 C 211.764 236.409,211.870 238.425,212.547 237.863 C 212.736 237.707,212.870 237.731,213.185 237.979 C 213.724 238.403,214.940 238.424,215.159 238.014 C 215.314 237.724,216.118 234.366,216.478 232.500 C 217.276 228.376,217.391 219.036,216.763 209.333 C 216.556 206.121,216.647 191.924,216.881 191.123 C 216.916 191.003,218.904 194.867,219.176 195.583 C 219.245 195.767,219.427 196.254,219.580 196.667 C 219.732 197.079,220.065 197.792,220.318 198.250 C 220.572 198.708,220.869 199.441,220.977 199.878 C 221.085 200.315,221.434 201.231,221.753 201.912 C 222.072 202.594,222.333 203.213,222.333 203.289 C 222.333 203.365,222.596 204.049,222.916 204.809 C 223.237 205.570,223.722 206.821,223.993 207.591 C 224.543 209.147,224.994 210.213,225.578 211.333 C 225.793 211.746,226.320 213.283,226.748 214.750 C 227.177 216.217,227.672 217.783,227.847 218.231 C 228.023 218.678,228.167 219.128,228.167 219.231 C 228.169 219.526,229.238 222.293,229.898 223.709 C 230.229 224.420,230.500 225.104,230.500 225.229 C 230.500 225.355,230.826 226.198,231.225 227.104 C 231.625 228.009,232.004 228.975,232.069 229.250 C 232.134 229.525,232.438 230.275,232.744 230.917 C 234.054 233.662,234.498 234.650,234.842 235.588 C 235.042 236.136,235.436 237.071,235.716 237.667 C 236.156 238.601,236.226 238.939,236.226 240.125 C 236.227 241.573,236.257 241.668,236.581 241.225 C 236.866 240.836,237.106 241.052,237.226 241.804 C 237.387 242.808,237.797 243.670,238.066 243.567 C 238.771 243.296,240.113 239.600,240.571 236.667 C 241.163 232.875,241.179 200.323,240.590 197.000 C 240.550 196.771,240.473 195.158,240.419 193.417 C 240.321 190.185,240.287 189.666,239.981 186.750 C 239.620 183.298,239.306 180.879,239.074 179.750 C 238.942 179.108,238.834 178.372,238.833 178.114 C 238.833 177.461,237.949 177.509,237.860 178.167 C 237.829 178.396,237.643 178.757,237.446 178.969 C 237.113 179.328,237.088 179.536,237.072 182.052 C 237.063 183.536,236.975 185.875,236.875 187.250 C 236.776 188.625,236.688 193.987,236.679 199.167 C 236.670 204.346,236.588 210.458,236.496 212.750 C 236.285 218.051,236.002 223.054,235.907 223.149 C 235.866 223.189,235.833 223.135,235.833 223.028 C 235.833 222.922,235.583 222.291,235.277 221.626 C 234.972 220.961,234.581 220.042,234.409 219.583 C 234.237 219.125,233.749 218.037,233.324 217.167 C 232.899 216.296,232.434 215.321,232.290 215.000 C 231.479 213.187,230.815 211.642,230.498 210.834 C 230.301 210.330,230.080 209.842,230.007 209.750 C 229.696 209.358,228.187 206.360,227.993 205.750 C 227.876 205.383,227.646 204.844,227.482 204.551 C 227.318 204.259,226.843 203.238,226.427 202.282 C 225.749 200.726,224.475 198.324,223.037 195.894 C 222.759 195.423,222.008 193.987,221.369 192.703 C 220.730 191.419,219.981 190.041,219.706 189.640 C 219.430 189.240,218.809 188.164,218.324 187.249 C 217.840 186.335,217.232 185.226,216.972 184.786 C 216.617 184.184,216.500 183.770,216.500 183.118 C 216.499 180.749,215.305 176.768,214.922 177.861 M141.016 178.875 C 140.653 179.356,140.125 179.886,139.843 180.052 C 139.030 180.531,138.855 181.052,138.907 182.840 C 138.933 183.707,138.859 185.354,138.742 186.500 C 138.525 188.646,138.544 197.022,138.769 197.833 C 138.832 198.063,138.910 199.862,138.941 201.833 C 139.067 209.763,139.186 213.624,139.327 214.417 C 139.558 215.714,139.512 227.165,139.276 227.172 C 139.168 227.175,139.200 227.267,139.349 227.380 C 139.560 227.542,139.641 228.110,139.747 230.167 C 140.055 236.135,140.564 237.895,141.802 237.272 C 142.049 237.148,142.451 236.999,142.697 236.940 C 143.594 236.725,144.460 234.696,144.877 231.833 L 145.108 230.250 145.679 230.279 C 145.993 230.295,146.625 230.423,147.083 230.564 C 151.002 231.770,151.712 231.943,154.667 232.417 C 156.081 232.644,156.270 232.644,156.435 232.419 C 156.537 232.280,156.666 232.167,156.723 232.167 C 157.089 232.167,160.206 229.924,160.557 229.408 C 161.058 228.671,160.985 228.312,160.360 228.435 C 160.091 228.489,159.098 228.266,157.833 227.868 C 156.688 227.507,154.850 226.969,153.750 226.671 C 152.650 226.374,151.431 226.031,151.041 225.909 C 150.651 225.786,149.252 225.477,147.932 225.222 L 145.531 224.757 145.619 222.587 C 145.667 221.393,145.620 219.217,145.514 217.750 C 145.293 214.705,144.845 206.888,144.838 205.971 L 144.833 205.358 145.875 205.772 C 147.596 206.455,149.687 206.809,152.604 206.911 L 155.292 207.006 155.808 206.524 C 156.091 206.259,156.944 205.722,157.703 205.330 C 159.234 204.539,160.006 204.041,159.970 203.866 C 159.958 203.802,160.004 203.621,160.073 203.464 C 160.305 202.935,160.088 202.775,159.073 202.722 C 158.529 202.694,157.596 202.561,157.000 202.425 C 151.210 201.110,149.821 200.859,147.051 200.630 L 144.667 200.433 144.647 199.841 C 144.538 196.523,144.474 195.548,144.251 193.786 C 144.109 192.666,143.879 190.963,143.739 190.000 C 143.367 187.432,143.113 185.133,143.147 184.637 C 143.172 184.283,143.691 184.421,145.000 185.126 C 148.717 187.130,156.664 187.972,158.361 186.541 C 158.514 186.412,159.264 185.989,160.028 185.600 C 162.493 184.345,162.791 184.150,162.808 183.772 C 162.816 183.577,162.845 183.284,162.870 183.122 C 162.912 182.857,162.712 182.820,160.917 182.752 C 159.817 182.711,158.392 182.569,157.750 182.437 C 151.055 181.059,146.599 180.338,144.667 180.320 C 142.589 180.301,142.560 180.285,142.330 179.068 C 142.082 177.750,141.888 177.722,141.016 178.875 M83.533 178.367 C 83.423 178.477,83.331 178.683,83.328 178.825 C 83.321 179.164,83.035 179.512,82.397 179.960 C 81.865 180.333,81.771 180.519,81.240 182.250 C 81.072 182.800,80.499 184.276,79.967 185.530 C 79.435 186.784,79.000 187.913,79.000 188.039 C 79.000 188.164,78.935 188.338,78.856 188.425 C 78.653 188.647,78.365 191.184,78.250 193.750 C 78.197 194.942,78.009 197.004,77.833 198.333 C 77.657 199.662,77.466 201.261,77.408 201.885 C 77.314 202.913,77.263 203.037,76.861 203.203 C 74.588 204.139,72.000 205.644,72.000 206.028 C 72.000 206.296,72.757 206.468,73.546 206.379 C 74.076 206.319,74.506 206.377,74.896 206.562 C 75.210 206.711,75.812 206.833,76.234 206.833 L 77.001 206.833 76.914 209.792 C 76.721 216.401,76.517 218.260,75.518 222.500 C 74.941 224.945,74.498 227.657,74.238 230.333 C 74.099 231.754,73.919 233.343,73.837 233.864 C 73.618 235.264,73.794 236.667,74.190 236.667 C 74.360 236.667,74.500 236.779,74.500 236.917 C 74.500 237.276,75.063 237.225,75.417 236.833 C 75.583 236.650,75.845 236.500,76.000 236.500 C 76.582 236.500,77.443 234.847,78.650 231.409 C 80.093 227.301,82.218 218.240,82.850 213.500 C 83.513 208.537,83.523 208.485,83.816 208.571 C 83.963 208.614,84.983 208.695,86.083 208.751 C 88.535 208.875,88.770 208.920,88.884 209.290 C 88.934 209.451,89.161 210.108,89.388 210.750 C 89.615 211.392,90.076 212.929,90.412 214.167 C 90.748 215.404,91.198 217.054,91.411 217.833 C 92.118 220.418,92.488 221.906,92.677 222.917 C 93.234 225.901,94.818 231.476,95.330 232.250 C 95.390 232.342,95.543 232.754,95.669 233.167 C 95.795 233.579,96.065 234.121,96.268 234.371 C 96.472 234.621,96.685 235.033,96.743 235.288 C 97.053 236.667,99.648 238.471,100.411 237.838 C 100.517 237.750,100.870 237.721,101.194 237.773 C 101.609 237.841,101.807 237.802,101.862 237.643 C 102.138 236.844,100.911 230.656,99.339 224.917 C 97.957 219.872,97.198 216.884,96.842 215.083 C 96.507 213.391,96.421 213.040,95.512 209.706 C 95.230 208.673,95.000 207.802,95.000 207.771 C 95.000 207.740,95.467 207.387,96.038 206.987 C 97.385 206.042,98.476 204.818,98.494 204.229 C 98.498 204.106,98.090 204.049,97.292 204.063 C 96.627 204.074,95.573 204.021,94.948 203.944 C 93.661 203.786,93.756 203.902,93.166 201.750 C 92.739 200.193,91.600 196.817,91.245 196.058 C 91.110 195.769,91.000 195.486,91.000 195.428 C 91.000 195.030,88.665 188.667,87.994 187.238 C 87.539 186.268,87.167 185.435,87.167 185.387 C 87.167 185.339,86.782 184.539,86.311 183.608 C 85.366 181.740,84.833 180.332,84.833 179.702 C 84.833 178.783,83.987 177.913,83.533 178.367 M251.653 178.709 C 250.902 179.363,250.276 180.367,250.129 181.154 C 249.613 183.919,249.521 184.848,249.616 186.333 C 249.672 187.204,249.707 189.117,249.694 190.583 C 249.670 193.224,249.696 202.221,249.731 203.667 L 249.750 204.417 248.449 204.440 C 247.734 204.453,247.101 204.510,247.044 204.568 C 246.709 204.902,248.741 206.500,249.501 206.500 C 249.793 206.500,249.846 206.865,249.930 209.451 C 249.977 210.899,250.054 212.421,250.102 212.833 C 250.244 214.050,250.292 223.838,250.184 229.417 C 250.041 236.778,249.748 236.255,254.083 236.391 L 254.917 236.417 255.019 235.000 C 255.075 234.221,255.241 233.246,255.388 232.833 C 256.377 230.052,256.512 224.030,255.868 211.442 C 255.730 208.750,255.618 208.912,257.366 209.267 C 259.350 209.669,261.335 209.517,265.000 208.682 C 265.321 208.609,266.055 208.355,266.631 208.117 C 267.207 207.880,268.013 207.635,268.422 207.574 L 269.167 207.462 269.167 208.561 C 269.167 209.165,269.240 210.768,269.329 212.122 C 269.418 213.476,269.531 216.796,269.580 219.500 C 269.677 224.889,269.852 227.904,270.238 230.833 C 270.377 231.887,270.570 233.387,270.667 234.166 C 270.866 235.756,271.328 236.425,272.093 236.233 C 272.371 236.163,272.524 236.233,272.664 236.495 C 273.200 237.497,273.875 236.473,274.764 233.311 C 275.479 230.767,275.537 225.736,274.919 219.917 C 274.890 219.642,274.855 216.280,274.843 212.446 L 274.819 205.476 275.227 205.155 C 275.783 204.717,276.737 202.670,276.496 202.430 C 276.397 202.331,275.926 202.250,275.450 202.250 L 274.583 202.250 274.549 200.750 C 274.423 195.316,273.374 186.257,272.348 181.750 C 272.265 181.383,272.100 180.652,271.981 180.125 C 271.862 179.598,271.686 179.168,271.591 179.170 C 271.033 179.182,270.000 180.733,270.000 181.559 C 270.000 181.783,269.805 182.854,269.567 183.941 C 269.203 185.603,269.141 186.260,269.178 188.083 C 269.231 190.754,269.231 191.836,269.170 197.873 C 269.116 203.199,269.163 202.997,267.956 203.111 C 267.568 203.148,266.913 203.256,266.502 203.352 C 266.011 203.465,264.518 203.481,262.168 203.396 C 260.197 203.326,258.508 203.291,258.417 203.319 C 258.325 203.347,257.875 203.400,257.417 203.437 C 256.958 203.473,256.306 203.540,255.966 203.586 C 255.220 203.685,255.229 203.722,255.092 200.250 C 255.041 198.967,254.890 196.829,254.757 195.500 C 254.624 194.171,254.436 191.821,254.339 190.279 C 254.156 187.360,253.832 184.958,253.391 183.250 C 253.249 182.700,252.966 181.392,252.761 180.343 C 252.355 178.258,252.287 178.158,251.653 178.709 M170.583 179.820 C 168.701 180.179,165.833 181.483,165.833 181.980 C 165.833 182.170,165.595 182.441,165.250 182.645 C 164.168 183.283,164.587 183.494,166.946 183.498 C 168.310 183.500,168.525 183.543,168.946 183.896 C 170.135 184.896,173.590 186.338,176.500 187.049 C 179.881 187.875,181.583 188.044,183.875 187.780 C 184.860 187.666,185.667 187.586,185.667 187.601 C 185.667 187.669,183.876 190.313,183.474 190.838 C 183.231 191.156,182.788 191.904,182.490 192.500 C 182.192 193.096,181.791 193.807,181.599 194.081 C 181.407 194.355,181.170 194.730,181.071 194.914 C 180.664 195.679,180.369 196.161,179.379 197.683 C 178.806 198.563,178.223 199.538,178.083 199.850 C 177.697 200.711,176.330 203.217,176.092 203.500 C 175.835 203.805,173.429 208.752,173.255 209.333 C 173.186 209.563,172.773 210.612,172.336 211.667 C 171.898 212.721,171.227 214.553,170.842 215.737 C 170.458 216.922,170.009 218.160,169.843 218.487 C 169.678 218.815,169.417 219.608,169.263 220.250 C 169.016 221.282,168.588 222.574,168.159 223.583 C 168.082 223.767,167.792 224.592,167.516 225.417 C 166.391 228.777,166.161 229.197,165.147 229.750 C 164.258 230.234,163.500 230.810,163.500 231.000 C 163.500 231.051,163.877 231.240,164.338 231.418 C 165.136 231.728,165.174 231.772,165.145 232.330 C 165.100 233.214,165.349 234.734,165.562 234.872 C 165.908 235.097,166.445 235.003,166.752 234.664 C 166.933 234.465,167.174 234.366,167.348 234.421 C 167.565 234.490,167.838 234.236,168.418 233.424 C 169.294 232.195,169.198 232.255,169.800 232.566 C 171.818 233.608,174.856 233.995,181.083 234.003 C 183.650 234.006,186.162 234.022,186.667 234.038 C 187.764 234.073,189.303 233.929,190.333 233.696 C 190.746 233.602,191.381 233.527,191.744 233.529 C 192.260 233.532,192.491 233.434,192.796 233.079 L 193.186 232.625 192.832 232.248 C 192.100 231.470,187.657 229.824,184.917 229.317 C 181.178 228.625,178.112 228.324,174.446 228.288 C 171.325 228.258,171.486 228.404,172.242 226.283 C 172.799 224.723,174.357 220.538,174.675 219.750 C 174.749 219.567,175.182 218.329,175.638 217.000 C 176.094 215.671,176.784 213.871,177.172 213.000 C 177.560 212.129,178.188 210.667,178.568 209.750 C 178.948 208.833,179.454 207.746,179.692 207.333 C 179.930 206.921,180.498 205.871,180.953 205.000 C 181.409 204.129,182.063 202.929,182.407 202.333 C 182.750 201.737,183.302 200.725,183.632 200.083 C 183.962 199.442,184.569 198.392,184.980 197.750 C 185.391 197.108,186.113 195.833,186.584 194.917 C 187.055 194.000,188.136 191.900,188.986 190.250 C 189.837 188.600,190.987 186.350,191.543 185.250 C 192.099 184.150,192.850 182.828,193.212 182.312 C 193.904 181.326,194.233 179.997,193.845 179.757 C 193.602 179.607,192.833 180.097,192.833 180.402 C 192.833 180.526,192.321 180.933,191.695 181.305 C 191.069 181.677,190.460 182.097,190.343 182.239 C 189.443 183.322,189.034 183.310,185.273 182.088 C 184.277 181.765,183.345 181.500,183.201 181.500 C 183.058 181.500,182.710 181.430,182.428 181.345 C 176.699 179.615,173.689 179.227,170.583 179.820 M201.125 180.472 C 200.847 180.641,200.667 180.895,200.667 181.121 C 200.667 181.363,200.495 181.580,200.173 181.747 C 199.268 182.215,198.766 183.358,198.633 185.250 C 198.312 189.842,198.004 205.269,198.227 205.629 C 198.369 205.859,198.383 218.228,198.248 224.341 C 198.131 229.661,198.148 230.579,198.381 231.591 C 198.528 232.228,198.694 233.101,198.749 233.530 C 198.863 234.407,199.384 235.201,199.754 235.059 C 199.907 235.000,200.104 235.155,200.290 235.482 C 200.963 236.666,201.952 235.032,203.152 230.750 C 203.435 229.742,203.731 228.692,203.811 228.417 C 203.891 228.142,203.973 227.354,203.993 226.667 C 204.013 225.979,204.086 224.367,204.157 223.083 C 204.437 217.983,204.164 199.483,203.761 196.250 C 203.727 195.975,203.615 194.625,203.512 193.250 C 202.612 181.173,202.343 179.731,201.125 180.472 M130.067 180.461 C 129.966 180.528,129.790 180.760,129.677 180.975 C 129.563 181.191,129.109 181.866,128.668 182.475 C 127.374 184.263,126.909 186.850,126.987 191.833 C 126.998 192.521,126.998 196.693,126.988 201.104 C 126.974 207.515,127.026 209.639,127.246 211.689 C 127.398 213.099,127.496 214.627,127.465 215.085 L 127.409 215.917 127.058 215.167 C 125.880 212.650,123.083 206.915,122.587 206.000 C 122.264 205.404,121.166 203.239,120.147 201.188 C 119.129 199.138,118.090 197.151,117.840 196.772 C 117.589 196.393,116.931 195.183,116.378 194.083 C 115.059 191.462,114.198 189.825,114.021 189.599 C 113.943 189.499,113.505 188.704,113.049 187.833 C 110.728 183.407,108.919 180.521,108.457 180.508 C 107.884 180.492,106.876 183.076,106.755 184.870 C 106.697 185.721,106.578 187.054,106.489 187.833 C 106.048 191.720,106.046 192.034,106.420 200.000 C 106.461 200.871,106.537 203.827,106.588 206.570 C 106.639 209.312,106.733 211.637,106.796 211.736 C 106.860 211.835,106.916 216.117,106.922 221.250 C 106.928 226.383,106.988 230.957,107.056 231.414 C 108.069 238.299,111.018 234.126,111.824 224.667 C 112.265 219.502,112.467 215.019,112.403 211.833 C 112.311 207.323,112.183 203.721,112.088 203.000 C 111.934 201.823,111.893 199.159,112.032 199.298 C 112.208 199.475,114.520 204.201,114.821 205.000 C 115.160 205.901,119.682 215.051,119.930 215.337 C 120.050 215.476,120.802 216.864,121.601 218.420 C 122.399 219.977,123.362 221.813,123.741 222.500 C 124.120 223.188,124.611 224.200,124.833 224.750 C 125.054 225.300,125.510 226.313,125.844 227.000 C 126.179 227.688,126.510 228.438,126.581 228.667 C 126.755 229.231,128.006 231.333,128.168 231.333 C 128.370 231.333,128.521 231.825,128.668 232.964 C 128.875 234.571,129.646 235.067,130.278 233.997 C 130.528 233.574,130.665 233.502,131.148 233.539 C 131.676 233.580,131.734 233.537,131.875 233.000 C 131.959 232.679,132.137 232.296,132.269 232.148 C 133.798 230.442,134.135 220.495,133.138 206.500 C 132.952 203.887,132.737 199.050,132.661 195.750 C 132.490 188.376,132.284 186.600,130.914 180.708 C 130.828 180.337,130.428 180.220,130.067 180.461 M294.311 183.078 C 294.268 183.121,293.712 183.190,293.075 183.231 C 292.438 183.272,291.706 183.387,291.447 183.486 C 291.189 183.585,290.789 183.667,290.557 183.667 C 290.143 183.667,287.526 185.136,286.625 185.874 C 285.061 187.155,284.327 187.861,283.665 188.724 C 282.891 189.732,281.667 191.480,281.667 191.578 C 281.667 191.608,281.422 191.997,281.123 192.442 C 280.824 192.886,280.473 193.588,280.343 194.000 C 280.212 194.412,279.857 195.299,279.553 195.971 C 279.249 196.642,279.000 197.364,279.000 197.575 C 279.000 197.786,278.887 198.229,278.749 198.559 C 278.568 198.994,278.474 200.067,278.409 202.455 C 278.361 204.267,278.247 206.425,278.157 207.250 C 277.851 210.057,277.818 212.833,278.070 214.583 C 278.203 215.500,278.388 216.871,278.483 217.631 C 278.655 219.005,280.131 224.888,280.584 226.000 C 280.714 226.321,280.906 226.921,281.010 227.333 C 281.114 227.746,281.259 228.158,281.333 228.250 C 281.406 228.342,281.577 228.792,281.712 229.250 C 282.262 231.109,283.391 232.667,284.189 232.667 C 284.347 232.667,284.589 232.779,284.726 232.917 C 284.864 233.054,285.127 233.167,285.312 233.167 C 285.497 233.167,285.921 233.328,286.254 233.525 C 286.731 233.806,287.205 233.897,288.471 233.949 C 289.357 233.985,290.153 234.086,290.241 234.174 C 290.685 234.618,292.351 233.889,293.843 232.597 C 294.169 232.314,294.781 231.846,295.202 231.556 C 298.326 229.408,301.261 222.714,302.317 215.333 C 302.848 211.618,303.000 208.889,302.819 206.322 C 302.532 202.269,302.303 200.742,301.496 197.500 C 301.302 196.721,301.080 195.746,301.003 195.333 C 300.926 194.921,300.752 194.246,300.617 193.833 C 300.481 193.421,300.021 191.658,299.593 189.917 C 299.165 188.175,298.744 186.620,298.657 186.461 C 298.571 186.301,298.500 186.026,298.500 185.849 C 298.500 184.127,296.453 185.430,295.260 187.911 C 294.675 189.130,294.553 198.523,295.076 202.144 C 295.534 205.311,295.323 211.022,294.621 214.500 C 294.482 215.188,294.238 216.612,294.080 217.667 C 293.772 219.712,293.211 222.334,292.760 223.833 C 292.517 224.643,291.716 227.518,291.414 228.667 C 291.233 229.355,290.682 230.380,290.159 231.000 L 289.667 231.583 289.161 231.000 C 287.893 229.535,287.253 227.455,286.326 221.774 C 286.148 220.687,285.934 219.524,285.849 219.190 C 285.711 218.646,285.534 217.409,285.238 214.917 C 285.072 213.519,285.033 207.990,285.181 206.750 C 285.258 206.108,285.389 205.096,285.474 204.500 C 286.626 196.374,286.676 196.169,288.437 192.375 C 288.660 191.894,288.916 191.500,289.005 191.500 C 289.094 191.500,289.167 191.313,289.167 191.083 C 289.167 190.854,289.319 190.535,289.504 190.375 C 289.690 190.215,290.084 189.845,290.379 189.555 C 290.901 189.041,291.708 188.503,292.442 188.179 C 292.639 188.092,292.850 187.941,292.910 187.844 C 292.970 187.746,293.134 187.667,293.274 187.667 C 293.631 187.667,295.979 186.017,296.194 185.616 C 296.291 185.434,296.669 184.962,297.033 184.567 C 297.763 183.775,297.805 183.327,297.166 183.149 C 296.690 183.017,294.428 182.960,294.311 183.078 M338.070 189.991 C 337.380 191.034,337.609 191.441,340.218 193.806 C 342.858 196.199,343.988 197.398,345.044 198.931 C 351.631 208.485,353.437 215.312,352.164 225.833 C 351.561 230.815,351.168 232.497,350.082 234.757 C 349.683 235.585,349.081 236.892,348.743 237.660 C 345.052 246.055,340.608 250.507,331.458 254.974 C 327.543 256.885,327.092 257.165,327.511 257.424 C 327.609 257.484,327.652 257.632,327.606 257.751 C 327.019 259.281,331.565 258.743,334.750 256.906 C 335.117 256.694,336.373 256.105,337.542 255.596 C 338.710 255.088,340.114 254.445,340.662 254.169 C 341.209 253.893,341.753 253.666,341.870 253.666 C 342.275 253.665,346.758 251.137,348.852 249.730 C 359.016 242.896,364.011 234.455,363.562 224.867 C 363.030 213.505,360.974 206.601,355.055 196.307 C 353.836 194.189,351.917 191.699,351.325 191.470 C 351.164 191.407,350.256 191.271,349.308 191.167 C 347.590 190.979,345.978 190.736,343.037 190.224 C 341.961 190.036,341.327 190.001,340.954 190.109 C 340.505 190.238,340.274 190.187,339.545 189.798 C 338.467 189.224,338.588 189.208,338.070 189.991 M86.167 201.255 C 86.167 201.379,86.242 201.527,86.333 201.583 C 87.015 202.005,86.481 202.450,85.331 202.418 C 83.849 202.376,83.931 202.555,84.238 200.050 C 84.382 198.869,84.504 197.606,84.510 197.243 C 84.518 196.674,84.633 196.890,85.343 198.807 C 85.796 200.030,86.167 201.131,86.167 201.255 " fill="#fafafa" fill-rule="evenodd"/>
  </g>
</svg>