<svg width="200" height="30" viewBox="0 0 383 130" version="1.1" xmlns="http://www.w3.org/2000/svg" xmlns:xlink="http://www.w3.org/1999/xlink" xml:space="preserve" xmlns:serif="http://www.serif.com/" style="fill-rule:evenodd;clip-rule:evenodd;stroke-linejoin:round;stroke-miterlimit:2;">
    <g id="Artboard1" transform="matrix(1,0,0,1,-9.67869,-4.61028)">
        <rect x="9.679" y="4.61" width="382.793" height="129.803" style="fill:none;"/>
        <g id="svgg" transform="matrix(1,0,0,1,0.678688,0.610277)">
            <path id="path0" d="M36.847,5.927C35.929,6.325 34.6,7.57 33.793,8.786C32.779,10.316 30.92,13.762 30.666,14.583C30.553,14.95 30.126,16.072 29.719,17.078C28.863,19.185 28.5,20.468 28.5,21.38C28.5,21.734 28.317,22.749 28.093,23.636C27.432,26.256 26.993,28.483 26.822,30.083C26.733,30.908 26.408,32.558 26.099,33.75C25.475,36.157 25.078,39.418 25.254,40.699C25.383,41.637 25.154,44.119 24.57,48.095C24.354,49.569 24.062,52.006 23.921,53.512C23.781,55.018 23.555,56.962 23.419,57.833C22.76,62.069 22.623,63.426 22.412,67.833C22.288,70.446 22.146,72.921 22.098,73.333C22.05,73.746 21.932,75.283 21.836,76.75C21.424,83.055 20.951,87.003 19.907,92.833C19.686,94.071 19.459,95.608 19.404,96.25C19.348,96.892 19.157,97.942 18.978,98.583C18.8,99.225 18.612,100.425 18.561,101.25C18.511,102.075 18.294,103.35 18.08,104.083C17.866,104.817 17.608,106.279 17.507,107.333C17.405,108.388 17.141,110 16.918,110.917C14.887,119.286 14.666,122.19 15.871,124.716C17.665,128.478 19.828,129.205 23.39,127.244C26.851,125.34 28.644,122.329 29.443,117.083C29.582,116.167 29.796,114.817 29.918,114.083C30.04,113.35 30.264,112 30.416,111.083C30.569,110.167 30.908,108.704 31.17,107.833C31.716,106.023 32.415,102.231 32.675,99.672C32.773,98.713 32.956,97.438 33.082,96.839C33.208,96.24 33.428,94.7 33.57,93.417C34.225,87.516 34.946,86.917 38.664,89.175C41.647,90.987 43.403,91.395 55,92.977C55.688,93.07 57,93.294 57.917,93.474C58.833,93.654 60.103,93.879 60.739,93.974C62.513,94.24 63.239,94.956 63.734,96.928C63.888,97.539 64.526,99.137 65.151,100.478C67.567,105.655 67.998,106.657 68.721,108.766C69.131,109.963 69.592,111.559 69.746,112.313C69.899,113.066 70.204,114.207 70.422,114.849C70.641,115.492 70.978,116.771 71.172,117.692C71.376,118.662 71.897,120.253 72.411,121.475C72.963,122.79 73.422,124.214 73.629,125.258C74.902,131.671 79.518,133.384 84.083,129.137C86.788,126.621 87.914,120.413 86.375,116.5C85.996,115.537 85.38,113.775 85.006,112.583C84.632,111.392 84.108,109.742 83.842,108.917C83.576,108.092 83.308,107.079 83.246,106.667C83.185,106.254 82.852,105.204 82.508,104.333C82.164,103.462 81.792,102.281 81.682,101.707C81.573,101.133 81.197,99.971 80.847,99.124C80.497,98.276 80.078,97.171 79.916,96.667C79.753,96.162 79.402,95.314 79.136,94.782C78.87,94.25 78.473,93.125 78.253,92.282C78.034,91.439 77.662,90.317 77.427,89.787C76.902,88.602 76.872,87.437 77.333,86.123C77.754,84.926 77.754,84.15 77.331,82.782C77.146,82.184 76.924,81.128 76.836,80.434C76.549,78.176 75.717,77.07 72.847,75.131C71.019,73.897 70.689,73.413 69.348,70C68.897,68.854 68.309,67.429 68.041,66.833C67.773,66.237 67.417,65.337 67.25,64.833C67.084,64.329 66.175,62.17 65.229,60.036C64.284,57.901 63.285,55.426 63.01,54.536C62.734,53.645 61.899,51.679 61.154,50.167C60.408,48.654 59.552,46.779 59.25,46C58.627,44.388 56.016,39.347 54.606,37.03C54.086,36.176 53.441,35.051 53.174,34.53C52.907,34.009 52.139,32.781 51.469,31.8C50.799,30.819 49.672,29.169 48.965,28.133C48.258,27.098 47.16,25.596 46.524,24.797C45.317,23.279 45.136,22.955 44.013,20.286C43.146,18.225 43.033,17.228 43.42,15.03C43.857,12.541 43.441,11.183 41.202,7.794C40.227,6.317 38.075,5.394 36.847,5.927M105.859,17.844C104.621,18.34 102.477,20.831 101.492,22.917C100.078,25.913 99.564,26.08 95.417,24.889C90.579,23.501 85.744,24.354 83.234,27.039C80.026,30.47 79.821,31.062 79.817,36.926C79.814,41.488 79.846,41.645 81.021,42.921C82.713,44.756 85.63,45.176 88.333,43.975L89.583,43.42L92.417,43.431C100.426,43.463 101.993,44.348 102.421,49.083C102.479,49.725 102.627,50.85 102.749,51.583C102.872,52.317 103.096,53.892 103.248,55.083C103.401,56.275 103.632,57.984 103.763,58.882C103.893,59.779 104.001,61.054 104.001,61.715C104.002,62.376 104.157,63.554 104.347,64.333C104.537,65.112 104.757,66.688 104.837,67.833C104.917,68.979 105.103,70.704 105.251,71.667C105.399,72.629 105.579,74.054 105.65,74.833C105.722,75.612 105.903,76.887 106.053,77.667C106.203,78.446 106.406,80.729 106.504,82.741C106.735,87.464 106.868,87.215 104.048,87.336C100.477,87.49 99.867,88.387 99.383,94.189C99.088,97.734 100.837,100.619 104.75,103.043C107.246,104.59 107.501,105 107.498,107.469C107.495,110.138 108.42,113.614 109.497,114.976C112.339,118.572 116.041,118.077 120.412,113.517C121.204,112.691 122.042,112.409 122.964,112.657C123.651,112.842 128.498,115.018 129.096,115.41C129.515,115.684 132.964,117.207 135.333,118.164C136.204,118.516 137.704,119.158 138.667,119.592C139.629,120.026 141.204,120.653 142.167,120.986C143.129,121.319 144.484,121.898 145.178,122.272C147.037,123.276 148.065,123.612 149.919,123.819C150.834,123.921 152.308,124.09 153.194,124.194C154.229,124.316 155.272,124.333 156.111,124.241C156.829,124.163 158.167,124.089 159.083,124.076C160,124.063 160.905,124.041 161.094,124.026C162.847,123.892 169.135,118.287 170.804,115.372C173.75,110.224 174.583,103.667 172.915,98.744C172.281,96.874 172.102,96.088 172.002,94.746C171.914,93.548 171.777,92.875 171.517,92.367C170.708,90.78 169.391,88.674 168.422,87.417C167.856,86.683 167.139,85.709 166.828,85.251C166.517,84.794 165.883,84.006 165.42,83.501C164.957,82.996 164.155,82.021 163.639,81.333C162.644,80.01 161.535,78.91 159.038,76.77C155.636,73.856 155.415,73.417 156.083,70.915C156.653,68.782 156.823,65.856 156.456,64.5C154.958,58.972 154.021,56.851 152.036,54.5C150.141,52.255 145.774,48.268 144.109,47.262C141.743,45.832 140.122,44.768 139.425,44.186C138.467,43.384 136.074,41.794 135.037,41.268C134.553,41.023 133.39,40.364 132.453,39.804C131.516,39.244 130.06,38.465 129.217,38.073C128.374,37.681 127.156,37.019 126.512,36.602C125.3,35.819 121.996,34.218 119.083,33.003C114.7,31.176 114.209,30.616 113.67,26.833C113.427,25.132 111.403,21.015 109.805,18.971C108.943,17.87 107.106,17.345 105.859,17.844M304.974,33.886C301.234,35.3 299.341,37.521 298.578,41.388C298.358,42.504 298.016,44.099 297.818,44.934C296.616,49.985 298.417,52.496 303.583,52.977C304.763,53.087 305.803,53.294 306.5,53.556C307.225,53.829 308.544,54.083 310.487,54.323C312.084,54.52 313.44,54.713 313.502,54.751C313.563,54.789 314.582,54.972 315.765,55.157C316.948,55.342 318.479,55.676 319.167,55.898C319.854,56.12 321.242,56.426 322.25,56.578C323.258,56.73 324.946,56.997 326,57.171C327.054,57.345 328.286,57.528 328.737,57.578C330.946,57.821 331.317,58.425 332.769,64.129C333.369,66.487 334.153,69.542 334.512,70.917C334.87,72.292 335.39,74.504 335.665,75.833C335.941,77.162 336.325,78.962 336.518,79.833C337.324,83.46 337.658,85.299 337.662,86.117C337.665,86.594 337.831,88.056 338.032,89.367C338.482,92.307 338.501,99.785 338.063,101.365C337.928,101.852 337.752,103.188 337.672,104.333C337.567,105.827 337.402,106.794 337.087,107.75C336.701,108.92 336.629,109.503 336.497,112.5L336.346,115.917L336.823,117.25C338.119,120.877 338.571,122.01 339.154,123.083C339.502,123.725 339.958,124.775 340.167,125.417C341.617,129.866 342.56,130.744 346.279,131.111C347.94,131.275 350.936,130.041 352.557,128.526C354.87,126.362 355.396,118.04 353.5,113.602C352.35,110.912 352.318,110.356 353.104,106.833C353.499,105.064 353.518,104.808 353.344,103.5C353.228,102.635 353.173,100.168 353.202,97.167C353.252,92.091 353.044,88.531 352.581,86.5C352.445,85.904 352.258,84.636 352.164,83.682C352.071,82.728 351.884,81.467 351.748,80.88C351.611,80.293 351.501,79.386 351.502,78.865C351.504,77.925 351.271,76.654 350.626,74.083C350.442,73.35 350.22,72.262 350.132,71.667C349.965,70.528 349.477,67.662 349.071,65.428C348.777,63.815 348.901,62.633 349.427,62.023C349.956,61.41 353.38,61.395 355.75,61.994C356.905,62.287 357.824,62.385 359.75,62.424C361.125,62.451 363.15,62.557 364.25,62.66C365.35,62.762 366.813,62.802 367.5,62.748C368.258,62.689 369.866,62.771 371.583,62.955C376.846,63.52 380.495,62.887 383.047,60.966C383.709,60.468 384.643,59.814 385.123,59.514C387.204,58.212 387.829,57.135 388.419,53.833L388.702,52.25L388.108,48.713C387.46,44.861 387.338,44.514 386.195,43.291C384.564,41.548 383.138,41.398 378.749,42.507C373.537,43.823 361.649,43.988 356.083,42.82C355.258,42.647 354.251,42.504 353.845,42.503C353.438,42.501 352.426,42.423 351.595,42.328C342.265,41.267 342.478,41.322 340.61,39.523C338.852,37.831 338.723,37.784 335.667,37.744C331.149,37.684 328.343,37.32 324.083,36.241C322.892,35.939 321.129,35.566 320.167,35.411C318.267,35.105 315.105,34.498 313.25,34.083C311.586,33.711 305.803,33.573 304.974,33.886M272.387,34.573C270.667,35.111 268.247,37.553 267.504,39.5C267.382,39.821 266.916,40.882 266.468,41.859C264.779,45.55 264.941,48.444 267.085,52.853C267.651,54.017 267.805,54.539 267.896,55.603C267.991,56.723 268.131,57.163 268.84,58.583C269.581,60.065 269.685,60.407 269.778,61.667C269.842,62.53 270.075,63.669 270.374,64.583C270.788,65.848 270.883,66.468 270.98,68.53C271.093,70.957 271.098,70.983 271.646,71.746C272.401,72.798 273.393,75.15 273.737,76.704C273.893,77.413 274.316,78.8 274.677,79.788C275.306,81.509 276.683,86.764 276.917,88.333C276.978,88.746 277.202,89.758 277.416,90.583C277.629,91.408 277.85,92.533 277.908,93.083C277.965,93.633 278.119,94.496 278.25,95C278.588,96.305 279,99.176 278.998,100.207C278.997,100.689 279.117,101.946 279.266,103C279.805,106.832 278.528,108.183 276.066,106.387C266.14,99.147 255.453,86.711 253.247,79.833C253.085,79.329 252.555,78.167 252.068,77.25C250.657,74.592 249.08,70.203 248.342,66.877C247.838,64.608 247.874,64.278 248.817,62.477C250.688,58.903 251.262,56.178 250.741,53.333C250.165,50.189 250.054,49.911 248.834,48.596C248.217,47.93 247.437,46.868 247.1,46.235C244.558,41.453 240.827,40.633 237.203,44.061C234.71,46.419 233.585,48.946 232.814,53.917C232.445,56.292 232.608,63.733 233.059,65.132C233.287,65.838 233.598,67.376 233.749,68.549C233.901,69.722 234.173,71.216 234.354,71.868C234.535,72.52 234.756,73.661 234.845,74.402C235.03,75.936 235.483,77.576 236.171,79.199C236.431,79.813 236.806,80.893 237.004,81.598C238.358,86.424 243.136,96.407 245.093,98.5C245.849,99.308 246.746,100.549 247.516,101.85C250.462,106.83 258.925,116.007 264.833,120.626C266.071,121.594 267.383,122.657 267.75,122.988C268.117,123.32 269.467,124.32 270.75,125.21C272.033,126.101 273.447,127.149 273.892,127.54C274.847,128.379 275.176,128.41 278.428,127.965C284.299,127.163 288.174,123.639 290.36,117.114C290.642,116.272 291.079,115.021 291.332,114.333C293.065,109.612 293.599,102.141 292.508,97.864C292.329,97.159 292.103,95.646 292.007,94.5C291.373,86.953 291.395,87.102 290.652,85.364C290.272,84.476 289.856,83.15 289.729,82.417C289.337,80.166 288.848,78.044 288.256,76.019C287.944,74.955 287.566,73.408 287.416,72.583C286.995,70.275 286.05,66.44 285.424,64.5C285.114,63.538 284.811,62.188 284.75,61.5C284.69,60.813 284.452,59.575 284.222,58.751C283.992,57.926 283.695,56.576 283.563,55.751C283.43,54.925 283.067,53.387 282.756,52.333C282.446,51.279 281.995,49.64 281.755,48.69C281.515,47.741 281.022,46.184 280.659,45.23C280.297,44.277 279.849,42.804 279.665,41.957C279.125,39.481 276.623,35.201 275.333,34.549C274.801,34.28 273.286,34.292 272.387,34.573M170.25,38.971C168.468,39.819 166.17,42.562 165.337,44.833C165.22,45.154 164.778,46.167 164.357,47.083C163.619,48.686 163.586,48.827 163.483,50.75C163.397,52.386 163.298,52.932 162.943,53.75C162.439,54.909 162.402,55.613 162.756,57.31C162.918,58.086 162.974,58.883 162.909,59.477C162.835,60.144 162.955,61.358 163.321,63.667C163.605,65.454 163.881,67.217 163.934,67.583C163.988,67.95 164.291,69.3 164.608,70.583C164.925,71.867 165.253,73.651 165.336,74.548C165.46,75.883 165.613,76.473 166.179,77.798C166.559,78.688 167.054,79.924 167.278,80.545C168.605,84.225 172.46,91.652 174.02,93.534C177.4,97.614 185.065,104.686 188.833,107.203C189.612,107.724 190.813,108.646 191.5,109.253C192.779,110.383 194.436,111.567 195.917,112.411C196.375,112.672 197.35,113.314 198.083,113.836C198.817,114.359 200.129,115.295 201,115.917C201.871,116.538 203.108,117.294 203.75,117.595C207.503,119.359 209.25,120.077 210.616,120.418C211.526,120.645 212.655,121.08 213.395,121.488C217.402,123.7 223.992,122.457 228.32,118.672C230.499,116.767 230.658,116.547 231.489,114.276C233.206,109.583 233.646,106.247 233.094,102.083C232.961,101.075 232.777,99.65 232.687,98.917C232.596,98.183 232.36,97.22 232.163,96.777C231.95,96.297 231.748,95.37 231.666,94.488C231.546,93.214 231.433,92.836 230.859,91.795C230.492,91.128 229.857,89.608 229.449,88.417C229.04,87.225 228.026,84.875 227.195,83.194C226.364,81.513 225.488,79.637 225.248,79.025C224.964,78.3 224.366,77.354 223.531,76.306C222.826,75.422 222.016,74.298 221.729,73.808C221.443,73.318 220.768,72.167 220.23,71.25C219.692,70.333 218.819,69.058 218.291,68.417C217.763,67.775 216.798,66.537 216.147,65.667C214.906,64.006 206.202,55.228 204.167,53.585C203.571,53.104 202.446,52.136 201.667,51.434C199.9,49.842 197.728,48.337 195.761,47.342C194.93,46.922 193.157,45.961 191.82,45.209C190.484,44.456 188.534,43.47 187.487,43.019C186.44,42.568 184.925,41.893 184.12,41.521C182.472,40.759 180.282,40.286 177.167,40.02C175.619,39.887 175.012,39.754 174.013,39.326C172.44,38.653 171.169,38.533 170.25,38.971M39.632,44.292C40.097,44.697 42.443,48.258 43.501,50.167C43.984,51.038 44.735,52.387 45.169,53.167C45.994,54.647 49.954,62.821 50.336,63.833C50.458,64.154 51.3,66.093 52.209,68.141C53.971,72.111 54.069,72.559 53.23,72.77C51.974,73.085 44.547,71.798 40.583,70.577C39.483,70.239 38.321,69.887 38,69.796C36.254,69.299 36.079,68.921 36.221,65.946C36.278,64.738 36.435,63.112 36.57,62.333C36.821,60.888 37.057,58.41 37.341,54.25C37.428,52.967 37.574,51.429 37.663,50.833C37.753,50.237 37.829,48.925 37.831,47.917C37.838,44.84 38.569,43.368 39.632,44.292M120.191,52.796C120.865,53.142 122.317,53.941 123.417,54.572C131.266,59.071 131.052,58.768 128.358,61.59C126.593,63.438 126.388,63.776 125.209,66.75L124.417,68.75L124.424,71.75C124.434,75.811 124.429,75.794 125.972,77.382C127.474,78.928 127.546,78.972 128.865,79.185C129.422,79.274 130.337,79.562 130.897,79.823C131.458,80.084 132.479,80.382 133.167,80.485C134.886,80.744 137.052,81.806 138.752,83.226C139.588,83.924 140.45,84.477 141.068,84.711C141.834,85 142.482,85.474 143.985,86.839C145.047,87.805 146.442,88.982 147.083,89.453C151.449,92.663 158.077,100.663 158.291,102.984C158.479,105.014 155.041,105.417 150.333,103.916C149.646,103.696 148.668,103.444 148.16,103.354C147.652,103.264 146.677,102.97 145.993,102.701C145.309,102.431 143.996,101.978 143.075,101.694C141.466,101.198 138.122,99.896 134.265,98.263C133.265,97.84 131.465,97.184 130.265,96.807C128.072,96.116 122.944,93.932 122.167,93.357C121.369,92.766 121.16,92.155 120.979,89.886C120.886,88.711 120.701,87.15 120.569,86.417C120.107,83.845 119.845,81.726 119.664,79.083C119.564,77.617 119.376,75.704 119.248,74.833C119.119,73.962 118.968,72.237 118.911,71C118.854,69.762 118.704,68.15 118.576,67.417C118.449,66.683 118.27,64.808 118.18,63.25C118.09,61.692 117.934,60.154 117.834,59.833C117.564,58.969 117.174,55.912 117.17,54.636C117.163,52.109 117.936,51.638 120.191,52.796M180.715,59.925C181.559,60.251 182.85,60.84 183.583,61.234C184.317,61.628 185.364,62.117 185.912,62.32C186.459,62.523 187.396,63.046 187.995,63.482C188.594,63.917 189.899,64.751 190.896,65.334C192.842,66.472 195.816,69.026 200.395,73.495C204.772,77.765 206.45,79.77 208.056,82.645C208.485,83.412 209.124,84.387 209.476,84.811C213.099,89.175 217.302,97.17 217.794,100.632C218.119,102.929 213.173,101.9 208.75,98.752C207.558,97.904 205.946,96.851 205.167,96.414C204.387,95.976 203.141,95.186 202.397,94.659C201.653,94.132 200.458,93.358 199.743,92.939C199.028,92.52 197.612,91.502 196.596,90.675C195.581,89.849 194.285,88.89 193.718,88.544C191.453,87.167 185.075,80.63 183.917,78.5C183.55,77.826 182.908,76.894 182.49,76.429C180.859,74.613 178.62,70.271 178.261,68.227C178.133,67.501 177.845,66.491 177.62,65.983C177.153,64.928 176.5,62.064 176.5,61.073C176.5,59.285 177.997,58.877 180.715,59.925" style="fill:rgb(10,10,10);"/>
        </g>
    </g>
</svg>
