<svg id="svg" version="1.1" width="200" height="30" viewBox="0, 0, 400,253.75626043405677" xmlns="http://www.w3.org/2000/svg">
  <g id="svgg">
    <path id="path0" d="M40.609 14.726 C 39.488 14.921,38.888 15.243,36.644 16.851 C 35.650 17.564,34.308 18.458,33.662 18.839 C 32.168 19.719,31.558 20.732,31.346 22.685 C 31.253 23.539,30.966 25.095,30.708 26.142 C 29.020 32.995,29.306 40.883,31.414 45.558 L 32.330 47.589 32.263 53.360 C 32.198 58.865,32.159 59.269,31.419 62.116 C 30.339 66.270,30.303 67.018,31.078 69.270 C 31.833 71.466,31.886 72.822,31.310 75.196 C 30.925 76.783,30.925 77.063,31.304 78.876 C 31.783 81.161,31.871 87.952,31.447 89.811 C 31.299 90.459,31.134 94.074,31.080 97.843 C 31.026 101.612,30.864 105.311,30.720 106.063 C 30.575 106.814,30.453 109.213,30.448 111.393 C 30.442 113.953,30.309 115.894,30.071 116.878 C 29.822 117.912,29.701 119.869,29.697 122.970 C 29.690 128.900,29.424 131.101,28.409 133.629 C 27.598 135.649,27.595 135.671,27.883 137.846 C 28.227 140.440,28.235 143.543,27.903 145.305 C 27.772 146.003,27.555 148.173,27.421 150.127 C 27.288 152.081,26.939 154.822,26.646 156.218 C 26.177 158.452,26.148 158.985,26.403 160.662 C 26.597 161.936,26.655 165.516,26.579 171.459 C 26.455 181.071,26.567 180.273,24.990 182.868 C 24.141 184.266,24.180 185.659,25.127 187.817 C 26.046 189.910,26.119 191.636,25.381 193.782 C 24.739 195.647,24.737 197.102,25.374 198.589 C 25.650 199.232,26.007 200.527,26.168 201.466 C 26.571 203.810,27.065 204.664,29.226 206.747 C 32.745 210.138,34.688 210.692,38.093 209.275 C 40.099 208.440,40.604 208.263,42.460 207.748 C 46.068 206.746,49.736 201.146,49.350 197.226 C 49.225 195.956,49.300 194.987,49.635 193.566 C 50.047 191.821,50.059 191.365,49.761 188.862 C 49.580 187.338,49.506 185.970,49.598 185.822 C 49.689 185.674,49.816 180.723,49.880 174.820 C 49.948 168.570,50.118 163.344,50.287 162.310 C 50.463 161.230,50.515 159.384,50.420 157.606 C 50.242 154.274,50.553 153.199,51.877 152.570 C 52.697 152.181,53.121 152.274,57.487 153.796 C 60.013 154.677,66.738 156.521,71.447 157.624 C 75.939 158.676,78.773 159.554,80.939 160.564 C 82.223 161.163,83.637 161.582,85.167 161.816 C 86.431 162.010,88.211 162.449,89.123 162.793 C 91.518 163.694,93.543 164.179,96.582 164.578 C 98.098 164.777,99.538 165.112,99.903 165.351 C 100.486 165.733,102.030 168.514,102.030 169.183 C 102.031 169.654,104.493 177.036,104.934 177.890 C 105.351 178.695,105.974 180.360,108.412 187.183 C 109.429 190.027,109.726 191.236,109.903 193.240 C 110.086 195.324,110.278 196.067,111.048 197.681 C 112.190 200.073,114.276 206.502,114.839 209.359 C 115.069 210.529,115.526 212.199,115.854 213.072 C 116.183 213.945,116.638 215.572,116.865 216.689 C 118.801 226.177,125.139 230.098,131.719 225.878 C 135.200 223.645,135.895 222.597,137.454 217.232 C 137.957 215.502,138.644 213.156,138.981 212.019 C 139.751 209.420,139.749 208.530,138.967 206.261 C 137.727 202.661,136.783 199.066,136.424 196.574 C 136.223 195.178,135.769 193.324,135.415 192.454 C 135.018 191.479,134.768 190.360,134.761 189.536 C 134.755 188.800,134.535 187.627,134.271 186.929 C 134.007 186.231,133.432 184.518,132.992 183.122 C 132.553 181.726,131.908 179.816,131.559 178.877 C 131.210 177.938,130.811 176.339,130.672 175.324 C 130.525 174.244,130.065 172.687,129.565 171.574 C 129.095 170.527,128.583 169.099,128.427 168.401 C 128.271 167.703,127.750 165.980,127.270 164.572 C 126.789 163.163,126.396 161.790,126.396 161.519 C 126.396 161.248,125.984 160.173,125.480 159.130 C 124.977 158.087,124.406 156.793,124.213 156.254 C 124.019 155.715,123.473 154.630,122.998 153.843 C 122.524 153.055,121.894 151.520,121.598 150.432 C 121.303 149.343,120.736 147.801,120.339 147.005 C 119.942 146.209,119.360 144.702,119.047 143.655 C 118.734 142.608,118.096 141.066,117.629 140.228 C 117.161 139.391,116.252 137.107,115.608 135.152 C 114.780 132.643,113.688 130.154,111.889 126.682 C 110.488 123.977,109.122 121.124,108.852 120.342 C 108.583 119.560,107.752 117.832,107.004 116.503 C 106.257 115.174,105.046 113.001,104.313 111.675 C 103.581 110.349,102.610 108.750,102.157 108.122 C 101.703 107.494,100.935 106.123,100.450 105.076 C 99.964 104.029,98.818 102.060,97.904 100.701 C 96.866 99.158,95.998 97.506,95.594 96.307 C 95.217 95.184,93.954 92.727,92.560 90.403 C 91.246 88.213,89.915 85.907,89.601 85.279 C 89.288 84.651,88.610 83.623,88.095 82.995 C 86.780 81.391,86.182 80.468,85.792 79.442 C 84.113 75.014,79.660 67.410,75.731 62.260 C 73.971 59.954,73.625 59.356,72.615 56.878 C 71.957 55.263,71.167 53.973,66.039 46.135 C 64.740 44.149,63.322 41.779,62.889 40.869 C 62.456 39.958,61.561 38.414,60.901 37.437 C 60.240 36.459,59.167 34.689,58.516 33.503 C 57.865 32.316,56.790 30.774,56.127 30.076 C 54.384 28.241,52.212 25.245,51.291 23.406 C 50.852 22.530,50.115 21.387,49.654 20.868 C 49.193 20.349,48.354 19.296,47.789 18.528 C 45.659 15.631,43.125 14.289,40.609 14.726 M133.503 24.507 C 132.316 24.687,130.584 24.843,129.654 24.854 C 124.586 24.911,123.655 25.376,117.754 30.793 C 116.202 32.218,115.527 33.731,114.929 37.126 C 114.073 41.975,114.069 42.222,114.808 44.115 C 115.172 45.048,115.648 46.669,115.866 47.716 C 116.555 51.020,119.253 53.662,123.127 54.827 C 125.865 55.650,126.742 56.702,127.883 60.533 C 128.173 61.510,128.990 63.223,129.698 64.340 C 130.405 65.457,131.208 67.113,131.483 68.020 C 132.147 70.216,133.660 76.930,133.886 78.680 C 133.985 79.448,134.396 81.077,134.799 82.301 C 135.203 83.524,135.533 84.798,135.533 85.132 C 135.533 85.945,136.638 91.534,137.269 93.909 C 137.547 94.956,137.847 96.840,137.937 98.096 C 138.026 99.353,138.307 101.066,138.561 101.904 C 138.908 103.047,139.067 104.722,139.198 108.629 C 139.362 113.546,139.828 117.230,140.658 120.178 C 140.816 120.736,140.970 122.506,141.001 124.112 C 141.089 128.685,141.554 135.039,141.892 136.294 C 142.066 136.943,142.191 138.916,142.180 140.863 C 142.156 145.189,142.534 149.968,143.043 151.777 C 143.284 152.636,143.524 155.125,143.665 158.249 C 143.971 165.017,144.254 167.746,144.902 170.178 C 145.223 171.381,145.544 173.707,145.692 175.888 C 145.924 179.326,146.441 182.619,147.366 186.548 C 147.653 187.765,147.712 188.864,147.592 190.736 C 147.196 196.932,150.360 204.072,154.421 206.146 C 157.854 207.899,165.698 205.528,168.069 202.021 C 169.251 200.273,171.293 195.503,171.588 193.803 C 171.711 193.093,172.005 191.348,172.240 189.925 L 172.669 187.338 171.976 184.759 C 171.356 182.451,171.301 181.924,171.456 179.732 C 171.601 177.673,171.546 177.002,171.112 175.508 C 170.829 174.530,170.528 172.968,170.445 172.035 C 170.362 171.101,170.120 169.845,169.907 169.243 C 169.694 168.640,169.415 167.119,169.288 165.863 C 169.161 164.607,168.841 162.322,168.575 160.787 C 168.278 159.064,168.138 157.349,168.212 156.308 C 168.287 155.226,168.183 154.038,167.921 152.990 C 167.510 151.352,167.570 148.830,168.051 147.525 C 168.531 146.223,170.727 147.070,174.746 150.107 C 175.723 150.845,177.211 151.900,178.052 152.452 C 179.723 153.547,186.490 159.096,189.721 162.021 C 190.838 163.032,192.722 164.646,193.909 165.608 C 195.095 166.570,196.923 168.113,197.970 169.038 C 199.016 169.963,200.657 171.269,201.615 171.941 C 202.573 172.613,204.496 174.240,205.889 175.557 C 207.282 176.873,209.582 178.714,211.000 179.647 C 212.870 180.877,214.800 182.535,218.020 185.675 C 220.463 188.057,223.033 190.393,223.731 190.867 C 224.429 191.341,225.805 192.476,226.789 193.390 C 228.821 195.277,232.133 198.094,235.137 200.489 C 236.262 201.386,240.086 204.813,243.634 208.103 C 247.183 211.394,251.009 214.885,252.137 215.861 C 253.265 216.837,255.558 218.961,257.234 220.582 C 258.909 222.203,260.813 223.889,261.466 224.328 C 262.119 224.766,263.533 226.154,264.608 227.412 C 265.684 228.669,267.278 230.208,268.152 230.831 C 269.025 231.454,270.688 233.002,271.847 234.270 C 274.981 237.699,278.256 239.183,281.416 238.606 C 289.121 237.200,293.492 233.312,294.799 226.702 C 295.028 225.543,295.504 223.773,295.856 222.767 C 296.838 219.965,296.787 218.305,295.652 216.117 C 295.146 215.140,294.494 213.396,294.204 212.241 C 293.577 209.747,293.611 209.799,290.582 206.647 C 288.471 204.451,288.009 204.098,286.548 203.575 C 285.075 203.047,284.598 202.679,282.097 200.145 C 280.556 198.584,278.729 196.923,278.036 196.454 C 273.834 193.610,268.612 189.396,265.756 186.543 C 264.000 184.790,261.821 182.794,260.914 182.108 C 260.006 181.423,258.522 180.238,257.614 179.475 C 256.707 178.713,255.165 177.577,254.188 176.953 C 253.211 176.328,251.497 174.933,250.381 173.854 C 249.264 172.775,247.481 171.221,246.419 170.400 C 245.357 169.580,242.976 167.538,241.129 165.863 C 239.281 164.188,236.777 162.075,235.565 161.168 C 233.022 159.265,227.772 154.900,227.042 154.081 C 226.769 153.775,225.541 152.713,224.313 151.720 C 223.086 150.728,222.081 149.830,222.081 149.725 C 222.081 149.620,220.717 148.313,219.051 146.820 C 214.714 142.937,214.712 142.905,218.557 138.746 C 221.229 135.855,223.657 131.792,224.497 128.807 C 224.733 127.970,225.386 126.256,225.949 125.000 C 226.742 123.227,226.995 122.318,227.077 120.939 C 227.135 119.962,227.361 118.201,227.579 117.026 C 227.819 115.734,227.910 114.429,227.809 113.726 C 227.717 113.087,227.480 111.294,227.283 109.742 C 227.053 107.929,226.661 106.251,226.184 105.047 C 225.777 104.016,225.313 102.544,225.152 101.777 C 224.992 101.009,224.356 99.353,223.739 98.096 C 223.122 96.840,222.260 94.934,221.824 93.860 C 221.388 92.787,220.357 90.974,219.532 89.832 C 218.708 88.691,217.492 86.793,216.831 85.615 C 215.489 83.224,213.299 80.440,209.518 76.320 C 208.122 74.799,206.453 72.852,205.809 71.993 C 205.164 71.134,203.680 69.396,202.509 68.130 C 198.801 64.121,198.637 63.178,201.777 63.943 C 206.808 65.167,208.426 65.394,219.162 66.380 C 221.396 66.585,223.794 66.865,224.492 67.003 C 225.190 67.140,226.904 67.362,228.299 67.495 C 229.922 67.649,231.616 68.008,232.995 68.488 C 234.409 68.981,235.939 69.301,237.437 69.415 C 238.693 69.511,240.806 69.813,242.132 70.086 C 243.458 70.359,245.514 70.642,246.701 70.714 C 249.093 70.859,253.936 71.630,256.091 72.208 C 256.859 72.414,258.058 72.588,258.756 72.594 C 259.454 72.600,261.396 72.779,263.071 72.992 C 264.746 73.206,267.716 73.536,269.670 73.727 C 271.624 73.918,274.021 74.311,274.997 74.600 C 275.972 74.889,278.036 75.227,279.584 75.350 C 284.042 75.707,285.059 76.598,285.669 80.685 C 285.857 81.943,286.417 84.058,286.914 85.384 C 287.411 86.710,287.817 87.888,287.817 88.002 C 287.817 88.116,288.329 89.083,288.954 90.151 C 289.580 91.219,290.367 92.826,290.704 93.721 C 291.041 94.616,291.663 96.024,292.086 96.849 C 293.254 99.129,293.630 100.165,293.903 101.869 C 294.044 102.745,294.547 104.179,295.053 105.145 C 296.197 107.332,297.614 111.235,297.964 113.167 C 298.113 113.989,298.507 115.332,298.839 116.151 C 299.172 116.970,299.866 119.233,300.383 121.181 C 300.899 123.128,301.699 125.470,302.161 126.384 C 302.622 127.298,303.250 128.902,303.557 129.949 C 303.863 130.996,304.488 132.824,304.945 134.010 C 305.403 135.197,305.907 136.932,306.066 137.866 C 306.225 138.801,306.974 141.558,307.731 143.993 C 309.308 149.064,310.067 152.690,310.395 156.721 C 310.522 158.273,310.912 160.679,311.263 162.068 C 313.348 170.321,313.508 174.302,312.186 185.025 C 311.554 190.150,311.836 191.594,314.255 195.615 C 316.114 198.705,316.578 199.114,319.670 200.391 C 322.802 201.685,324.615 201.565,332.217 199.561 C 333.906 199.116,336.473 196.695,337.806 194.289 C 338.270 193.452,338.944 192.238,339.303 191.591 L 339.955 190.416 339.495 188.466 C 339.143 186.974,339.052 185.700,339.104 183.042 C 339.214 177.501,338.609 171.292,337.752 169.162 C 337.420 168.337,337.174 166.918,337.048 165.102 C 336.942 163.566,336.492 160.654,336.048 158.629 C 335.604 156.605,335.074 153.693,334.870 152.157 C 334.666 150.622,334.273 148.530,333.997 147.509 C 333.319 145.002,331.985 138.367,331.982 137.492 C 331.981 137.104,331.680 136.076,331.313 135.208 C 330.947 134.340,330.278 132.145,329.827 130.330 C 329.377 128.515,328.663 126.345,328.241 125.508 C 327.818 124.670,327.388 123.471,327.285 122.843 C 327.181 122.214,326.784 120.901,326.403 119.924 C 326.021 118.947,325.569 117.405,325.399 116.497 C 325.206 115.475,324.384 113.352,323.234 110.914 C 322.215 108.750,321.245 106.409,321.080 105.711 C 320.915 105.013,320.387 103.390,319.907 102.105 C 319.428 100.820,319.036 99.581,319.036 99.351 C 319.036 99.122,318.586 97.819,318.036 96.455 C 317.486 95.091,316.849 93.247,316.619 92.356 C 316.389 91.465,315.868 89.975,315.461 89.044 C 314.674 87.246,314.407 83.801,314.973 82.745 C 315.585 81.601,318.266 81.528,323.556 82.510 C 325.430 82.858,327.123 82.982,329.520 82.947 C 332.414 82.905,333.109 82.977,334.645 83.482 C 340.235 85.319,365.377 84.799,370.163 82.747 C 370.822 82.465,372.294 81.996,373.435 81.706 C 376.116 81.023,376.535 80.744,379.591 77.619 C 384.263 72.839,384.933 71.486,385.321 66.049 C 385.912 57.748,385.462 55.567,382.227 51.041 C 378.925 46.421,377.622 45.709,374.436 46.782 C 373.350 47.148,371.948 47.524,371.320 47.619 C 369.756 47.856,364.557 49.725,361.897 51.008 C 358.430 52.679,356.601 52.896,348.876 52.548 C 337.846 52.052,334.421 51.824,333.376 51.512 C 332.712 51.315,331.833 51.278,330.838 51.405 C 328.536 51.700,326.667 51.653,322.208 51.190 C 313.807 50.318,310.192 49.972,307.300 49.767 C 304.031 49.534,303.529 49.335,302.361 47.805 C 300.024 44.744,299.095 44.161,295.962 43.789 C 295.164 43.695,293.888 43.264,292.914 42.760 C 291.867 42.218,290.302 41.704,288.739 41.390 C 286.988 41.038,285.395 40.488,283.425 39.557 L 280.612 38.228 277.045 38.044 C 273.361 37.855,271.647 37.490,268.147 36.152 L 266.371 35.472 261.100 35.634 C 255.948 35.792,254.246 35.708,246.066 34.892 C 241.457 34.433,233.416 34.012,229.146 34.006 C 227.279 34.004,225.371 33.851,224.419 33.626 C 222.992 33.290,222.586 33.293,220.611 33.651 C 219.110 33.924,216.445 34.078,212.301 34.132 C 199.966 34.292,198.123 36.503,196.952 52.538 C 196.371 60.484,196.367 60.518,195.855 60.616 C 195.393 60.705,191.277 57.744,189.213 55.839 C 188.655 55.323,187.798 54.634,187.310 54.308 C 186.821 53.982,185.960 53.298,185.396 52.789 C 184.832 52.281,183.404 51.210,182.223 50.410 C 178.635 47.978,176.865 46.700,174.873 45.099 C 173.826 44.258,172.200 43.070,171.259 42.459 C 170.318 41.849,168.896 40.778,168.098 40.080 C 167.120 39.224,165.444 38.230,162.955 37.029 C 160.925 36.049,158.578 34.803,157.740 34.259 C 156.901 33.715,155.708 33.091,155.087 32.872 C 154.466 32.653,153.268 32.088,152.423 31.617 C 151.579 31.145,149.803 30.334,148.477 29.813 C 145.110 28.490,143.467 27.630,142.009 26.425 C 140.471 25.154,139.522 24.689,137.801 24.362 C 136.282 24.074,136.360 24.072,133.503 24.507 M161.162 71.952 C 161.564 72.159,162.520 72.878,163.286 73.548 C 164.052 74.219,165.780 75.391,167.127 76.152 C 168.473 76.914,170.356 78.251,171.311 79.122 C 172.265 79.993,173.962 81.428,175.082 82.310 C 178.420 84.940,189.754 96.092,191.126 98.096 C 191.794 99.074,193.677 101.187,195.308 102.792 C 199.265 106.685,201.334 110.559,200.109 111.784 C 199.243 112.650,199.161 112.646,188.322 111.155 C 187.412 111.030,185.985 110.687,185.149 110.393 C 184.313 110.099,182.544 109.653,181.218 109.402 C 175.180 108.258,172.173 107.243,167.086 104.631 C 163.636 102.860,163.055 102.303,162.845 100.566 C 162.765 99.906,162.521 97.881,162.302 96.066 C 162.083 94.251,161.511 91.107,161.032 89.079 C 160.552 87.052,160.051 84.368,159.918 83.115 C 159.766 81.689,159.419 80.221,158.990 79.188 C 158.199 77.282,157.823 73.115,158.353 72.124 C 158.709 71.458,160.049 71.376,161.162 71.952 M56.228 81.007 C 56.743 81.459,57.593 82.709,58.171 83.862 C 58.736 84.991,59.570 86.428,60.025 87.056 C 60.480 87.684,61.224 88.940,61.678 89.848 C 62.132 90.755,63.269 92.640,64.203 94.036 C 69.277 101.613,71.716 105.582,72.934 108.242 C 73.301 109.044,73.987 110.230,74.458 110.878 C 76.197 113.266,80.821 123.314,80.829 124.723 C 80.845 127.128,77.394 127.230,71.591 124.996 C 69.937 124.359,68.592 124.064,65.971 123.764 C 60.336 123.118,54.302 121.296,53.441 119.981 C 52.364 118.338,52.132 114.029,52.747 107.107 C 53.223 101.744,53.635 90.721,53.485 87.351 C 53.194 80.817,53.970 79.024,56.228 81.007 " stroke="none" fill="#000000" fill-rule="evenodd"/>
  </g>
</svg>