<?xml version="1.0" encoding="utf-8"?>
<svg id="svg" version="1.1" width="400" height="147.32895970009372" viewBox="0, 0, 400,147.32895970009372" xmlns="http://www.w3.org/2000/svg">
  <g id="svgg">
    <path id="path0" d="M36.847 5.927 C 35.929 6.325,34.600 7.570,33.793 8.786 C 32.779 10.316,30.920 13.762,30.666 14.583 C 30.553 14.950,30.126 16.072,29.719 17.078 C 28.863 19.185,28.500 20.468,28.500 21.380 C 28.500 21.734,28.317 22.749,28.093 23.636 C 27.432 26.256,26.993 28.483,26.822 30.083 C 26.733 30.908,26.408 32.558,26.099 33.750 C 25.475 36.157,25.078 39.418,25.254 40.699 C 25.383 41.637,25.154 44.119,24.570 48.095 C 24.354 49.569,24.062 52.006,23.921 53.512 C 23.781 55.018,23.555 56.962,23.419 57.833 C 22.760 62.069,22.623 63.426,22.412 67.833 C 22.288 70.446,22.146 72.921,22.098 73.333 C 22.050 73.746,21.932 75.283,21.836 76.750 C 21.424 83.055,20.951 87.003,19.907 92.833 C 19.686 94.071,19.459 95.608,19.404 96.250 C 19.348 96.892,19.157 97.942,18.978 98.583 C 18.800 99.225,18.612 100.425,18.561 101.250 C 18.511 102.075,18.294 103.350,18.080 104.083 C 17.866 104.817,17.608 106.279,17.507 107.333 C 17.405 108.388,17.141 110.000,16.918 110.917 C 14.887 119.286,14.666 122.190,15.871 124.716 C 17.665 128.478,19.828 129.205,23.390 127.244 C 26.851 125.340,28.644 122.329,29.443 117.083 C 29.582 116.167,29.796 114.817,29.918 114.083 C 30.040 113.350,30.264 112.000,30.416 111.083 C 30.569 110.167,30.908 108.704,31.170 107.833 C 31.716 106.023,32.415 102.231,32.675 99.672 C 32.773 98.713,32.956 97.438,33.082 96.839 C 33.208 96.240,33.428 94.700,33.570 93.417 C 34.225 87.516,34.946 86.917,38.664 89.175 C 41.647 90.987,43.403 91.395,55.000 92.977 C 55.688 93.070,57.000 93.294,57.917 93.474 C 58.833 93.654,60.103 93.879,60.739 93.974 C 62.513 94.240,63.239 94.956,63.734 96.928 C 63.888 97.539,64.526 99.137,65.151 100.478 C 67.567 105.655,67.998 106.657,68.721 108.766 C 69.131 109.963,69.592 111.559,69.746 112.313 C 69.899 113.066,70.204 114.207,70.422 114.849 C 70.641 115.492,70.978 116.771,71.172 117.692 C 71.376 118.662,71.897 120.253,72.411 121.475 C 72.963 122.790,73.422 124.214,73.629 125.258 C 74.902 131.671,79.518 133.384,84.083 129.137 C 86.788 126.621,87.914 120.413,86.375 116.500 C 85.996 115.537,85.380 113.775,85.006 112.583 C 84.632 111.392,84.108 109.742,83.842 108.917 C 83.576 108.092,83.308 107.079,83.246 106.667 C 83.185 106.254,82.852 105.204,82.508 104.333 C 82.164 103.462,81.792 102.281,81.682 101.707 C 81.573 101.133,81.197 99.971,80.847 99.124 C 80.497 98.276,80.078 97.171,79.916 96.667 C 79.753 96.162,79.402 95.314,79.136 94.782 C 78.870 94.250,78.473 93.125,78.253 92.282 C 78.034 91.439,77.662 90.317,77.427 89.787 C 76.902 88.602,76.872 87.437,77.333 86.123 C 77.754 84.926,77.754 84.150,77.331 82.782 C 77.146 82.184,76.924 81.128,76.836 80.434 C 76.549 78.176,75.717 77.070,72.847 75.131 C 71.019 73.897,70.689 73.413,69.348 70.000 C 68.897 68.854,68.309 67.429,68.041 66.833 C 67.773 66.237,67.417 65.337,67.250 64.833 C 67.084 64.329,66.175 62.170,65.229 60.036 C 64.284 57.901,63.285 55.426,63.010 54.536 C 62.734 53.645,61.899 51.679,61.154 50.167 C 60.408 48.654,59.552 46.779,59.250 46.000 C 58.627 44.388,56.016 39.347,54.606 37.030 C 54.086 36.176,53.441 35.051,53.174 34.530 C 52.907 34.009,52.139 32.781,51.469 31.800 C 50.799 30.819,49.672 29.169,48.965 28.133 C 48.258 27.098,47.160 25.596,46.524 24.797 C 45.317 23.279,45.136 22.955,44.013 20.286 C 43.146 18.225,43.033 17.228,43.420 15.030 C 43.857 12.541,43.441 11.183,41.202 7.794 C 40.227 6.317,38.075 5.394,36.847 5.927 M105.859 17.844 C 104.621 18.340,102.477 20.831,101.492 22.917 C 100.078 25.913,99.564 26.080,95.417 24.889 C 90.579 23.501,85.744 24.354,83.234 27.039 C 80.026 30.470,79.821 31.062,79.817 36.926 C 79.814 41.488,79.846 41.645,81.021 42.921 C 82.713 44.756,85.630 45.176,88.333 43.975 L 89.583 43.420 92.417 43.431 C 100.426 43.463,101.993 44.348,102.421 49.083 C 102.479 49.725,102.627 50.850,102.749 51.583 C 102.872 52.317,103.096 53.892,103.248 55.083 C 103.401 56.275,103.632 57.984,103.763 58.882 C 103.893 59.779,104.001 61.054,104.001 61.715 C 104.002 62.376,104.157 63.554,104.347 64.333 C 104.537 65.112,104.757 66.688,104.837 67.833 C 104.917 68.979,105.103 70.704,105.251 71.667 C 105.399 72.629,105.579 74.054,105.650 74.833 C 105.722 75.612,105.903 76.887,106.053 77.667 C 106.203 78.446,106.406 80.729,106.504 82.741 C 106.735 87.464,106.868 87.215,104.048 87.336 C 100.477 87.490,99.867 88.387,99.383 94.189 C 99.088 97.734,100.837 100.619,104.750 103.043 C 107.246 104.590,107.501 105.000,107.498 107.469 C 107.495 110.138,108.420 113.614,109.497 114.976 C 112.339 118.572,116.041 118.077,120.412 113.517 C 121.204 112.691,122.042 112.409,122.964 112.657 C 123.651 112.842,128.498 115.018,129.096 115.410 C 129.515 115.684,132.964 117.207,135.333 118.164 C 136.204 118.516,137.704 119.158,138.667 119.592 C 139.629 120.026,141.204 120.653,142.167 120.986 C 143.129 121.319,144.484 121.898,145.178 122.272 C 147.037 123.276,148.065 123.612,149.919 123.819 C 150.834 123.921,152.308 124.090,153.194 124.194 C 154.229 124.316,155.272 124.333,156.111 124.241 C 156.829 124.163,158.167 124.089,159.083 124.076 C 160.000 124.063,160.905 124.041,161.094 124.026 C 162.847 123.892,169.135 118.287,170.804 115.372 C 173.750 110.224,174.583 103.667,172.915 98.744 C 172.281 96.874,172.102 96.088,172.002 94.746 C 171.914 93.548,171.777 92.875,171.517 92.367 C 170.708 90.780,169.391 88.674,168.422 87.417 C 167.856 86.683,167.139 85.709,166.828 85.251 C 166.517 84.794,165.883 84.006,165.420 83.501 C 164.957 82.996,164.155 82.021,163.639 81.333 C 162.644 80.010,161.535 78.910,159.038 76.770 C 155.636 73.856,155.415 73.417,156.083 70.915 C 156.653 68.782,156.823 65.856,156.456 64.500 C 154.958 58.972,154.021 56.851,152.036 54.500 C 150.141 52.255,145.774 48.268,144.109 47.262 C 141.743 45.832,140.122 44.768,139.425 44.186 C 138.467 43.384,136.074 41.794,135.037 41.268 C 134.553 41.023,133.390 40.364,132.453 39.804 C 131.516 39.244,130.060 38.465,129.217 38.073 C 128.374 37.681,127.156 37.019,126.512 36.602 C 125.300 35.819,121.996 34.218,119.083 33.003 C 114.700 31.176,114.209 30.616,113.670 26.833 C 113.427 25.132,111.403 21.015,109.805 18.971 C 108.943 17.870,107.106 17.345,105.859 17.844 M304.974 33.886 C 301.234 35.300,299.341 37.521,298.578 41.388 C 298.358 42.504,298.016 44.099,297.818 44.934 C 296.616 49.985,298.417 52.496,303.583 52.977 C 304.763 53.087,305.803 53.294,306.500 53.556 C 307.225 53.829,308.544 54.083,310.487 54.323 C 312.084 54.520,313.440 54.713,313.502 54.751 C 313.563 54.789,314.582 54.972,315.765 55.157 C 316.948 55.342,318.479 55.676,319.167 55.898 C 319.854 56.120,321.242 56.426,322.250 56.578 C 323.258 56.730,324.946 56.997,326.000 57.171 C 327.054 57.345,328.286 57.528,328.737 57.578 C 330.946 57.821,331.317 58.425,332.769 64.129 C 333.369 66.487,334.153 69.542,334.512 70.917 C 334.870 72.292,335.390 74.504,335.665 75.833 C 335.941 77.162,336.325 78.962,336.518 79.833 C 337.324 83.460,337.658 85.299,337.662 86.117 C 337.665 86.594,337.831 88.056,338.032 89.367 C 338.482 92.307,338.501 99.785,338.063 101.365 C 337.928 101.852,337.752 103.188,337.672 104.333 C 337.567 105.827,337.402 106.794,337.087 107.750 C 336.701 108.920,336.629 109.503,336.497 112.500 L 336.346 115.917 336.823 117.250 C 338.119 120.877,338.571 122.010,339.154 123.083 C 339.502 123.725,339.958 124.775,340.167 125.417 C 341.617 129.866,342.560 130.744,346.279 131.111 C 347.940 131.275,350.936 130.041,352.557 128.526 C 354.870 126.362,355.396 118.040,353.500 113.602 C 352.350 110.912,352.318 110.356,353.104 106.833 C 353.499 105.064,353.518 104.808,353.344 103.500 C 353.228 102.635,353.173 100.168,353.202 97.167 C 353.252 92.091,353.044 88.531,352.581 86.500 C 352.445 85.904,352.258 84.636,352.164 83.682 C 352.071 82.728,351.884 81.467,351.748 80.880 C 351.611 80.293,351.501 79.386,351.502 78.865 C 351.504 77.925,351.271 76.654,350.626 74.083 C 350.442 73.350,350.220 72.262,350.132 71.667 C 349.965 70.528,349.477 67.662,349.071 65.428 C 348.777 63.815,348.901 62.633,349.427 62.023 C 349.956 61.410,353.380 61.395,355.750 61.994 C 356.905 62.287,357.824 62.385,359.750 62.424 C 361.125 62.451,363.150 62.557,364.250 62.660 C 365.350 62.762,366.813 62.802,367.500 62.748 C 368.258 62.689,369.866 62.771,371.583 62.955 C 376.846 63.520,380.495 62.887,383.047 60.966 C 383.709 60.468,384.643 59.814,385.123 59.514 C 387.204 58.212,387.829 57.135,388.419 53.833 L 388.702 52.250 388.108 48.713 C 387.460 44.861,387.338 44.514,386.195 43.291 C 384.564 41.548,383.138 41.398,378.749 42.507 C 373.537 43.823,361.649 43.988,356.083 42.820 C 355.258 42.647,354.251 42.504,353.845 42.503 C 353.438 42.501,352.426 42.423,351.595 42.328 C 342.265 41.267,342.478 41.322,340.610 39.523 C 338.852 37.831,338.723 37.784,335.667 37.744 C 331.149 37.684,328.343 37.320,324.083 36.241 C 322.892 35.939,321.129 35.566,320.167 35.411 C 318.267 35.105,315.105 34.498,313.250 34.083 C 311.586 33.711,305.803 33.573,304.974 33.886 M272.387 34.573 C 270.667 35.111,268.247 37.553,267.504 39.500 C 267.382 39.821,266.916 40.882,266.468 41.859 C 264.779 45.550,264.941 48.444,267.085 52.853 C 267.651 54.017,267.805 54.539,267.896 55.603 C 267.991 56.723,268.131 57.163,268.840 58.583 C 269.581 60.065,269.685 60.407,269.778 61.667 C 269.842 62.530,270.075 63.669,270.374 64.583 C 270.788 65.848,270.883 66.468,270.980 68.530 C 271.093 70.957,271.098 70.983,271.646 71.746 C 272.401 72.798,273.393 75.150,273.737 76.704 C 273.893 77.413,274.316 78.800,274.677 79.788 C 275.306 81.509,276.683 86.764,276.917 88.333 C 276.978 88.746,277.202 89.758,277.416 90.583 C 277.629 91.408,277.850 92.533,277.908 93.083 C 277.965 93.633,278.119 94.496,278.250 95.000 C 278.588 96.305,279.000 99.176,278.998 100.207 C 278.997 100.689,279.117 101.946,279.266 103.000 C 279.805 106.832,278.528 108.183,276.066 106.387 C 266.140 99.147,255.453 86.711,253.247 79.833 C 253.085 79.329,252.555 78.167,252.068 77.250 C 250.657 74.592,249.080 70.203,248.342 66.877 C 247.838 64.608,247.874 64.278,248.817 62.477 C 250.688 58.903,251.262 56.178,250.741 53.333 C 250.165 50.189,250.054 49.911,248.834 48.596 C 248.217 47.930,247.437 46.868,247.100 46.235 C 244.558 41.453,240.827 40.633,237.203 44.061 C 234.710 46.419,233.585 48.946,232.814 53.917 C 232.445 56.292,232.608 63.733,233.059 65.132 C 233.287 65.838,233.598 67.376,233.749 68.549 C 233.901 69.722,234.173 71.216,234.354 71.868 C 234.535 72.520,234.756 73.661,234.845 74.402 C 235.030 75.936,235.483 77.576,236.171 79.199 C 236.431 79.813,236.806 80.893,237.004 81.598 C 238.358 86.424,243.136 96.407,245.093 98.500 C 245.849 99.308,246.746 100.549,247.516 101.850 C 250.462 106.830,258.925 116.007,264.833 120.626 C 266.071 121.594,267.383 122.657,267.750 122.988 C 268.117 123.320,269.467 124.320,270.750 125.210 C 272.033 126.101,273.447 127.149,273.892 127.540 C 274.847 128.379,275.176 128.410,278.428 127.965 C 284.299 127.163,288.174 123.639,290.360 117.114 C 290.642 116.272,291.079 115.021,291.332 114.333 C 293.065 109.612,293.599 102.141,292.508 97.864 C 292.329 97.159,292.103 95.646,292.007 94.500 C 291.373 86.953,291.395 87.102,290.652 85.364 C 290.272 84.476,289.856 83.150,289.729 82.417 C 289.337 80.166,288.848 78.044,288.256 76.019 C 287.944 74.955,287.566 73.408,287.416 72.583 C 286.995 70.275,286.050 66.440,285.424 64.500 C 285.114 63.538,284.811 62.188,284.750 61.500 C 284.690 60.813,284.452 59.575,284.222 58.751 C 283.992 57.926,283.695 56.576,283.563 55.751 C 283.430 54.925,283.067 53.387,282.756 52.333 C 282.446 51.279,281.995 49.640,281.755 48.690 C 281.515 47.741,281.022 46.184,280.659 45.230 C 280.297 44.277,279.849 42.804,279.665 41.957 C 279.125 39.481,276.623 35.201,275.333 34.549 C 274.801 34.280,273.286 34.292,272.387 34.573 M170.250 38.971 C 168.468 39.819,166.170 42.562,165.337 44.833 C 165.220 45.154,164.778 46.167,164.357 47.083 C 163.619 48.686,163.586 48.827,163.483 50.750 C 163.397 52.386,163.298 52.932,162.943 53.750 C 162.439 54.909,162.402 55.613,162.756 57.310 C 162.918 58.086,162.974 58.883,162.909 59.477 C 162.835 60.144,162.955 61.358,163.321 63.667 C 163.605 65.454,163.881 67.217,163.934 67.583 C 163.988 67.950,164.291 69.300,164.608 70.583 C 164.925 71.867,165.253 73.651,165.336 74.548 C 165.460 75.883,165.613 76.473,166.179 77.798 C 166.559 78.688,167.054 79.924,167.278 80.545 C 168.605 84.225,172.460 91.652,174.020 93.534 C 177.400 97.614,185.065 104.686,188.833 107.203 C 189.612 107.724,190.813 108.646,191.500 109.253 C 192.779 110.383,194.436 111.567,195.917 112.411 C 196.375 112.672,197.350 113.314,198.083 113.836 C 198.817 114.359,200.129 115.295,201.000 115.917 C 201.871 116.538,203.108 117.294,203.750 117.595 C 207.503 119.359,209.250 120.077,210.616 120.418 C 211.526 120.645,212.655 121.080,213.395 121.488 C 217.402 123.700,223.992 122.457,228.320 118.672 C 230.499 116.767,230.658 116.547,231.489 114.276 C 233.206 109.583,233.646 106.247,233.094 102.083 C 232.961 101.075,232.777 99.650,232.687 98.917 C 232.596 98.183,232.360 97.220,232.163 96.777 C 231.950 96.297,231.748 95.370,231.666 94.488 C 231.546 93.214,231.433 92.836,230.859 91.795 C 230.492 91.128,229.857 89.608,229.449 88.417 C 229.040 87.225,228.026 84.875,227.195 83.194 C 226.364 81.513,225.488 79.637,225.248 79.025 C 224.964 78.300,224.366 77.354,223.531 76.306 C 222.826 75.422,222.016 74.298,221.729 73.808 C 221.443 73.318,220.768 72.167,220.230 71.250 C 219.692 70.333,218.819 69.058,218.291 68.417 C 217.763 67.775,216.798 66.537,216.147 65.667 C 214.906 64.006,206.202 55.228,204.167 53.585 C 203.571 53.104,202.446 52.136,201.667 51.434 C 199.900 49.842,197.728 48.337,195.761 47.342 C 194.930 46.922,193.157 45.961,191.820 45.209 C 190.484 44.456,188.534 43.470,187.487 43.019 C 186.440 42.568,184.925 41.893,184.120 41.521 C 182.472 40.759,180.282 40.286,177.167 40.020 C 175.619 39.887,175.012 39.754,174.013 39.326 C 172.440 38.653,171.169 38.533,170.250 38.971 M39.632 44.292 C 40.097 44.697,42.443 48.258,43.501 50.167 C 43.984 51.038,44.735 52.387,45.169 53.167 C 45.994 54.647,49.954 62.821,50.336 63.833 C 50.458 64.154,51.300 66.093,52.209 68.141 C 53.971 72.111,54.069 72.559,53.230 72.770 C 51.974 73.085,44.547 71.798,40.583 70.577 C 39.483 70.239,38.321 69.887,38.000 69.796 C 36.254 69.299,36.079 68.921,36.221 65.946 C 36.278 64.738,36.435 63.112,36.570 62.333 C 36.821 60.888,37.057 58.410,37.341 54.250 C 37.428 52.967,37.574 51.429,37.663 50.833 C 37.753 50.237,37.829 48.925,37.831 47.917 C 37.838 44.840,38.569 43.368,39.632 44.292 M120.191 52.796 C 120.865 53.142,122.317 53.941,123.417 54.572 C 131.266 59.071,131.052 58.768,128.358 61.590 C 126.593 63.438,126.388 63.776,125.209 66.750 L 124.417 68.750 124.424 71.750 C 124.434 75.811,124.429 75.794,125.972 77.382 C 127.474 78.928,127.546 78.972,128.865 79.185 C 129.422 79.274,130.337 79.562,130.897 79.823 C 131.458 80.084,132.479 80.382,133.167 80.485 C 134.886 80.744,137.052 81.806,138.752 83.226 C 139.588 83.924,140.450 84.477,141.068 84.711 C 141.834 85.000,142.482 85.474,143.985 86.839 C 145.047 87.805,146.442 88.982,147.083 89.453 C 151.449 92.663,158.077 100.663,158.291 102.984 C 158.479 105.014,155.041 105.417,150.333 103.916 C 149.646 103.696,148.668 103.444,148.160 103.354 C 147.652 103.264,146.677 102.970,145.993 102.701 C 145.309 102.431,143.996 101.978,143.075 101.694 C 141.466 101.198,138.122 99.896,134.265 98.263 C 133.265 97.840,131.465 97.184,130.265 96.807 C 128.072 96.116,122.944 93.932,122.167 93.357 C 121.369 92.766,121.160 92.155,120.979 89.886 C 120.886 88.711,120.701 87.150,120.569 86.417 C 120.107 83.845,119.845 81.726,119.664 79.083 C 119.564 77.617,119.376 75.704,119.248 74.833 C 119.119 73.962,118.968 72.237,118.911 71.000 C 118.854 69.762,118.704 68.150,118.576 67.417 C 118.449 66.683,118.270 64.808,118.180 63.250 C 118.090 61.692,117.934 60.154,117.834 59.833 C 117.564 58.969,117.174 55.912,117.170 54.636 C 117.163 52.109,117.936 51.638,120.191 52.796 M180.715 59.925 C 181.559 60.251,182.850 60.840,183.583 61.234 C 184.317 61.628,185.364 62.117,185.912 62.320 C 186.459 62.523,187.396 63.046,187.995 63.482 C 188.594 63.917,189.899 64.751,190.896 65.334 C 192.842 66.472,195.816 69.026,200.395 73.495 C 204.772 77.765,206.450 79.770,208.056 82.645 C 208.485 83.412,209.124 84.387,209.476 84.811 C 213.099 89.175,217.302 97.170,217.794 100.632 C 218.119 102.929,213.173 101.900,208.750 98.752 C 207.558 97.904,205.946 96.851,205.167 96.414 C 204.387 95.976,203.141 95.186,202.397 94.659 C 201.653 94.132,200.458 93.358,199.743 92.939 C 199.028 92.520,197.612 91.502,196.596 90.675 C 195.581 89.849,194.285 88.890,193.718 88.544 C 191.453 87.167,185.075 80.630,183.917 78.500 C 183.550 77.826,182.908 76.894,182.490 76.429 C 180.859 74.613,178.620 70.271,178.261 68.227 C 178.133 67.501,177.845 66.491,177.620 65.983 C 177.153 64.928,176.500 62.064,176.500 61.073 C 176.500 59.285,177.997 58.877,180.715 59.925 " stroke="none" fill="#0a0a0a" fill-rule="evenodd"/>
  </g>
</svg>