<svg width="200" height="30" viewBox="0 0 378 234" version="1.1" xmlns="http://www.w3.org/2000/svg" xmlns:xlink="http://www.w3.org/1999/xlink" xml:space="preserve" xmlns:serif="http://www.serif.com/" style="fill-rule:evenodd;clip-rule:evenodd;stroke-linejoin:round;stroke-miterlimit:2;">
    <g id="Artboard1" transform="matrix(1,0,0,1,-17.7718,-9.98128)">
        <rect x="17.772" y="9.981" width="377.184" height="233.787" style="fill:none;"/>
        <g id="svgg" transform="matrix(1,0,0,1,0.771811,0.981278)">
            <path id="path0" d="M40.609,14.726C39.488,14.921 38.888,15.243 36.644,16.851C35.65,17.564 34.308,18.458 33.662,18.839C32.168,19.719 31.558,20.732 31.346,22.685C31.253,23.539 30.966,25.095 30.708,26.142C29.02,32.995 29.306,40.883 31.414,45.558L32.33,47.589L32.263,53.36C32.198,58.865 32.159,59.269 31.419,62.116C30.339,66.27 30.303,67.018 31.078,69.27C31.833,71.466 31.886,72.822 31.31,75.196C30.925,76.783 30.925,77.063 31.304,78.876C31.783,81.161 31.871,87.952 31.447,89.811C31.299,90.459 31.134,94.074 31.08,97.843C31.026,101.612 30.864,105.311 30.72,106.063C30.575,106.814 30.453,109.213 30.448,111.393C30.442,113.953 30.309,115.894 30.071,116.878C29.822,117.912 29.701,119.869 29.697,122.97C29.69,128.9 29.424,131.101 28.409,133.629C27.598,135.649 27.595,135.671 27.883,137.846C28.227,140.44 28.235,143.543 27.903,145.305C27.772,146.003 27.555,148.173 27.421,150.127C27.288,152.081 26.939,154.822 26.646,156.218C26.177,158.452 26.148,158.985 26.403,160.662C26.597,161.936 26.655,165.516 26.579,171.459C26.455,181.071 26.567,180.273 24.99,182.868C24.141,184.266 24.18,185.659 25.127,187.817C26.046,189.91 26.119,191.636 25.381,193.782C24.739,195.647 24.737,197.102 25.374,198.589C25.65,199.232 26.007,200.527 26.168,201.466C26.571,203.81 27.065,204.664 29.226,206.747C32.745,210.138 34.688,210.692 38.093,209.275C40.099,208.44 40.604,208.263 42.46,207.748C46.068,206.746 49.736,201.146 49.35,197.226C49.225,195.956 49.3,194.987 49.635,193.566C50.047,191.821 50.059,191.365 49.761,188.862C49.58,187.338 49.506,185.97 49.598,185.822C49.689,185.674 49.816,180.723 49.88,174.82C49.948,168.57 50.118,163.344 50.287,162.31C50.463,161.23 50.515,159.384 50.42,157.606C50.242,154.274 50.553,153.199 51.877,152.57C52.697,152.181 53.121,152.274 57.487,153.796C60.013,154.677 66.738,156.521 71.447,157.624C75.939,158.676 78.773,159.554 80.939,160.564C82.223,161.163 83.637,161.582 85.167,161.816C86.431,162.01 88.211,162.449 89.123,162.793C91.518,163.694 93.543,164.179 96.582,164.578C98.098,164.777 99.538,165.112 99.903,165.351C100.486,165.733 102.03,168.514 102.03,169.183C102.031,169.654 104.493,177.036 104.934,177.89C105.351,178.695 105.974,180.36 108.412,187.183C109.429,190.027 109.726,191.236 109.903,193.24C110.086,195.324 110.278,196.067 111.048,197.681C112.19,200.073 114.276,206.502 114.839,209.359C115.069,210.529 115.526,212.199 115.854,213.072C116.183,213.945 116.638,215.572 116.865,216.689C118.801,226.177 125.139,230.098 131.719,225.878C135.2,223.645 135.895,222.597 137.454,217.232C137.957,215.502 138.644,213.156 138.981,212.019C139.751,209.42 139.749,208.53 138.967,206.261C137.727,202.661 136.783,199.066 136.424,196.574C136.223,195.178 135.769,193.324 135.415,192.454C135.018,191.479 134.768,190.36 134.761,189.536C134.755,188.8 134.535,187.627 134.271,186.929C134.007,186.231 133.432,184.518 132.992,183.122C132.553,181.726 131.908,179.816 131.559,178.877C131.21,177.938 130.811,176.339 130.672,175.324C130.525,174.244 130.065,172.687 129.565,171.574C129.095,170.527 128.583,169.099 128.427,168.401C128.271,167.703 127.75,165.98 127.27,164.572C126.789,163.163 126.396,161.79 126.396,161.519C126.396,161.248 125.984,160.173 125.48,159.13C124.977,158.087 124.406,156.793 124.213,156.254C124.019,155.715 123.473,154.63 122.998,153.843C122.524,153.055 121.894,151.52 121.598,150.432C121.303,149.343 120.736,147.801 120.339,147.005C119.942,146.209 119.36,144.702 119.047,143.655C118.734,142.608 118.096,141.066 117.629,140.228C117.161,139.391 116.252,137.107 115.608,135.152C114.78,132.643 113.688,130.154 111.889,126.682C110.488,123.977 109.122,121.124 108.852,120.342C108.583,119.56 107.752,117.832 107.004,116.503C106.257,115.174 105.046,113.001 104.313,111.675C103.581,110.349 102.61,108.75 102.157,108.122C101.703,107.494 100.935,106.123 100.45,105.076C99.964,104.029 98.818,102.06 97.904,100.701C96.866,99.158 95.998,97.506 95.594,96.307C95.217,95.184 93.954,92.727 92.56,90.403C91.246,88.213 89.915,85.907 89.601,85.279C89.288,84.651 88.61,83.623 88.095,82.995C86.78,81.391 86.182,80.468 85.792,79.442C84.113,75.014 79.66,67.41 75.731,62.26C73.971,59.954 73.625,59.356 72.615,56.878C71.957,55.263 71.167,53.973 66.039,46.135C64.74,44.149 63.322,41.779 62.889,40.869C62.456,39.958 61.561,38.414 60.901,37.437C60.24,36.459 59.167,34.689 58.516,33.503C57.865,32.316 56.79,30.774 56.127,30.076C54.384,28.241 52.212,25.245 51.291,23.406C50.852,22.53 50.115,21.387 49.654,20.868C49.193,20.349 48.354,19.296 47.789,18.528C45.659,15.631 43.125,14.289 40.609,14.726M133.503,24.507C132.316,24.687 130.584,24.843 129.654,24.854C124.586,24.911 123.655,25.376 117.754,30.793C116.202,32.218 115.527,33.731 114.929,37.126C114.073,41.975 114.069,42.222 114.808,44.115C115.172,45.048 115.648,46.669 115.866,47.716C116.555,51.02 119.253,53.662 123.127,54.827C125.865,55.65 126.742,56.702 127.883,60.533C128.173,61.51 128.99,63.223 129.698,64.34C130.405,65.457 131.208,67.113 131.483,68.02C132.147,70.216 133.66,76.93 133.886,78.68C133.985,79.448 134.396,81.077 134.799,82.301C135.203,83.524 135.533,84.798 135.533,85.132C135.533,85.945 136.638,91.534 137.269,93.909C137.547,94.956 137.847,96.84 137.937,98.096C138.026,99.353 138.307,101.066 138.561,101.904C138.908,103.047 139.067,104.722 139.198,108.629C139.362,113.546 139.828,117.23 140.658,120.178C140.816,120.736 140.97,122.506 141.001,124.112C141.089,128.685 141.554,135.039 141.892,136.294C142.066,136.943 142.191,138.916 142.18,140.863C142.156,145.189 142.534,149.968 143.043,151.777C143.284,152.636 143.524,155.125 143.665,158.249C143.971,165.017 144.254,167.746 144.902,170.178C145.223,171.381 145.544,173.707 145.692,175.888C145.924,179.326 146.441,182.619 147.366,186.548C147.653,187.765 147.712,188.864 147.592,190.736C147.196,196.932 150.36,204.072 154.421,206.146C157.854,207.899 165.698,205.528 168.069,202.021C169.251,200.273 171.293,195.503 171.588,193.803C171.711,193.093 172.005,191.348 172.24,189.925L172.669,187.338L171.976,184.759C171.356,182.451 171.301,181.924 171.456,179.732C171.601,177.673 171.546,177.002 171.112,175.508C170.829,174.53 170.528,172.968 170.445,172.035C170.362,171.101 170.12,169.845 169.907,169.243C169.694,168.64 169.415,167.119 169.288,165.863C169.161,164.607 168.841,162.322 168.575,160.787C168.278,159.064 168.138,157.349 168.212,156.308C168.287,155.226 168.183,154.038 167.921,152.99C167.51,151.352 167.57,148.83 168.051,147.525C168.531,146.223 170.727,147.07 174.746,150.107C175.723,150.845 177.211,151.9 178.052,152.452C179.723,153.547 186.49,159.096 189.721,162.021C190.838,163.032 192.722,164.646 193.909,165.608C195.095,166.57 196.923,168.113 197.97,169.038C199.016,169.963 200.657,171.269 201.615,171.941C202.573,172.613 204.496,174.24 205.889,175.557C207.282,176.873 209.582,178.714 211,179.647C212.87,180.877 214.8,182.535 218.02,185.675C220.463,188.057 223.033,190.393 223.731,190.867C224.429,191.341 225.805,192.476 226.789,193.39C228.821,195.277 232.133,198.094 235.137,200.489C236.262,201.386 240.086,204.813 243.634,208.103C247.183,211.394 251.009,214.885 252.137,215.861C253.265,216.837 255.558,218.961 257.234,220.582C258.909,222.203 260.813,223.889 261.466,224.328C262.119,224.766 263.533,226.154 264.608,227.412C265.684,228.669 267.278,230.208 268.152,230.831C269.025,231.454 270.688,233.002 271.847,234.27C274.981,237.699 278.256,239.183 281.416,238.606C289.121,237.2 293.492,233.312 294.799,226.702C295.028,225.543 295.504,223.773 295.856,222.767C296.838,219.965 296.787,218.305 295.652,216.117C295.146,215.14 294.494,213.396 294.204,212.241C293.577,209.747 293.611,209.799 290.582,206.647C288.471,204.451 288.009,204.098 286.548,203.575C285.075,203.047 284.598,202.679 282.097,200.145C280.556,198.584 278.729,196.923 278.036,196.454C273.834,193.61 268.612,189.396 265.756,186.543C264,184.79 261.821,182.794 260.914,182.108C260.006,181.423 258.522,180.238 257.614,179.475C256.707,178.713 255.165,177.577 254.188,176.953C253.211,176.328 251.497,174.933 250.381,173.854C249.264,172.775 247.481,171.221 246.419,170.4C245.357,169.58 242.976,167.538 241.129,165.863C239.281,164.188 236.777,162.075 235.565,161.168C233.022,159.265 227.772,154.9 227.042,154.081C226.769,153.775 225.541,152.713 224.313,151.72C223.086,150.728 222.081,149.83 222.081,149.725C222.081,149.62 220.717,148.313 219.051,146.82C214.714,142.937 214.712,142.905 218.557,138.746C221.229,135.855 223.657,131.792 224.497,128.807C224.733,127.97 225.386,126.256 225.949,125C226.742,123.227 226.995,122.318 227.077,120.939C227.135,119.962 227.361,118.201 227.579,117.026C227.819,115.734 227.91,114.429 227.809,113.726C227.717,113.087 227.48,111.294 227.283,109.742C227.053,107.929 226.661,106.251 226.184,105.047C225.777,104.016 225.313,102.544 225.152,101.777C224.992,101.009 224.356,99.353 223.739,98.096C223.122,96.84 222.26,94.934 221.824,93.86C221.388,92.787 220.357,90.974 219.532,89.832C218.708,88.691 217.492,86.793 216.831,85.615C215.489,83.224 213.299,80.44 209.518,76.32C208.122,74.799 206.453,72.852 205.809,71.993C205.164,71.134 203.68,69.396 202.509,68.13C198.801,64.121 198.637,63.178 201.777,63.943C206.808,65.167 208.426,65.394 219.162,66.38C221.396,66.585 223.794,66.865 224.492,67.003C225.19,67.14 226.904,67.362 228.299,67.495C229.922,67.649 231.616,68.008 232.995,68.488C234.409,68.981 235.939,69.301 237.437,69.415C238.693,69.511 240.806,69.813 242.132,70.086C243.458,70.359 245.514,70.642 246.701,70.714C249.093,70.859 253.936,71.63 256.091,72.208C256.859,72.414 258.058,72.588 258.756,72.594C259.454,72.6 261.396,72.779 263.071,72.992C264.746,73.206 267.716,73.536 269.67,73.727C271.624,73.918 274.021,74.311 274.997,74.6C275.972,74.889 278.036,75.227 279.584,75.35C284.042,75.707 285.059,76.598 285.669,80.685C285.857,81.943 286.417,84.058 286.914,85.384C287.411,86.71 287.817,87.888 287.817,88.002C287.817,88.116 288.329,89.083 288.954,90.151C289.58,91.219 290.367,92.826 290.704,93.721C291.041,94.616 291.663,96.024 292.086,96.849C293.254,99.129 293.63,100.165 293.903,101.869C294.044,102.745 294.547,104.179 295.053,105.145C296.197,107.332 297.614,111.235 297.964,113.167C298.113,113.989 298.507,115.332 298.839,116.151C299.172,116.97 299.866,119.233 300.383,121.181C300.899,123.128 301.699,125.47 302.161,126.384C302.622,127.298 303.25,128.902 303.557,129.949C303.863,130.996 304.488,132.824 304.945,134.01C305.403,135.197 305.907,136.932 306.066,137.866C306.225,138.801 306.974,141.558 307.731,143.993C309.308,149.064 310.067,152.69 310.395,156.721C310.522,158.273 310.912,160.679 311.263,162.068C313.348,170.321 313.508,174.302 312.186,185.025C311.554,190.15 311.836,191.594 314.255,195.615C316.114,198.705 316.578,199.114 319.67,200.391C322.802,201.685 324.615,201.565 332.217,199.561C333.906,199.116 336.473,196.695 337.806,194.289C338.27,193.452 338.944,192.238 339.303,191.591L339.955,190.416L339.495,188.466C339.143,186.974 339.052,185.7 339.104,183.042C339.214,177.501 338.609,171.292 337.752,169.162C337.42,168.337 337.174,166.918 337.048,165.102C336.942,163.566 336.492,160.654 336.048,158.629C335.604,156.605 335.074,153.693 334.87,152.157C334.666,150.622 334.273,148.53 333.997,147.509C333.319,145.002 331.985,138.367 331.982,137.492C331.981,137.104 331.68,136.076 331.313,135.208C330.947,134.34 330.278,132.145 329.827,130.33C329.377,128.515 328.663,126.345 328.241,125.508C327.818,124.67 327.388,123.471 327.285,122.843C327.181,122.214 326.784,120.901 326.403,119.924C326.021,118.947 325.569,117.405 325.399,116.497C325.206,115.475 324.384,113.352 323.234,110.914C322.215,108.75 321.245,106.409 321.08,105.711C320.915,105.013 320.387,103.39 319.907,102.105C319.428,100.82 319.036,99.581 319.036,99.351C319.036,99.122 318.586,97.819 318.036,96.455C317.486,95.091 316.849,93.247 316.619,92.356C316.389,91.465 315.868,89.975 315.461,89.044C314.674,87.246 314.407,83.801 314.973,82.745C315.585,81.601 318.266,81.528 323.556,82.51C325.43,82.858 327.123,82.982 329.52,82.947C332.414,82.905 333.109,82.977 334.645,83.482C340.235,85.319 365.377,84.799 370.163,82.747C370.822,82.465 372.294,81.996 373.435,81.706C376.116,81.023 376.535,80.744 379.591,77.619C384.263,72.839 384.933,71.486 385.321,66.049C385.912,57.748 385.462,55.567 382.227,51.041C378.925,46.421 377.622,45.709 374.436,46.782C373.35,47.148 371.948,47.524 371.32,47.619C369.756,47.856 364.557,49.725 361.897,51.008C358.43,52.679 356.601,52.896 348.876,52.548C337.846,52.052 334.421,51.824 333.376,51.512C332.712,51.315 331.833,51.278 330.838,51.405C328.536,51.7 326.667,51.653 322.208,51.19C313.807,50.318 310.192,49.972 307.3,49.767C304.031,49.534 303.529,49.335 302.361,47.805C300.024,44.744 299.095,44.161 295.962,43.789C295.164,43.695 293.888,43.264 292.914,42.76C291.867,42.218 290.302,41.704 288.739,41.39C286.988,41.038 285.395,40.488 283.425,39.557L280.612,38.228L277.045,38.044C273.361,37.855 271.647,37.49 268.147,36.152L266.371,35.472L261.1,35.634C255.948,35.792 254.246,35.708 246.066,34.892C241.457,34.433 233.416,34.012 229.146,34.006C227.279,34.004 225.371,33.851 224.419,33.626C222.992,33.29 222.586,33.293 220.611,33.651C219.11,33.924 216.445,34.078 212.301,34.132C199.966,34.292 198.123,36.503 196.952,52.538C196.371,60.484 196.367,60.518 195.855,60.616C195.393,60.705 191.277,57.744 189.213,55.839C188.655,55.323 187.798,54.634 187.31,54.308C186.821,53.982 185.96,53.298 185.396,52.789C184.832,52.281 183.404,51.21 182.223,50.41C178.635,47.978 176.865,46.7 174.873,45.099C173.826,44.258 172.2,43.07 171.259,42.459C170.318,41.849 168.896,40.778 168.098,40.08C167.12,39.224 165.444,38.23 162.955,37.029C160.925,36.049 158.578,34.803 157.74,34.259C156.901,33.715 155.708,33.091 155.087,32.872C154.466,32.653 153.268,32.088 152.423,31.617C151.579,31.145 149.803,30.334 148.477,29.813C145.11,28.49 143.467,27.63 142.009,26.425C140.471,25.154 139.522,24.689 137.801,24.362C136.282,24.074 136.36,24.072 133.503,24.507M161.162,71.952C161.564,72.159 162.52,72.878 163.286,73.548C164.052,74.219 165.78,75.391 167.127,76.152C168.473,76.914 170.356,78.251 171.311,79.122C172.265,79.993 173.962,81.428 175.082,82.31C178.42,84.94 189.754,96.092 191.126,98.096C191.794,99.074 193.677,101.187 195.308,102.792C199.265,106.685 201.334,110.559 200.109,111.784C199.243,112.65 199.161,112.646 188.322,111.155C187.412,111.03 185.985,110.687 185.149,110.393C184.313,110.099 182.544,109.653 181.218,109.402C175.18,108.258 172.173,107.243 167.086,104.631C163.636,102.86 163.055,102.303 162.845,100.566C162.765,99.906 162.521,97.881 162.302,96.066C162.083,94.251 161.511,91.107 161.032,89.079C160.552,87.052 160.051,84.368 159.918,83.115C159.766,81.689 159.419,80.221 158.99,79.188C158.199,77.282 157.823,73.115 158.353,72.124C158.709,71.458 160.049,71.376 161.162,71.952M56.228,81.007C56.743,81.459 57.593,82.709 58.171,83.862C58.736,84.991 59.57,86.428 60.025,87.056C60.48,87.684 61.224,88.94 61.678,89.848C62.132,90.755 63.269,92.64 64.203,94.036C69.277,101.613 71.716,105.582 72.934,108.242C73.301,109.044 73.987,110.23 74.458,110.878C76.197,113.266 80.821,123.314 80.829,124.723C80.845,127.128 77.394,127.23 71.591,124.996C69.937,124.359 68.592,124.064 65.971,123.764C60.336,123.118 54.302,121.296 53.441,119.981C52.364,118.338 52.132,114.029 52.747,107.107C53.223,101.744 53.635,90.721 53.485,87.351C53.194,80.817 53.97,79.024 56.228,81.007"/>
        </g>
    </g>
</svg>
