<svg id="svg" version="1.1" width="200" height="30" viewBox="0, 0, 400,147.79116465863456" xmlns="http://www.w3.org/2000/svg">
  <g id="svgg">
    <path id="path0" d="M88.500 18.514 C 87.584 19.056,87.068 19.759,85.914 22.032 C 84.126 25.555,84.907 25.503,73.833 22.836 C 72.688 22.560,70.813 22.256,69.667 22.161 C 68.521 22.065,67.471 21.954,67.333 21.914 C 67.196 21.874,65.621 21.643,63.833 21.401 C 62.046 21.159,60.171 20.898,59.667 20.821 C 54.213 19.992,48.230 20.529,44.730 22.160 C 41.640 23.601,38.099 27.403,37.583 29.833 C 37.515 30.154,37.249 30.947,36.993 31.596 C 36.575 32.653,36.506 33.118,36.330 36.074 C 36.101 39.910,36.109 39.975,36.982 41.326 C 37.347 41.891,37.811 42.849,38.013 43.455 C 38.442 44.744,39.332 45.720,40.699 46.402 C 42.886 47.491,44.481 46.481,46.345 42.823 C 47.860 39.853,48.107 39.719,52.750 39.348 C 57.852 38.940,61.036 39.231,64.646 40.435 C 65.322 40.660,66.972 41.064,68.312 41.331 C 69.653 41.598,71.614 42.108,72.670 42.465 C 73.726 42.821,75.104 43.165,75.731 43.230 C 77.801 43.442,84.503 45.391,85.573 46.092 C 86.488 46.691,88.000 50.832,88.000 52.736 C 88.000 53.051,88.142 54.046,88.316 54.946 C 88.777 57.332,88.926 61.343,88.595 62.417 C 88.247 63.542,88.268 64.424,88.671 65.595 C 88.969 66.462,88.995 66.820,88.897 68.677 C 88.808 70.363,88.845 71.071,89.084 72.264 C 89.730 75.489,88.878 104.130,88.091 105.651 C 87.543 106.711,83.157 107.023,80.034 106.223 C 79.511 106.089,77.658 105.915,75.917 105.835 C 74.073 105.752,71.984 105.549,70.917 105.352 C 69.908 105.165,67.921 104.894,66.500 104.749 C 63.403 104.433,62.045 104.167,60.071 103.485 C 58.942 103.096,58.105 102.937,56.601 102.825 C 53.485 102.594,50.362 101.907,47.195 100.756 C 46.523 100.512,44.911 100.059,43.612 99.750 C 41.279 99.194,37.201 97.882,35.583 97.165 C 35.125 96.962,33.813 96.474,32.667 96.080 C 28.804 94.753,27.255 94.146,26.081 93.498 C 25.437 93.143,24.091 92.509,23.089 92.090 C 20.504 91.006,19.990 90.668,17.793 88.596 C 14.310 85.310,13.004 85.053,11.267 87.311 C 10.249 88.635,10.065 89.109,9.837 91.004 C 9.100 97.134,9.343 99.002,11.141 101.027 C 11.673 101.627,12.277 102.353,12.482 102.641 C 12.687 102.929,13.383 103.478,14.028 103.862 C 14.674 104.245,16.001 105.151,16.976 105.874 C 19.168 107.499,20.220 108.094,22.667 109.092 C 23.721 109.522,25.108 110.139,25.750 110.463 C 26.392 110.788,28.348 111.520,30.096 112.091 C 31.980 112.705,34.291 113.610,35.765 114.312 C 37.572 115.171,38.682 115.587,39.816 115.830 C 40.675 116.013,42.287 116.530,43.397 116.977 C 44.508 117.425,46.089 117.996,46.911 118.245 C 47.734 118.495,48.989 118.993,49.702 119.351 C 50.743 119.875,51.284 120.033,52.457 120.159 C 53.291 120.249,54.543 120.537,55.378 120.832 C 56.789 121.330,56.885 121.342,58.150 121.169 C 59.587 120.972,60.509 121.101,61.820 121.680 C 62.228 121.861,63.227 122.116,64.040 122.248 C 65.721 122.520,67.126 122.917,69.735 123.859 C 71.157 124.372,71.956 124.552,73.401 124.684 C 74.418 124.777,76.262 125.039,77.500 125.266 C 80.961 125.901,83.641 126.164,87.353 126.234 C 89.221 126.269,91.162 126.391,91.667 126.506 C 92.813 126.766,97.457 126.604,98.917 126.252 C 99.467 126.120,100.304 126.009,100.778 126.006 C 101.752 125.999,105.366 125.323,107.000 124.842 C 107.596 124.667,108.539 124.442,109.097 124.343 C 109.655 124.243,111.117 123.823,112.347 123.409 C 113.577 122.995,115.746 122.352,117.167 121.981 C 124.166 120.149,128.241 118.026,131.833 114.338 C 132.429 113.726,133.340 112.956,133.857 112.627 C 134.477 112.231,135.220 111.499,136.042 110.472 C 136.727 109.617,137.483 108.737,137.721 108.518 C 138.187 108.091,138.787 106.759,139.937 103.606 C 141.691 98.794,143.043 98.782,144.006 103.571 C 144.186 104.466,144.386 105.285,144.450 105.391 C 145.676 107.408,147.752 109.813,149.664 111.429 C 151.818 113.250,151.872 113.279,153.583 113.556 C 155.046 113.792,156.852 114.415,158.505 115.253 C 158.955 115.481,159.945 115.817,160.704 116.000 C 163.707 116.725,165.204 117.177,166.449 117.735 C 168.295 118.563,170.609 119.395,172.922 120.063 C 174.019 120.380,175.551 120.912,176.326 121.245 C 178.283 122.085,181.916 123.286,182.917 123.422 C 183.375 123.485,184.495 123.833,185.405 124.196 C 191.066 126.451,198.518 124.385,199.727 120.226 C 199.883 119.689,200.277 118.438,200.603 117.447 C 201.528 114.629,201.798 110.720,201.159 109.400 C 200.114 107.243,196.947 105.328,193.750 104.920 C 193.292 104.861,192.392 104.674,191.750 104.503 C 191.108 104.332,189.754 104.115,188.741 104.020 C 187.708 103.924,186.317 103.666,185.574 103.432 C 184.846 103.203,183.549 102.860,182.693 102.671 C 181.837 102.481,180.555 102.102,179.844 101.828 C 179.134 101.554,177.959 101.150,177.235 100.931 C 175.554 100.422,169.038 98.111,167.833 97.596 C 167.329 97.380,166.504 97.115,166.000 97.006 C 163.362 96.436,159.818 94.995,158.647 94.016 C 157.361 92.941,157.159 91.358,157.991 88.879 C 158.260 88.075,158.569 86.967,158.676 86.417 C 158.806 85.743,159.388 84.410,160.457 82.333 C 161.330 80.637,162.327 78.425,162.672 77.417 C 163.017 76.408,163.603 74.833,163.974 73.917 C 164.344 73.000,164.869 71.575,165.140 70.750 C 165.801 68.737,166.886 65.733,167.577 64.000 C 167.888 63.221,168.303 61.946,168.499 61.167 C 169.346 57.796,171.830 53.040,174.141 50.361 C 175.680 48.577,175.709 48.515,176.250 45.750 C 177.190 40.950,176.185 36.144,173.632 33.236 C 170.844 30.061,166.160 31.946,163.005 37.514 C 162.412 38.560,161.538 39.942,161.064 40.583 C 159.702 42.428,158.187 45.795,157.091 49.417 C 156.841 50.242,156.336 51.554,155.968 52.333 C 155.015 54.350,154.214 56.799,153.986 58.385 C 153.728 60.187,153.353 61.147,151.241 65.423 C 150.027 67.881,149.347 69.477,149.091 70.468 C 148.886 71.265,148.448 72.629,148.119 73.500 C 144.874 82.073,144.853 82.139,143.901 86.583 C 143.423 88.811,142.950 90.066,142.628 89.961 C 142.138 89.801,140.683 86.756,140.491 85.487 C 140.219 83.696,139.035 81.339,137.315 79.163 C 136.948 78.700,136.396 77.892,136.088 77.368 C 135.779 76.845,135.251 76.154,134.914 75.833 C 134.576 75.512,134.037 74.837,133.716 74.333 C 133.395 73.829,132.334 72.629,131.358 71.665 C 125.805 66.186,125.370 65.540,125.652 63.197 C 126.095 59.523,125.690 54.474,124.741 51.833 C 123.005 47.002,116.854 39.541,112.732 37.266 C 111.917 36.816,110.462 35.979,109.500 35.406 C 108.537 34.833,105.744 33.380,103.292 32.177 C 98.229 29.693,98.661 30.081,97.405 26.887 C 96.492 24.567,96.349 24.262,95.121 22.020 C 93.446 18.961,90.435 17.367,88.500 18.514 M221.083 40.405 C 220.717 40.524,219.779 40.907,219.000 41.257 C 217.355 41.995,216.225 42.141,214.444 41.842 C 211.944 41.424,209.665 43.223,207.974 46.948 C 207.686 47.583,207.135 48.359,206.544 48.962 C 206.016 49.501,204.833 50.793,203.917 51.832 C 203.000 52.871,201.795 54.215,201.239 54.819 C 199.740 56.446,199.538 56.762,199.331 57.802 C 199.024 59.343,197.983 62.181,197.364 63.163 C 194.773 67.275,194.576 77.286,196.978 82.789 C 197.248 83.409,197.558 84.250,197.667 84.658 C 197.958 85.753,200.015 89.766,200.875 90.917 C 201.286 91.467,201.755 92.179,201.917 92.500 C 202.747 94.144,204.839 96.867,206.654 98.667 C 207.718 99.721,209.184 101.251,209.912 102.067 C 211.097 103.394,213.119 105.262,215.368 107.106 C 215.800 107.460,216.925 108.432,217.868 109.265 C 218.812 110.098,220.221 111.245,221.000 111.813 C 221.779 112.381,222.782 113.134,223.228 113.487 C 223.674 113.840,224.687 114.491,225.478 114.933 C 226.345 115.417,227.429 116.223,228.207 116.961 C 229.150 117.854,229.838 118.339,230.758 118.759 C 231.451 119.075,232.445 119.622,232.967 119.975 C 233.986 120.663,237.846 122.861,241.500 124.834 C 242.737 125.502,244.012 126.196,244.333 126.377 C 245.786 127.195,248.358 128.211,249.500 128.416 C 250.255 128.552,251.200 128.878,251.887 129.237 C 252.663 129.644,253.245 129.833,253.720 129.833 C 254.103 129.834,255.092 130.017,255.917 130.240 C 258.924 131.056,263.661 131.218,265.917 130.581 C 268.977 129.718,273.954 125.937,275.912 122.988 C 278.336 119.335,279.031 117.515,279.408 113.833 C 279.469 113.237,279.637 112.150,279.781 111.417 C 280.405 108.242,280.075 105.568,277.942 96.500 C 277.245 93.538,274.804 87.858,272.713 84.333 C 270.494 80.591,269.790 79.504,268.718 78.167 C 268.094 77.387,267.214 76.262,266.764 75.667 C 264.828 73.105,257.135 65.091,255.032 63.446 C 254.327 62.894,252.774 61.499,251.581 60.346 C 250.388 59.193,249.000 57.975,248.497 57.640 C 247.995 57.304,246.871 56.460,246.000 55.764 C 243.411 53.694,243.090 53.479,240.363 51.991 C 235.588 49.385,232.424 47.611,231.750 47.160 C 231.383 46.915,230.709 46.550,230.252 46.349 C 229.115 45.849,228.752 45.466,227.950 43.917 C 226.399 40.919,223.722 39.550,221.083 40.405 M308.583 41.908 C 301.367 43.938,297.381 48.037,294.312 56.583 C 294.048 57.317,293.570 58.442,293.249 59.083 C 292.784 60.012,292.634 60.560,292.512 61.767 C 292.428 62.601,292.204 63.876,292.015 64.600 C 290.827 69.157,290.630 70.248,290.481 73.083 C 290.127 79.815,290.022 81.116,289.766 81.901 C 289.447 82.883,289.435 83.450,289.702 85.007 C 289.875 86.017,289.863 86.385,289.619 87.573 C 289.269 89.275,289.259 91.597,289.590 94.250 C 289.728 95.350,289.904 97.075,289.981 98.083 C 290.088 99.465,290.232 100.175,290.566 100.963 C 290.809 101.539,291.256 102.703,291.559 103.550 C 292.718 106.792,295.209 110.198,298.193 112.619 C 300.705 114.657,300.861 114.758,302.083 115.154 C 302.633 115.332,304.208 116.014,305.583 116.671 C 307.249 117.465,308.696 118.022,309.917 118.339 C 310.925 118.600,312.087 118.935,312.500 119.084 C 312.912 119.232,314.092 119.533,315.120 119.752 C 316.149 119.971,317.499 120.308,318.120 120.500 C 318.967 120.762,320.022 120.889,322.333 121.007 C 324.029 121.094,325.792 121.236,326.250 121.323 C 326.708 121.409,327.683 121.486,328.417 121.494 C 329.150 121.501,331.025 121.623,332.583 121.763 C 334.142 121.904,336.242 122.082,337.250 122.158 C 338.258 122.235,339.571 122.431,340.167 122.595 C 341.969 123.089,352.628 122.962,354.739 122.421 C 355.570 122.208,356.587 121.983,357.000 121.922 C 358.157 121.750,358.700 121.544,360.097 120.747 C 360.807 120.343,362.032 119.780,362.819 119.496 C 365.256 118.618,365.792 118.060,367.219 114.914 L 368.124 112.917 368.081 110.000 C 368.044 107.575,367.978 106.901,367.687 106.000 C 366.888 103.523,367.709 102.906,370.914 103.577 C 373.593 104.137,377.801 103.002,379.912 101.149 C 382.748 98.658,384.351 91.929,383.043 88.000 C 382.349 85.914,379.482 82.698,377.908 82.240 C 376.711 81.892,372.175 81.999,370.250 82.420 C 369.486 82.587,367.461 82.727,364.381 82.824 C 361.795 82.906,359.615 83.012,359.535 83.061 C 359.302 83.206,355.875 83.182,351.583 83.008 C 345.759 82.771,343.084 82.334,338.888 80.936 C 337.070 80.330,335.003 79.674,334.294 79.477 C 333.280 79.196,332.558 78.823,330.916 77.733 C 328.093 75.860,326.721 75.686,324.167 76.874 C 322.695 77.559,322.171 78.070,321.588 79.390 C 321.351 79.926,320.901 80.765,320.587 81.255 C 318.089 85.161,317.727 89.023,319.527 92.583 C 321.060 95.617,321.501 96.025,324.491 97.179 C 331.249 99.788,333.274 100.878,332.947 101.732 C 332.759 102.221,329.914 102.290,328.571 101.839 C 328.303 101.749,327.146 101.562,326.000 101.423 C 324.854 101.285,323.054 100.951,322.000 100.683 C 320.946 100.415,319.746 100.143,319.333 100.080 C 318.921 100.016,317.977 99.715,317.235 99.411 C 316.494 99.106,315.118 98.668,314.179 98.436 C 313.054 98.158,311.988 97.753,311.059 97.251 C 310.284 96.832,309.222 96.331,308.699 96.137 C 305.745 95.045,303.986 91.619,304.226 87.425 C 304.279 86.504,304.393 84.047,304.480 81.967 C 304.566 79.886,304.680 78.113,304.733 78.027 C 304.786 77.941,304.904 76.794,304.994 75.477 C 305.202 72.454,305.437 70.721,305.762 69.804 C 305.903 69.407,306.154 68.285,306.321 67.310 C 306.676 65.244,307.248 63.869,307.968 63.356 C 309.945 61.948,312.202 61.567,315.188 62.137 C 318.337 62.738,324.254 65.585,326.167 67.419 C 326.762 67.990,327.728 68.708,328.312 69.013 C 328.978 69.361,329.599 69.850,329.978 70.326 C 332.131 73.022,332.775 73.271,335.589 72.491 C 338.248 71.755,338.962 71.011,340.098 67.791 C 340.492 66.675,340.441 62.739,340.021 61.815 C 339.829 61.393,339.557 60.502,339.417 59.835 C 338.874 57.252,336.303 53.558,333.939 51.963 C 333.377 51.583,332.357 50.760,331.672 50.132 C 330.037 48.633,329.036 47.959,327.417 47.268 C 324.648 46.088,322.720 45.202,321.833 44.705 C 321.329 44.422,320.392 44.027,319.750 43.828 C 319.108 43.628,318.271 43.363,317.889 43.239 C 317.298 43.047,311.446 41.948,309.917 41.741 C 309.642 41.704,309.042 41.779,308.583 41.908 M104.893 54.208 C 106.219 54.909,107.833 56.450,107.833 57.014 C 107.833 57.293,107.556 57.700,106.987 58.256 C 106.522 58.711,105.847 59.584,105.488 60.195 C 103.765 63.125,103.580 63.057,102.925 59.250 C 102.052 54.180,102.529 52.958,104.893 54.208 M219.725 62.768 C 220.536 63.079,221.290 63.333,221.401 63.333 C 221.511 63.333,222.234 63.641,223.009 64.018 C 223.783 64.395,224.792 64.813,225.250 64.948 C 225.708 65.083,226.796 65.596,227.667 66.089 C 228.537 66.583,229.782 67.205,230.433 67.473 C 232.352 68.263,235.221 70.153,237.249 71.964 C 237.798 72.454,238.623 73.070,239.082 73.333 C 239.541 73.596,240.142 74.051,240.417 74.345 C 240.692 74.638,241.517 75.275,242.250 75.759 C 242.983 76.243,244.371 77.317,245.333 78.146 C 246.296 78.976,247.796 80.228,248.667 80.930 C 252.518 84.032,255.376 87.376,258.303 92.204 C 258.732 92.913,259.438 94.008,259.871 94.637 C 260.304 95.267,261.070 96.675,261.574 97.766 C 262.077 98.857,262.896 100.485,263.393 101.383 C 265.616 105.402,265.888 109.343,264.006 110.292 C 262.314 111.145,255.370 110.093,251.333 108.372 C 250.921 108.196,249.891 107.854,249.044 107.612 C 247.198 107.085,245.355 106.180,241.623 103.968 C 240.087 103.058,238.268 102.057,237.581 101.744 C 235.565 100.825,228.476 96.376,226.877 95.026 C 226.077 94.351,224.746 93.399,223.919 92.912 C 222.051 91.810,219.003 88.733,215.167 84.074 C 214.387 83.127,213.043 81.505,212.180 80.468 C 207.163 74.446,207.092 69.817,211.949 65.237 C 215.688 61.711,216.389 61.489,219.725 62.768 M106.042 77.018 C 106.489 77.371,107.131 77.735,107.469 77.827 C 107.807 77.919,108.703 78.154,109.461 78.349 C 110.650 78.656,111.096 78.887,112.711 80.032 C 113.741 80.763,115.115 81.606,115.764 81.906 C 117.976 82.930,124.858 89.885,126.370 92.626 C 128.357 96.227,125.995 98.969,118.583 101.664 C 117.758 101.964,116.183 102.620,115.083 103.121 C 113.897 103.662,112.202 104.262,110.917 104.596 C 109.725 104.906,108.340 105.274,107.839 105.413 C 106.768 105.711,104.692 105.747,104.102 105.478 C 103.213 105.073,103.163 104.394,103.369 95.417 C 103.430 92.758,103.546 87.583,103.627 83.917 C 103.812 75.497,103.878 75.307,106.042 77.018 " stroke="none" fill="#000000" fill-rule="evenodd"/>
  </g>
</svg>