<?xml version="1.0" encoding="utf-8"?>
<svg id="svg" version="1.1" width="400" height="86.83914510686164" viewBox="0, 0, 400,86.83914510686164" xmlns="http://www.w3.org/2000/svg">
  <g id="svgg">
    <path id="path1" d="M 187.616 5.063 C 183.618 7.797 183.658 15.716 187.682 17.881 C 188.663 18.409 191.459 18.379 192.734 17.827 C 195.237 16.744 196.444 12.827 195.145 10.006 C 194.615 8.856 193.05 6.658 192.433 6.2 C 190.45 4.723 188.712 4.314 187.616 5.063 M 27.51 14.005 C 24.346 14.329 19.757 16.102 17.957 17.697 C 16.534 18.958 16.217 19.757 16.216 22.083 C 16.214 25.517 17.247 26.396 19.835 25.164 C 23.524 23.408 24.769 23.199 32.927 22.969 C 41.097 22.739 43.427 22.912 49.142 24.174 C 54.1 25.27 53.976 25.138 54.156 29.5 C 54.275 32.344 54.458 34.784 54.795 38 C 54.886 38.871 54.962 40.108 54.965 40.75 C 54.967 41.392 55.08 42.742 55.213 43.75 C 55.347 44.758 55.46 46.483 55.463 47.583 C 55.467 48.683 55.58 50.408 55.716 51.417 C 55.851 52.425 56.075 54.225 56.214 55.417 C 56.354 56.608 56.539 57.846 56.627 58.167 C 57.468 61.244 56.488 61.482 47.928 60.277 C 45.651 59.956 42.819 59.568 41.635 59.414 C 39.487 59.134 34.055 58.061 29.062 56.93 C 27.612 56.602 25.284 56.143 23.887 55.91 C 21.34 55.484 20.756 55.327 19.343 54.686 C 18.924 54.495 17.657 54.083 16.528 53.769 C 13.876 53.032 10.537 51.833 9.589 51.275 C 8.021 50.354 6.939 50.884 6.939 52.572 C 6.939 53.643 8.796 57.6 9.551 58.138 C 10.346 58.705 18.61 62.797 19.371 63.001 C 19.775 63.109 21.074 63.593 22.259 64.077 C 24.629 65.045 26.577 65.701 27.972 66.002 C 28.473 66.11 29.8 66.494 30.92 66.855 C 33.451 67.669 35.327 68.113 36.832 68.253 C 38.131 68.373 41.535 68.978 44.284 69.576 C 45.287 69.794 46.927 70.097 47.928 70.251 C 48.93 70.404 50.607 70.67 51.654 70.842 C 52.702 71.014 54.545 71.234 55.749 71.331 C 56.955 71.428 58.036 71.543 58.151 71.587 C 58.267 71.631 60.113 71.822 62.254 72.012 C 64.394 72.201 66.89 72.424 67.802 72.506 C 78.034 73.43 82.984 72.503 86.429 69.017 C 88.547 66.875 89.326 65.065 89.591 61.673 C 89.994 56.503 88.755 53.12 84.768 48.5 C 83.247 46.739 83.169 46.369 83.884 44.321 C 84.741 41.867 84.812 37.409 84.032 35.071 C 81.78 28.315 75.546 23.018 64.225 18.239 C 62.578 17.544 60.548 16.636 59.713 16.223 C 58.224 15.485 58.173 15.473 56.935 15.562 C 55.92 15.635 55.206 15.554 53.291 15.15 C 51.304 14.731 50.277 14.62 47.1 14.484 C 45.005 14.394 42.396 14.247 41.303 14.157 C 38.6 13.936 29.204 13.832 27.51 14.005 M 112.599 16.791 C 109.899 18.54 109.465 24.221 111.668 29.016 C 113.106 32.147 113.901 33.97 114.094 34.583 C 114.21 34.95 114.566 35.85 114.887 36.583 C 116.054 39.257 117.784 44.309 118.342 46.667 C 118.656 47.996 119.072 49.608 119.268 50.25 C 120.068 52.879 119.612 55.458 118.22 56.172 C 114.247 58.212 106.412 50.634 103.823 42.25 C 103.626 41.608 103.137 40.071 102.737 38.833 C 101.499 35 100.674 28.864 100.994 25.878 C 101.58 20.421 101.007 18.089 98.821 17.024 C 95.435 15.375 93.484 19.601 93.486 28.583 C 93.486 32.255 93.453 31.954 94.657 39.062 C 95.114 41.759 97.067 47.987 98.27 50.583 C 101.843 58.293 103.193 60.268 107.073 63.459 C 114.489 69.559 120.929 69.425 124.671 63.093 C 126.253 60.417 126.675 58.507 126.794 53.5 L 126.883 49.75 L 126.344 47.167 C 126.048 45.746 125.439 43.533 124.99 42.25 C 124.54 40.967 123.887 39.054 123.535 38 C 123.184 36.946 122.4 34.883 121.793 33.417 C 121.186 31.95 120.403 30 120.053 29.083 C 119.703 28.167 119.195 26.892 118.924 26.25 C 118.418 25.052 118.152 24.013 117.591 21.048 C 116.869 17.236 114.731 15.412 112.599 16.791 M 155.411 23.328 C 153.32 23.52 151.088 24.118 147.627 25.411 C 142.709 27.248 141.671 27.871 141.157 29.293 C 141 29.728 140.626 30.646 140.327 31.333 C 138.09 36.467 139.879 38.922 149.464 43.872 C 151.635 44.993 153.711 46.201 154.615 46.869 C 155.448 47.485 156.936 48.49 157.923 49.103 C 163.735 52.715 170.399 58.316 170.399 59.591 C 170.399 60.61 167.676 60.785 163.774 60.019 C 162.362 59.741 160.089 59.32 158.723 59.083 C 152.479 57.999 144.927 55.341 143.321 53.661 C 140.31 50.511 137.918 51.587 137.944 56.08 C 137.975 61.472 140.114 63.525 149.035 66.724 C 153.298 68.253 156.104 69.13 157.066 69.234 C 157.613 69.293 158.731 69.524 159.551 69.747 C 160.37 69.97 161.75 70.236 162.615 70.339 C 163.48 70.442 164.51 70.597 164.904 70.683 C 166.707 71.079 171.991 71.456 174.043 71.336 C 179.852 70.995 183.032 67.423 182.791 61.508 C 182.569 56.096 175.015 48.554 159.302 38.059 C 155.266 35.362 154.809 34.859 155.676 34.067 C 156.16 33.626 159.191 33.524 160.959 33.89 C 167.128 35.167 167.801 35.115 169.033 33.267 C 170.189 31.536 170.294 30.03 169.4 28.046 C 167.705 24.283 162.846 22.644 155.411 23.328 M 244.16 25.984 C 243.493 26.394 243.094 26.971 242.233 28.776 C 240.973 31.416 241.121 33.933 242.784 38.172 C 243.425 39.805 244.124 42.416 244.839 45.833 C 245.155 47.346 245.606 49.49 245.841 50.599 C 246.722 54.752 246.073 54.826 242.192 51.016 C 240.735 49.584 238.238 47.215 236.644 45.751 C 230.517 40.122 226.109 35.394 223.949 32.132 C 222.41 29.809 222.04 29.489 220.362 29.02 C 219.622 28.814 218.989 28.479 218.283 27.921 C 216.529 26.534 215.333 26.706 213.952 28.544 C 211.577 31.707 211.522 34.385 213.767 37.727 C 214.673 39.077 214.691 39.317 214.211 43.75 C 213.859 47.004 213.675 49.982 213.543 54.583 C 213.487 56.508 213.323 58.98 213.179 60.076 C 212.73 63.481 213.106 68.643 213.933 70.42 C 215.181 73.105 217.194 73.696 219.463 72.043 C 221.047 70.889 221.494 69.196 221.434 64.583 C 221.416 63.208 221.39 61.258 221.376 60.25 C 221.336 57.331 221.733 48.474 221.932 47.833 C 222.263 46.764 222.861 46.531 223.742 47.126 C 224.433 47.592 235.374 58.059 237.533 60.318 C 238.158 60.973 239.063 61.863 239.542 62.296 C 240.34 63.019 241.428 64.187 244.981 68.139 C 247.181 70.584 247.144 70.501 247.255 73.321 C 247.41 77.268 248.339 78.7 250.741 78.7 C 252.861 78.7 254.147 77.533 255.379 74.488 C 257.329 69.671 257.343 69.594 256.692 67.333 C 256.134 65.395 255.595 62.54 255.45 60.75 C 254.945 54.502 254.355 49.407 253.887 47.25 C 253.708 46.425 253.477 45.15 253.374 44.417 C 253.271 43.683 253.009 42.446 252.791 41.667 C 252.575 40.887 252.087 39.014 251.709 37.503 C 251.331 35.992 250.96 34.637 250.882 34.493 C 250.806 34.348 250.476 33.316 250.151 32.201 C 248.559 26.74 246.467 24.569 244.16 25.984 M 193.563 27.495 C 192.354 27.863 191.18 29.295 190.389 31.368 L 189.862 32.75 L 189.893 36.167 C 189.909 38.046 190.015 41.796 190.128 44.5 C 190.446 52.138 190.319 56.896 189.425 70.801 C 189.106 75.783 190.988 78.336 193.885 76.849 C 196.653 75.428 197.224 73.037 197.723 60.75 C 197.82 58.367 197.977 54.906 198.073 53.059 C 198.202 50.591 198.197 48.848 198.053 46.476 C 197.945 44.702 197.905 42.612 197.962 41.833 C 198.203 38.594 198.117 32.463 197.816 31.422 C 196.927 28.344 195.401 26.935 193.563 27.495 M 279.454 28.669 C 275.093 29.136 270.219 31.937 268.051 35.225 C 267.345 36.296 266.05 39.8 265.728 41.512 C 265.403 43.245 264.989 43.593 263.482 43.401 C 259.932 42.948 258.927 43.784 259.057 47.083 C 259.209 50.912 260.046 51.987 263.94 53.357 C 266.77 54.352 266.843 54.431 268.85 58.667 C 272.055 65.432 274.219 68.299 280.371 73.927 C 284.503 77.709 295.951 84.678 298.866 85.187 C 301.081 85.574 303.742 84.654 305.296 82.965 C 309.102 78.828 308.606 76.535 303.822 76.148 C 300.276 75.86 294.468 72.524 287.901 67.002 C 287.172 66.389 286.129 65.561 285.582 65.161 C 284.552 64.407 280.832 60.643 280.023 59.537 C 278.634 57.636 279.514 57.207 282.822 58.175 C 286.778 59.333 288.523 58.864 289.794 56.303 C 291.523 52.821 288.816 49.37 283.098 47.768 C 282.278 47.538 281.272 47.229 280.862 47.082 C 280.03 46.783 277.931 46.27 276.077 45.911 C 272.039 45.129 273.441 41.233 278.304 39.723 C 279.811 39.254 284.534 39.3 286.547 39.802 C 289.494 40.537 291.475 39.888 292.561 37.833 C 293.372 36.3 292.89 32.442 291.712 31.033 C 290.3 29.345 284.178 28.164 279.454 28.669 M 66.78 30.444 C 77.259 36.483 79.713 40.918 72.688 41.121 C 70.079 41.197 70.003 41.215 69.193 41.952 C 67.233 43.733 66.433 47.56 67.528 49.917 C 68.471 51.948 68.948 52.238 72.191 52.753 C 74.863 53.178 76.602 54.105 78.879 56.315 C 83.242 60.55 81.621 61.959 72.202 62.121 C 64.931 62.245 65.118 62.387 64.151 56 C 62.763 46.827 62.441 43.719 62.184 37.028 C 62.155 36.233 62.033 34.646 61.917 33.5 C 61.372 28.162 62.065 27.726 66.78 30.444 M 318.262 28.916 C 314.803 29.502 313.043 30.568 311.381 33.083 C 309.216 36.36 309.148 39.901 311.171 44.106 C 311.967 45.761 314.407 48.364 317.214 50.551 C 322.835 54.932 333.332 64.471 335.374 67.057 C 336.42 68.381 336.152 68.996 334.638 68.744 C 332.285 68.353 325.685 65.955 323.094 64.55 C 322.319 64.13 320.419 63.213 318.871 62.512 C 317.321 61.811 315.011 60.647 313.736 59.924 C 312.461 59.201 310.673 58.205 309.762 57.709 C 308.85 57.214 307.208 56.255 306.111 55.579 C 303.736 54.116 302.805 53.799 302.153 54.229 C 300.222 55.501 302.359 61.176 305.747 63.776 C 306.315 64.212 307.228 64.992 307.774 65.51 C 309.104 66.767 311.369 68.499 313.037 69.533 C 313.786 69.997 314.921 70.773 315.558 71.258 C 318.018 73.13 323.874 76.051 327.068 76.999 C 327.751 77.202 329.167 77.765 330.214 78.25 C 338.36 82.02 341.208 82.248 344.917 79.424 C 346.75 78.027 347.49 76.569 347.878 73.589 C 348.463 69.084 347.714 66.623 344.399 62.167 C 340.5 56.925 335.642 52.32 324.416 43.229 C 321.414 40.798 320.937 40.19 321.574 39.609 C 322.075 39.153 326.047 39.426 328.393 40.077 C 332.407 41.19 335.086 37.321 333.181 33.161 C 331.606 29.721 324.853 27.8 318.262 28.916 M 363.253 28.841 C 354.675 29.333 351.893 31.054 350.923 36.468 C 350.288 40.01 353.648 44.06 359.871 47.252 C 360.184 47.412 361.484 48.236 362.761 49.082 C 364.039 49.929 365.381 50.775 365.742 50.963 C 369.695 53.015 379.234 60.926 380.01 62.795 C 380.717 64.496 378.775 64.819 367.809 64.83 C 364.572 64.833 362.346 64.904 361.942 65.017 C 359.145 65.798 360.135 69.44 363.668 71.361 C 364.261 71.683 365.092 72.149 365.517 72.396 C 366.118 72.746 366.712 72.898 368.194 73.083 C 369.241 73.214 370.942 73.546 371.976 73.822 C 373.774 74.301 374.732 74.426 379.733 74.834 C 384.841 75.251 388.379 72.575 389.689 67.306 C 391.309 60.781 388.544 55.347 379.816 47.903 C 378.832 47.063 377.272 45.9 372.942 42.774 C 368.193 39.345 368.196 38.979 372.969 39.336 C 376.651 39.611 377.802 39.349 378.978 37.967 C 380.923 35.679 380.319 31.352 377.876 30.067 C 375.844 28.999 369.605 28.476 363.253 28.841" stroke="none" fill="#000000" fill-rule="evenodd" style=""/>
  </g>
</svg>