<svg width="200" height="30" viewBox="0 0 380 122" version="1.1" xmlns="http://www.w3.org/2000/svg" xmlns:xlink="http://www.w3.org/1999/xlink" xml:space="preserve" xmlns:serif="http://www.serif.com/" style="fill-rule:evenodd;clip-rule:evenodd;stroke-linejoin:round;stroke-miterlimit:2;">
    <g id="Artboard1" transform="matrix(1,0,0,1,-7.90347,-11.9962)">
        <rect x="7.903" y="11.996" width="379.172" height="121.989" style="fill:none;"/>
        <g id="svgg" transform="matrix(1,0,0,1,0.903468,0.996205)">
            <path id="path0" d="M88.5,18.514C87.584,19.056 87.068,19.759 85.914,22.032C84.126,25.555 84.907,25.503 73.833,22.836C72.688,22.56 70.813,22.256 69.667,22.161C68.521,22.065 67.471,21.954 67.333,21.914C67.196,21.874 65.621,21.643 63.833,21.401C62.046,21.159 60.171,20.898 59.667,20.821C54.213,19.992 48.23,20.529 44.73,22.16C41.64,23.601 38.099,27.403 37.583,29.833C37.515,30.154 37.249,30.947 36.993,31.596C36.575,32.653 36.506,33.118 36.33,36.074C36.101,39.91 36.109,39.975 36.982,41.326C37.347,41.891 37.811,42.849 38.013,43.455C38.442,44.744 39.332,45.72 40.699,46.402C42.886,47.491 44.481,46.481 46.345,42.823C47.86,39.853 48.107,39.719 52.75,39.348C57.852,38.94 61.036,39.231 64.646,40.435C65.322,40.66 66.972,41.064 68.312,41.331C69.653,41.598 71.614,42.108 72.67,42.465C73.726,42.821 75.104,43.165 75.731,43.23C77.801,43.442 84.503,45.391 85.573,46.092C86.488,46.691 88,50.832 88,52.736C88,53.051 88.142,54.046 88.316,54.946C88.777,57.332 88.926,61.343 88.595,62.417C88.247,63.542 88.268,64.424 88.671,65.595C88.969,66.462 88.995,66.82 88.897,68.677C88.808,70.363 88.845,71.071 89.084,72.264C89.73,75.489 88.878,104.13 88.091,105.651C87.543,106.711 83.157,107.023 80.034,106.223C79.511,106.089 77.658,105.915 75.917,105.835C74.073,105.752 71.984,105.549 70.917,105.352C69.908,105.165 67.921,104.894 66.5,104.749C63.403,104.433 62.045,104.167 60.071,103.485C58.942,103.096 58.105,102.937 56.601,102.825C53.485,102.594 50.362,101.907 47.195,100.756C46.523,100.512 44.911,100.059 43.612,99.75C41.279,99.194 37.201,97.882 35.583,97.165C35.125,96.962 33.813,96.474 32.667,96.08C28.804,94.753 27.255,94.146 26.081,93.498C25.437,93.143 24.091,92.509 23.089,92.09C20.504,91.006 19.99,90.668 17.793,88.596C14.31,85.31 13.004,85.053 11.267,87.311C10.249,88.635 10.065,89.109 9.837,91.004C9.1,97.134 9.343,99.002 11.141,101.027C11.673,101.627 12.277,102.353 12.482,102.641C12.687,102.929 13.383,103.478 14.028,103.862C14.674,104.245 16.001,105.151 16.976,105.874C19.168,107.499 20.22,108.094 22.667,109.092C23.721,109.522 25.108,110.139 25.75,110.463C26.392,110.788 28.348,111.52 30.096,112.091C31.98,112.705 34.291,113.61 35.765,114.312C37.572,115.171 38.682,115.587 39.816,115.83C40.675,116.013 42.287,116.53 43.397,116.977C44.508,117.425 46.089,117.996 46.911,118.245C47.734,118.495 48.989,118.993 49.702,119.351C50.743,119.875 51.284,120.033 52.457,120.159C53.291,120.249 54.543,120.537 55.378,120.832C56.789,121.33 56.885,121.342 58.15,121.169C59.587,120.972 60.509,121.101 61.82,121.68C62.228,121.861 63.227,122.116 64.04,122.248C65.721,122.52 67.126,122.917 69.735,123.859C71.157,124.372 71.956,124.552 73.401,124.684C74.418,124.777 76.262,125.039 77.5,125.266C80.961,125.901 83.641,126.164 87.353,126.234C89.221,126.269 91.162,126.391 91.667,126.506C92.813,126.766 97.457,126.604 98.917,126.252C99.467,126.12 100.304,126.009 100.778,126.006C101.752,125.999 105.366,125.323 107,124.842C107.596,124.667 108.539,124.442 109.097,124.343C109.655,124.243 111.117,123.823 112.347,123.409C113.577,122.995 115.746,122.352 117.167,121.981C124.166,120.149 128.241,118.026 131.833,114.338C132.429,113.726 133.34,112.956 133.857,112.627C134.477,112.231 135.22,111.499 136.042,110.472C136.727,109.617 137.483,108.737 137.721,108.518C138.187,108.091 138.787,106.759 139.937,103.606C141.691,98.794 143.043,98.782 144.006,103.571C144.186,104.466 144.386,105.285 144.45,105.391C145.676,107.408 147.752,109.813 149.664,111.429C151.818,113.25 151.872,113.279 153.583,113.556C155.046,113.792 156.852,114.415 158.505,115.253C158.955,115.481 159.945,115.817 160.704,116C163.707,116.725 165.204,117.177 166.449,117.735C168.295,118.563 170.609,119.395 172.922,120.063C174.019,120.38 175.551,120.912 176.326,121.245C178.283,122.085 181.916,123.286 182.917,123.422C183.375,123.485 184.495,123.833 185.405,124.196C191.066,126.451 198.518,124.385 199.727,120.226C199.883,119.689 200.277,118.438 200.603,117.447C201.528,114.629 201.798,110.72 201.159,109.4C200.114,107.243 196.947,105.328 193.75,104.92C193.292,104.861 192.392,104.674 191.75,104.503C191.108,104.332 189.754,104.115 188.741,104.02C187.708,103.924 186.317,103.666 185.574,103.432C184.846,103.203 183.549,102.86 182.693,102.671C181.837,102.481 180.555,102.102 179.844,101.828C179.134,101.554 177.959,101.15 177.235,100.931C175.554,100.422 169.038,98.111 167.833,97.596C167.329,97.38 166.504,97.115 166,97.006C163.362,96.436 159.818,94.995 158.647,94.016C157.361,92.941 157.159,91.358 157.991,88.879C158.26,88.075 158.569,86.967 158.676,86.417C158.806,85.743 159.388,84.41 160.457,82.333C161.33,80.637 162.327,78.425 162.672,77.417C163.017,76.408 163.603,74.833 163.974,73.917C164.344,73 164.869,71.575 165.14,70.75C165.801,68.737 166.886,65.733 167.577,64C167.888,63.221 168.303,61.946 168.499,61.167C169.346,57.796 171.83,53.04 174.141,50.361C175.68,48.577 175.709,48.515 176.25,45.75C177.19,40.95 176.185,36.144 173.632,33.236C170.844,30.061 166.16,31.946 163.005,37.514C162.412,38.56 161.538,39.942 161.064,40.583C159.702,42.428 158.187,45.795 157.091,49.417C156.841,50.242 156.336,51.554 155.968,52.333C155.015,54.35 154.214,56.799 153.986,58.385C153.728,60.187 153.353,61.147 151.241,65.423C150.027,67.881 149.347,69.477 149.091,70.468C148.886,71.265 148.448,72.629 148.119,73.5C144.874,82.073 144.853,82.139 143.901,86.583C143.423,88.811 142.95,90.066 142.628,89.961C142.138,89.801 140.683,86.756 140.491,85.487C140.219,83.696 139.035,81.339 137.315,79.163C136.948,78.7 136.396,77.892 136.088,77.368C135.779,76.845 135.251,76.154 134.914,75.833C134.576,75.512 134.037,74.837 133.716,74.333C133.395,73.829 132.334,72.629 131.358,71.665C125.805,66.186 125.37,65.54 125.652,63.197C126.095,59.523 125.69,54.474 124.741,51.833C123.005,47.002 116.854,39.541 112.732,37.266C111.917,36.816 110.462,35.979 109.5,35.406C108.537,34.833 105.744,33.38 103.292,32.177C98.229,29.693 98.661,30.081 97.405,26.887C96.492,24.567 96.349,24.262 95.121,22.02C93.446,18.961 90.435,17.367 88.5,18.514M221.083,40.405C220.717,40.524 219.779,40.907 219,41.257C217.355,41.995 216.225,42.141 214.444,41.842C211.944,41.424 209.665,43.223 207.974,46.948C207.686,47.583 207.135,48.359 206.544,48.962C206.016,49.501 204.833,50.793 203.917,51.832C203,52.871 201.795,54.215 201.239,54.819C199.74,56.446 199.538,56.762 199.331,57.802C199.024,59.343 197.983,62.181 197.364,63.163C194.773,67.275 194.576,77.286 196.978,82.789C197.248,83.409 197.558,84.25 197.667,84.658C197.958,85.753 200.015,89.766 200.875,90.917C201.286,91.467 201.755,92.179 201.917,92.5C202.747,94.144 204.839,96.867 206.654,98.667C207.718,99.721 209.184,101.251 209.912,102.067C211.097,103.394 213.119,105.262 215.368,107.106C215.8,107.46 216.925,108.432 217.868,109.265C218.812,110.098 220.221,111.245 221,111.813C221.779,112.381 222.782,113.134 223.228,113.487C223.674,113.84 224.687,114.491 225.478,114.933C226.345,115.417 227.429,116.223 228.207,116.961C229.15,117.854 229.838,118.339 230.758,118.759C231.451,119.075 232.445,119.622 232.967,119.975C233.986,120.663 237.846,122.861 241.5,124.834C242.737,125.502 244.012,126.196 244.333,126.377C245.786,127.195 248.358,128.211 249.5,128.416C250.255,128.552 251.2,128.878 251.887,129.237C252.663,129.644 253.245,129.833 253.72,129.833C254.103,129.834 255.092,130.017 255.917,130.24C258.924,131.056 263.661,131.218 265.917,130.581C268.977,129.718 273.954,125.937 275.912,122.988C278.336,119.335 279.031,117.515 279.408,113.833C279.469,113.237 279.637,112.15 279.781,111.417C280.405,108.242 280.075,105.568 277.942,96.5C277.245,93.538 274.804,87.858 272.713,84.333C270.494,80.591 269.79,79.504 268.718,78.167C268.094,77.387 267.214,76.262 266.764,75.667C264.828,73.105 257.135,65.091 255.032,63.446C254.327,62.894 252.774,61.499 251.581,60.346C250.388,59.193 249,57.975 248.497,57.64C247.995,57.304 246.871,56.46 246,55.764C243.411,53.694 243.09,53.479 240.363,51.991C235.588,49.385 232.424,47.611 231.75,47.16C231.383,46.915 230.709,46.55 230.252,46.349C229.115,45.849 228.752,45.466 227.95,43.917C226.399,40.919 223.722,39.55 221.083,40.405M308.583,41.908C301.367,43.938 297.381,48.037 294.312,56.583C294.048,57.317 293.57,58.442 293.249,59.083C292.784,60.012 292.634,60.56 292.512,61.767C292.428,62.601 292.204,63.876 292.015,64.6C290.827,69.157 290.63,70.248 290.481,73.083C290.127,79.815 290.022,81.116 289.766,81.901C289.447,82.883 289.435,83.45 289.702,85.007C289.875,86.017 289.863,86.385 289.619,87.573C289.269,89.275 289.259,91.597 289.59,94.25C289.728,95.35 289.904,97.075 289.981,98.083C290.088,99.465 290.232,100.175 290.566,100.963C290.809,101.539 291.256,102.703 291.559,103.55C292.718,106.792 295.209,110.198 298.193,112.619C300.705,114.657 300.861,114.758 302.083,115.154C302.633,115.332 304.208,116.014 305.583,116.671C307.249,117.465 308.696,118.022 309.917,118.339C310.925,118.6 312.087,118.935 312.5,119.084C312.912,119.232 314.092,119.533 315.12,119.752C316.149,119.971 317.499,120.308 318.12,120.5C318.967,120.762 320.022,120.889 322.333,121.007C324.029,121.094 325.792,121.236 326.25,121.323C326.708,121.409 327.683,121.486 328.417,121.494C329.15,121.501 331.025,121.623 332.583,121.763C334.142,121.904 336.242,122.082 337.25,122.158C338.258,122.235 339.571,122.431 340.167,122.595C341.969,123.089 352.628,122.962 354.739,122.421C355.57,122.208 356.587,121.983 357,121.922C358.157,121.75 358.7,121.544 360.097,120.747C360.807,120.343 362.032,119.78 362.819,119.496C365.256,118.618 365.792,118.06 367.219,114.914L368.124,112.917L368.081,110C368.044,107.575 367.978,106.901 367.687,106C366.888,103.523 367.709,102.906 370.914,103.577C373.593,104.137 377.801,103.002 379.912,101.149C382.748,98.658 384.351,91.929 383.043,88C382.349,85.914 379.482,82.698 377.908,82.24C376.711,81.892 372.175,81.999 370.25,82.42C369.486,82.587 367.461,82.727 364.381,82.824C361.795,82.906 359.615,83.012 359.535,83.061C359.302,83.206 355.875,83.182 351.583,83.008C345.759,82.771 343.084,82.334 338.888,80.936C337.07,80.33 335.003,79.674 334.294,79.477C333.28,79.196 332.558,78.823 330.916,77.733C328.093,75.86 326.721,75.686 324.167,76.874C322.695,77.559 322.171,78.07 321.588,79.39C321.351,79.926 320.901,80.765 320.587,81.255C318.089,85.161 317.727,89.023 319.527,92.583C321.06,95.617 321.501,96.025 324.491,97.179C331.249,99.788 333.274,100.878 332.947,101.732C332.759,102.221 329.914,102.29 328.571,101.839C328.303,101.749 327.146,101.562 326,101.423C324.854,101.285 323.054,100.951 322,100.683C320.946,100.415 319.746,100.143 319.333,100.08C318.921,100.016 317.977,99.715 317.235,99.411C316.494,99.106 315.118,98.668 314.179,98.436C313.054,98.158 311.988,97.753 311.059,97.251C310.284,96.832 309.222,96.331 308.699,96.137C305.745,95.045 303.986,91.619 304.226,87.425C304.279,86.504 304.393,84.047 304.48,81.967C304.566,79.886 304.68,78.113 304.733,78.027C304.786,77.941 304.904,76.794 304.994,75.477C305.202,72.454 305.437,70.721 305.762,69.804C305.903,69.407 306.154,68.285 306.321,67.31C306.676,65.244 307.248,63.869 307.968,63.356C309.945,61.948 312.202,61.567 315.188,62.137C318.337,62.738 324.254,65.585 326.167,67.419C326.762,67.99 327.728,68.708 328.312,69.013C328.978,69.361 329.599,69.85 329.978,70.326C332.131,73.022 332.775,73.271 335.589,72.491C338.248,71.755 338.962,71.011 340.098,67.791C340.492,66.675 340.441,62.739 340.021,61.815C339.829,61.393 339.557,60.502 339.417,59.835C338.874,57.252 336.303,53.558 333.939,51.963C333.377,51.583 332.357,50.76 331.672,50.132C330.037,48.633 329.036,47.959 327.417,47.268C324.648,46.088 322.72,45.202 321.833,44.705C321.329,44.422 320.392,44.027 319.75,43.828C319.108,43.628 318.271,43.363 317.889,43.239C317.298,43.047 311.446,41.948 309.917,41.741C309.642,41.704 309.042,41.779 308.583,41.908M104.893,54.208C106.219,54.909 107.833,56.45 107.833,57.014C107.833,57.293 107.556,57.7 106.987,58.256C106.522,58.711 105.847,59.584 105.488,60.195C103.765,63.125 103.58,63.057 102.925,59.25C102.052,54.18 102.529,52.958 104.893,54.208M219.725,62.768C220.536,63.079 221.29,63.333 221.401,63.333C221.511,63.333 222.234,63.641 223.009,64.018C223.783,64.395 224.792,64.813 225.25,64.948C225.708,65.083 226.796,65.596 227.667,66.089C228.537,66.583 229.782,67.205 230.433,67.473C232.352,68.263 235.221,70.153 237.249,71.964C237.798,72.454 238.623,73.07 239.082,73.333C239.541,73.596 240.142,74.051 240.417,74.345C240.692,74.638 241.517,75.275 242.25,75.759C242.983,76.243 244.371,77.317 245.333,78.146C246.296,78.976 247.796,80.228 248.667,80.93C252.518,84.032 255.376,87.376 258.303,92.204C258.732,92.913 259.438,94.008 259.871,94.637C260.304,95.267 261.07,96.675 261.574,97.766C262.077,98.857 262.896,100.485 263.393,101.383C265.616,105.402 265.888,109.343 264.006,110.292C262.314,111.145 255.37,110.093 251.333,108.372C250.921,108.196 249.891,107.854 249.044,107.612C247.198,107.085 245.355,106.18 241.623,103.968C240.087,103.058 238.268,102.057 237.581,101.744C235.565,100.825 228.476,96.376 226.877,95.026C226.077,94.351 224.746,93.399 223.919,92.912C222.051,91.81 219.003,88.733 215.167,84.074C214.387,83.127 213.043,81.505 212.18,80.468C207.163,74.446 207.092,69.817 211.949,65.237C215.688,61.711 216.389,61.489 219.725,62.768M106.042,77.018C106.489,77.371 107.131,77.735 107.469,77.827C107.807,77.919 108.703,78.154 109.461,78.349C110.65,78.656 111.096,78.887 112.711,80.032C113.741,80.763 115.115,81.606 115.764,81.906C117.976,82.93 124.858,89.885 126.37,92.626C128.357,96.227 125.995,98.969 118.583,101.664C117.758,101.964 116.183,102.62 115.083,103.121C113.897,103.662 112.202,104.262 110.917,104.596C109.725,104.906 108.34,105.274 107.839,105.413C106.768,105.711 104.692,105.747 104.102,105.478C103.213,105.073 103.163,104.394 103.369,95.417C103.43,92.758 103.546,87.583 103.627,83.917C103.812,75.497 103.878,75.307 106.042,77.018"/>
        </g>
    </g>
</svg>
