<svg width="200" height="30" viewBox="0 0 392 84" version="1.1" xmlns="http://www.w3.org/2000/svg" xmlns:xlink="http://www.w3.org/1999/xlink" xml:space="preserve" xmlns:serif="http://www.serif.com/" style="fill-rule:evenodd;clip-rule:evenodd;stroke-linejoin:round;stroke-miterlimit:2;">
    <g id="Artboard1" transform="matrix(1,0,0,1,-1.73073,-2.56934)">
        <rect x="1.731" y="2.569" width="391.863" height="83.383" style="fill:none;"/>
        <g id="svgg" transform="matrix(1,0,0,1,0.730729,0.569345)">
            <path id="path1" d="M187.616,5.063C183.618,7.797 183.658,15.716 187.682,17.881C188.663,18.409 191.459,18.379 192.734,17.827C195.237,16.744 196.444,12.827 195.145,10.006C194.615,8.856 193.05,6.658 192.433,6.2C190.45,4.723 188.712,4.314 187.616,5.063M27.51,14.005C24.346,14.329 19.757,16.102 17.957,17.697C16.534,18.958 16.217,19.757 16.216,22.083C16.214,25.517 17.247,26.396 19.835,25.164C23.524,23.408 24.769,23.199 32.927,22.969C41.097,22.739 43.427,22.912 49.142,24.174C54.1,25.27 53.976,25.138 54.156,29.5C54.275,32.344 54.458,34.784 54.795,38C54.886,38.871 54.962,40.108 54.965,40.75C54.967,41.392 55.08,42.742 55.213,43.75C55.347,44.758 55.46,46.483 55.463,47.583C55.467,48.683 55.58,50.408 55.716,51.417C55.851,52.425 56.075,54.225 56.214,55.417C56.354,56.608 56.539,57.846 56.627,58.167C57.468,61.244 56.488,61.482 47.928,60.277C45.651,59.956 42.819,59.568 41.635,59.414C39.487,59.134 34.055,58.061 29.062,56.93C27.612,56.602 25.284,56.143 23.887,55.91C21.34,55.484 20.756,55.327 19.343,54.686C18.924,54.495 17.657,54.083 16.528,53.769C13.876,53.032 10.537,51.833 9.589,51.275C8.021,50.354 6.939,50.884 6.939,52.572C6.939,53.643 8.796,57.6 9.551,58.138C10.346,58.705 18.61,62.797 19.371,63.001C19.775,63.109 21.074,63.593 22.259,64.077C24.629,65.045 26.577,65.701 27.972,66.002C28.473,66.11 29.8,66.494 30.92,66.855C33.451,67.669 35.327,68.113 36.832,68.253C38.131,68.373 41.535,68.978 44.284,69.576C45.287,69.794 46.927,70.097 47.928,70.251C48.93,70.404 50.607,70.67 51.654,70.842C52.702,71.014 54.545,71.234 55.749,71.331C56.955,71.428 58.036,71.543 58.151,71.587C58.267,71.631 60.113,71.822 62.254,72.012C64.394,72.201 66.89,72.424 67.802,72.506C78.034,73.43 82.984,72.503 86.429,69.017C88.547,66.875 89.326,65.065 89.591,61.673C89.994,56.503 88.755,53.12 84.768,48.5C83.247,46.739 83.169,46.369 83.884,44.321C84.741,41.867 84.812,37.409 84.032,35.071C81.78,28.315 75.546,23.018 64.225,18.239C62.578,17.544 60.548,16.636 59.713,16.223C58.224,15.485 58.173,15.473 56.935,15.562C55.92,15.635 55.206,15.554 53.291,15.15C51.304,14.731 50.277,14.62 47.1,14.484C45.005,14.394 42.396,14.247 41.303,14.157C38.6,13.936 29.204,13.832 27.51,14.005M112.599,16.791C109.899,18.54 109.465,24.221 111.668,29.016C113.106,32.147 113.901,33.97 114.094,34.583C114.21,34.95 114.566,35.85 114.887,36.583C116.054,39.257 117.784,44.309 118.342,46.667C118.656,47.996 119.072,49.608 119.268,50.25C120.068,52.879 119.612,55.458 118.22,56.172C114.247,58.212 106.412,50.634 103.823,42.25C103.626,41.608 103.137,40.071 102.737,38.833C101.499,35 100.674,28.864 100.994,25.878C101.58,20.421 101.007,18.089 98.821,17.024C95.435,15.375 93.484,19.601 93.486,28.583C93.486,32.255 93.453,31.954 94.657,39.062C95.114,41.759 97.067,47.987 98.27,50.583C101.843,58.293 103.193,60.268 107.073,63.459C114.489,69.559 120.929,69.425 124.671,63.093C126.253,60.417 126.675,58.507 126.794,53.5L126.883,49.75L126.344,47.167C126.048,45.746 125.439,43.533 124.99,42.25C124.54,40.967 123.887,39.054 123.535,38C123.184,36.946 122.4,34.883 121.793,33.417C121.186,31.95 120.403,30 120.053,29.083C119.703,28.167 119.195,26.892 118.924,26.25C118.418,25.052 118.152,24.013 117.591,21.048C116.869,17.236 114.731,15.412 112.599,16.791M155.411,23.328C153.32,23.52 151.088,24.118 147.627,25.411C142.709,27.248 141.671,27.871 141.157,29.293C141,29.728 140.626,30.646 140.327,31.333C138.09,36.467 139.879,38.922 149.464,43.872C151.635,44.993 153.711,46.201 154.615,46.869C155.448,47.485 156.936,48.49 157.923,49.103C163.735,52.715 170.399,58.316 170.399,59.591C170.399,60.61 167.676,60.785 163.774,60.019C162.362,59.741 160.089,59.32 158.723,59.083C152.479,57.999 144.927,55.341 143.321,53.661C140.31,50.511 137.918,51.587 137.944,56.08C137.975,61.472 140.114,63.525 149.035,66.724C153.298,68.253 156.104,69.13 157.066,69.234C157.613,69.293 158.731,69.524 159.551,69.747C160.37,69.97 161.75,70.236 162.615,70.339C163.48,70.442 164.51,70.597 164.904,70.683C166.707,71.079 171.991,71.456 174.043,71.336C179.852,70.995 183.032,67.423 182.791,61.508C182.569,56.096 175.015,48.554 159.302,38.059C155.266,35.362 154.809,34.859 155.676,34.067C156.16,33.626 159.191,33.524 160.959,33.89C167.128,35.167 167.801,35.115 169.033,33.267C170.189,31.536 170.294,30.03 169.4,28.046C167.705,24.283 162.846,22.644 155.411,23.328M244.16,25.984C243.493,26.394 243.094,26.971 242.233,28.776C240.973,31.416 241.121,33.933 242.784,38.172C243.425,39.805 244.124,42.416 244.839,45.833C245.155,47.346 245.606,49.49 245.841,50.599C246.722,54.752 246.073,54.826 242.192,51.016C240.735,49.584 238.238,47.215 236.644,45.751C230.517,40.122 226.109,35.394 223.949,32.132C222.41,29.809 222.04,29.489 220.362,29.02C219.622,28.814 218.989,28.479 218.283,27.921C216.529,26.534 215.333,26.706 213.952,28.544C211.577,31.707 211.522,34.385 213.767,37.727C214.673,39.077 214.691,39.317 214.211,43.75C213.859,47.004 213.675,49.982 213.543,54.583C213.487,56.508 213.323,58.98 213.179,60.076C212.73,63.481 213.106,68.643 213.933,70.42C215.181,73.105 217.194,73.696 219.463,72.043C221.047,70.889 221.494,69.196 221.434,64.583C221.416,63.208 221.39,61.258 221.376,60.25C221.336,57.331 221.733,48.474 221.932,47.833C222.263,46.764 222.861,46.531 223.742,47.126C224.433,47.592 235.374,58.059 237.533,60.318C238.158,60.973 239.063,61.863 239.542,62.296C240.34,63.019 241.428,64.187 244.981,68.139C247.181,70.584 247.144,70.501 247.255,73.321C247.41,77.268 248.339,78.7 250.741,78.7C252.861,78.7 254.147,77.533 255.379,74.488C257.329,69.671 257.343,69.594 256.692,67.333C256.134,65.395 255.595,62.54 255.45,60.75C254.945,54.502 254.355,49.407 253.887,47.25C253.708,46.425 253.477,45.15 253.374,44.417C253.271,43.683 253.009,42.446 252.791,41.667C252.575,40.887 252.087,39.014 251.709,37.503C251.331,35.992 250.96,34.637 250.882,34.493C250.806,34.348 250.476,33.316 250.151,32.201C248.559,26.74 246.467,24.569 244.16,25.984M193.563,27.495C192.354,27.863 191.18,29.295 190.389,31.368L189.862,32.75L189.893,36.167C189.909,38.046 190.015,41.796 190.128,44.5C190.446,52.138 190.319,56.896 189.425,70.801C189.106,75.783 190.988,78.336 193.885,76.849C196.653,75.428 197.224,73.037 197.723,60.75C197.82,58.367 197.977,54.906 198.073,53.059C198.202,50.591 198.197,48.848 198.053,46.476C197.945,44.702 197.905,42.612 197.962,41.833C198.203,38.594 198.117,32.463 197.816,31.422C196.927,28.344 195.401,26.935 193.563,27.495M279.454,28.669C275.093,29.136 270.219,31.937 268.051,35.225C267.345,36.296 266.05,39.8 265.728,41.512C265.403,43.245 264.989,43.593 263.482,43.401C259.932,42.948 258.927,43.784 259.057,47.083C259.209,50.912 260.046,51.987 263.94,53.357C266.77,54.352 266.843,54.431 268.85,58.667C272.055,65.432 274.219,68.299 280.371,73.927C284.503,77.709 295.951,84.678 298.866,85.187C301.081,85.574 303.742,84.654 305.296,82.965C309.102,78.828 308.606,76.535 303.822,76.148C300.276,75.86 294.468,72.524 287.901,67.002C287.172,66.389 286.129,65.561 285.582,65.161C284.552,64.407 280.832,60.643 280.023,59.537C278.634,57.636 279.514,57.207 282.822,58.175C286.778,59.333 288.523,58.864 289.794,56.303C291.523,52.821 288.816,49.37 283.098,47.768C282.278,47.538 281.272,47.229 280.862,47.082C280.03,46.783 277.931,46.27 276.077,45.911C272.039,45.129 273.441,41.233 278.304,39.723C279.811,39.254 284.534,39.3 286.547,39.802C289.494,40.537 291.475,39.888 292.561,37.833C293.372,36.3 292.89,32.442 291.712,31.033C290.3,29.345 284.178,28.164 279.454,28.669M66.78,30.444C77.259,36.483 79.713,40.918 72.688,41.121C70.079,41.197 70.003,41.215 69.193,41.952C67.233,43.733 66.433,47.56 67.528,49.917C68.471,51.948 68.948,52.238 72.191,52.753C74.863,53.178 76.602,54.105 78.879,56.315C83.242,60.55 81.621,61.959 72.202,62.121C64.931,62.245 65.118,62.387 64.151,56C62.763,46.827 62.441,43.719 62.184,37.028C62.155,36.233 62.033,34.646 61.917,33.5C61.372,28.162 62.065,27.726 66.78,30.444M318.262,28.916C314.803,29.502 313.043,30.568 311.381,33.083C309.216,36.36 309.148,39.901 311.171,44.106C311.967,45.761 314.407,48.364 317.214,50.551C322.835,54.932 333.332,64.471 335.374,67.057C336.42,68.381 336.152,68.996 334.638,68.744C332.285,68.353 325.685,65.955 323.094,64.55C322.319,64.13 320.419,63.213 318.871,62.512C317.321,61.811 315.011,60.647 313.736,59.924C312.461,59.201 310.673,58.205 309.762,57.709C308.85,57.214 307.208,56.255 306.111,55.579C303.736,54.116 302.805,53.799 302.153,54.229C300.222,55.501 302.359,61.176 305.747,63.776C306.315,64.212 307.228,64.992 307.774,65.51C309.104,66.767 311.369,68.499 313.037,69.533C313.786,69.997 314.921,70.773 315.558,71.258C318.018,73.13 323.874,76.051 327.068,76.999C327.751,77.202 329.167,77.765 330.214,78.25C338.36,82.02 341.208,82.248 344.917,79.424C346.75,78.027 347.49,76.569 347.878,73.589C348.463,69.084 347.714,66.623 344.399,62.167C340.5,56.925 335.642,52.32 324.416,43.229C321.414,40.798 320.937,40.19 321.574,39.609C322.075,39.153 326.047,39.426 328.393,40.077C332.407,41.19 335.086,37.321 333.181,33.161C331.606,29.721 324.853,27.8 318.262,28.916M363.253,28.841C354.675,29.333 351.893,31.054 350.923,36.468C350.288,40.01 353.648,44.06 359.871,47.252C360.184,47.412 361.484,48.236 362.761,49.082C364.039,49.929 365.381,50.775 365.742,50.963C369.695,53.015 379.234,60.926 380.01,62.795C380.717,64.496 378.775,64.819 367.809,64.83C364.572,64.833 362.346,64.904 361.942,65.017C359.145,65.798 360.135,69.44 363.668,71.361C364.261,71.683 365.092,72.149 365.517,72.396C366.118,72.746 366.712,72.898 368.194,73.083C369.241,73.214 370.942,73.546 371.976,73.822C373.774,74.301 374.732,74.426 379.733,74.834C384.841,75.251 388.379,72.575 389.689,67.306C391.309,60.781 388.544,55.347 379.816,47.903C378.832,47.063 377.272,45.9 372.942,42.774C368.193,39.345 368.196,38.979 372.969,39.336C376.651,39.611 377.802,39.349 378.978,37.967C380.923,35.679 380.319,31.352 377.876,30.067C375.844,28.999 369.605,28.476 363.253,28.841"/>
        </g>
    </g>
</svg>
