<svg width="200" height="30" viewBox="0 0 385 84" version="1.1" xmlns="http://www.w3.org/2000/svg" xmlns:xlink="http://www.w3.org/1999/xlink" xml:space="preserve" xmlns:serif="http://www.serif.com/" style="fill-rule:evenodd;clip-rule:evenodd;stroke-linejoin:round;stroke-miterlimit:2;">
    <g id="Artboard1" transform="matrix(1,0,0,1,-6.90762,-1.39735)">
        <rect x="6.908" y="1.397" width="384.81" height="83.443" style="fill:none;"/>
        <g id="svgg" transform="matrix(1,0,0,1,0.907622,0.397345)">
            <path id="path0" d="M39.667,5.663C39.071,5.735 37.91,5.803 37.087,5.814C35.648,5.833 33.017,6.19 29.667,6.823C28.366,7.068 27.577,7.366 25.25,8.49L22.417,9.859L20.612,11.721C18.274,14.133 16.406,16.45 15.329,18.273C14.856,19.074 14.297,19.96 14.087,20.24C11.419,23.808 10.373,31.146 11.257,40.083C11.524,42.784 14.227,49.452 16.2,52.276C18.13,55.039 22.256,59.102 24.467,60.417C25.083,60.783 26.374,61.612 27.335,62.259C28.297,62.906 29.458,63.648 29.917,63.908C30.375,64.168 31.283,64.784 31.934,65.278C32.591,65.776 33.925,66.535 34.934,66.984C35.933,67.429 38.175,68.482 39.917,69.324C43.134,70.88 45.843,72.045 47.5,72.584C48.004,72.748 49.017,73.146 49.75,73.467C55.56,76.013 60.605,76.036 62.86,73.527C66.86,69.078 65.667,65.39 59.542,63.272C58.328,62.853 57.09,62.383 56.792,62.228C56.204,61.923 51.648,59.92 48.833,58.728C46.024,57.539 39.693,54.326 38.321,53.392C37.627,52.92 36.502,52.254 35.821,51.912C28.851,48.407 22.643,41.64 21.57,36.374C20.65,31.863 20.789,30.454 22.423,27.732C25.42,22.738 29.975,20.189 35.959,20.156C40.562,20.131 42.495,19.934 43.583,19.379C46.7,17.789 48.422,14.105 47.276,11.479C47.061,10.986 46.795,10.217 46.684,9.769C45.916,6.649 43.447,5.204 39.667,5.663M156.398,6.006C152.868,7.754 150.245,14.817 151.555,19.048C151.788,19.801 152.03,20.904 152.093,21.5C152.156,22.096 152.386,23.105 152.606,23.743C153.183,25.424 153.615,27.358 153.816,29.167C153.913,30.037 154.294,32.149 154.663,33.86C155.801,39.14 155.242,39.828 152.167,36.928C151.754,36.539 150.854,35.762 150.167,35.202C149.479,34.643 147.567,32.818 145.917,31.148C144.267,29.478 142.136,27.355 141.182,26.431C137.627,22.987 131.512,16.7 130.306,15.25C125.523,9.495 121.519,6.315 119.376,6.567C115.748,6.993 114.167,9.853 114.167,15.986L114.167,18.446L114.973,20.098C116.25,22.714 116.608,23.759 117.08,26.25C117.324,27.533 117.64,29.071 117.783,29.667C117.926,30.262 118.103,31.425 118.176,32.25C118.256,33.155 118.577,34.675 118.985,36.083C119.475,37.77 119.663,38.726 119.665,39.533C119.666,40.245 119.814,41.121 120.073,41.95C120.727,44.04 121.129,45.769 121.499,48.083C121.69,49.275 121.96,50.737 122.099,51.333C122.237,51.929 122.457,53.167 122.587,54.083C122.717,55 122.975,56.762 123.161,58C123.417,59.713 123.498,61.093 123.499,63.781C123.5,65.732 123.575,67.508 123.667,67.751C123.759,67.992 123.913,68.728 124.011,69.387C124.597,73.357 126.972,74.726 130.583,73.175C134.021,71.699 134.994,69.028 134.26,63.083C134.124,61.983 133.934,60.202 133.837,59.124C133.741,58.046 133.555,56.659 133.425,56.041C133.296,55.422 133.105,54.092 133.002,53.083C132.806,51.172 131.482,43.445 131.069,41.806C129.593,35.942 131.459,35.163 135.411,39.993C136.318,41.102 140.208,44.784 142.393,46.602C142.956,47.071 143.788,47.918 144.241,48.486C144.695,49.053 145.557,49.934 146.158,50.444C147.509,51.591 152.305,56.019 155.335,58.917C156.581,60.108 158.089,61.533 158.685,62.083L159.77,63.083L160.784,66.167C161.341,67.862 161.85,69.587 161.914,70C161.978,70.412 162.24,71.612 162.497,72.667C162.754,73.721 163.004,75.12 163.054,75.777C163.295,78.952 166.638,82.164 169.006,81.497C169.755,81.286 172.251,79.365 172.771,78.6C174.477,76.089 174.773,72.296 173.512,69.108C173.252,68.453 172.989,67.579 172.927,67.167C172.865,66.754 172.595,65.667 172.328,64.75C171.785,62.889 171.5,60.9 171.5,58.971C171.5,58.073 171.377,57.291 171.093,56.384C170.87,55.668 170.526,54.446 170.33,53.667C170.133,52.887 169.599,51.093 169.143,49.679C168.025,46.212 167.669,44.647 167.668,43.195C167.667,42.371 167.453,41.042 167.009,39.112C166.648,37.538 166.266,35.725 166.161,35.083C166.056,34.442 165.866,33.392 165.738,32.75C165.609,32.108 165.389,30.796 165.247,29.833C165.106,28.871 164.844,27.466 164.665,26.711C164.487,25.956 164.26,24.643 164.16,23.794C163.93,21.822 163.564,19.771 163.143,18.095C162.96,17.369 162.741,15.906 162.656,14.845C162.461,12.412 162.233,11.291 161.729,10.295C161.51,9.862 161.178,9.096 160.99,8.594C160.202,6.488 157.968,5.229 156.398,6.006M182.048,5.966C179.189,6.993 177.212,9.2 175.843,12.89C172.857,20.939 174.452,25.44 180.78,26.827C182.173,27.132 184.522,27.387 189.843,27.809C191.839,27.967 193.035,28.37 193.694,29.107C196.615,32.372 201.101,40.753 202.092,44.798C202.402,46.061 202.872,47.579 203.138,48.172C203.639,49.288 203.914,50.318 204.095,51.75C204.152,52.208 204.352,53.183 204.538,53.917C204.849,55.138 204.88,55.815 204.905,62L204.933,68.75L205.367,69.799C206.174,71.751 207.266,72.807 208.834,73.151C211.638,73.768 215.591,70.178 216.158,66.5C216.591,63.699 216.221,56.114 215.519,53.395C215.327,52.649 215.057,51.183 214.92,50.137C214.769,48.986 214.371,47.252 213.91,45.743C213.492,44.372 212.935,42.382 212.672,41.321C212.409,40.26 211.839,38.46 211.405,37.321C210.972,36.182 210.411,34.65 210.159,33.917C209.907,33.183 209.527,32.123 209.315,31.56C208.57,29.581 209.057,29.245 213,29.022C223.624,28.42 229.867,24.343 230.771,17.417C231.192,14.187 230.727,12.659 228.544,10.102C226.776,8.032 225.818,8.084 222.583,10.432C218.888,13.113 218.423,13.323 214.851,13.921C209.93,14.746 199.947,14.29 197.782,13.141C197.581,13.034 196.854,12.372 196.167,11.669C191.638,7.037 185.719,4.646 182.048,5.966M255.369,6.876C254.083,7.288 252.4,9.369 250.849,12.465C249.429,15.302 248.861,18.409 248.759,23.917C248.732,25.383 248.586,27.408 248.436,28.417C248.285,29.425 248.092,30.733 248.007,31.322C247.811,32.681 247.495,33.098 246.068,33.883C244.016,35.012 243.257,36.004 242.661,38.333C241.642,42.32 241.969,43.881 244.29,46.105L245.53,47.295L245.461,48.356C245.422,48.939 245.115,50.764 244.777,52.411C244.439,54.059 244.055,56.084 243.924,56.911C243.496,59.614 242.993,61.726 242.454,63.083L241.924,64.417L241.92,67.667C241.914,73.635 243.161,75.598 246.63,75.08C249.947,74.585 252.35,72.054 252.69,68.7C252.769,67.921 253.059,66.581 253.334,65.723C253.608,64.865 253.834,63.92 253.834,63.623C253.834,63.326 254.027,62.033 254.263,60.75C254.498,59.467 254.792,57.725 254.916,56.879C255.04,56.033 255.253,54.945 255.39,54.462C255.527,53.979 255.729,53.133 255.839,52.583C256.231,50.623 256.809,49.947 258.072,49.973C259.11,49.993 263.632,51.538 265.901,52.646C267.01,53.188 268.142,53.68 268.417,53.741C268.692,53.801 269.546,54.044 270.315,54.28C271.565,54.665 271.856,54.696 273.065,54.576C276.515,54.231 276.445,54.171 278.924,59.583C281.09,64.31 281.723,65.959 283.945,72.666C286.627,80.762 287.06,81.331 290.145,80.835C295.789,79.926 297.609,74.839 294.975,67.333C294.605,66.279 294.08,64.704 293.808,63.833C292.844,60.753 290.644,55.441 288.664,51.417C287.942,49.95 286.831,47.625 286.194,46.25C285.117,43.924 284.477,42.731 281.86,38.167C281.308,37.204 280.301,35.404 279.622,34.167C278.943,32.929 278.124,31.504 277.801,31C277.479,30.496 277.051,29.711 276.851,29.257C276.651,28.802 276.091,27.902 275.607,27.257C275.122,26.611 274.51,25.708 274.247,25.25C273.006,23.089 269.248,17.614 268.294,16.577C267.707,15.939 266.899,14.967 266.498,14.417C262.895,9.473 257.877,6.072 255.369,6.876M79.86,9.879C76.492,10.956 75.266,19.579 78.11,22.184C79.191,23.174 82.481,24.907 84.417,25.506C85.368,25.8 86.278,26.282 87.244,27.003C87.706,27.348 88.465,27.821 88.931,28.054C89.398,28.287 90.11,28.73 90.515,29.038C90.919,29.345 91.625,29.852 92.083,30.165C92.542,30.477 93.517,31.3 94.25,31.994C94.983,32.688 96.025,33.629 96.565,34.084C97.914,35.224 100.572,38.189 101.419,39.5C101.804,40.096 102.434,40.958 102.819,41.417C103.503,42.23 103.908,42.996 105.634,46.75C107.018,49.758 106.822,51.174 104.904,52.023C103.233,52.762 99.664,52.721 96.417,51.926C95.5,51.701 94.13,51.399 93.372,51.253C89.071,50.428 81.778,46.623 78.399,43.443C74.291,39.576 72.195,35.607 72.039,31.404L71.958,29.225L72.658,27.487C73.366,25.729 73.728,23.421 73.745,20.555C73.757,18.446 71.105,17.717 68.794,19.194C66.54,20.635 64.926,23.217 64.09,26.722C63.868,27.654 63.518,28.867 63.313,29.417C62.804,30.784 62.656,36.486 63.067,38.898C64.246,45.812 68.257,52.316 74.34,57.177C76.002,58.505 80.418,61.5 80.715,61.5C80.81,61.5 81.426,61.835 82.083,62.244C83.557,63.163 84.95,63.794 87.471,64.685C88.541,65.063 90.054,65.697 90.833,66.093C93.356,67.375 99.664,68.222 103.246,67.76C111.393,66.71 115.955,62.287 117.182,54.25C117.661,51.114 117.667,49.47 117.21,47.5C117.008,46.629 116.687,45.092 116.497,44.083C115.732,40.02 112.939,34.517 108.461,28.25C107.382,26.741 102.373,21.575 100.534,20.075C97.436,17.549 94.448,15.401 90.201,12.648C87.318,10.779 81.726,9.282 79.86,9.879M343.492,11.727C341.397,12.178 339.669,13.497 339.083,15.093C338.917,15.546 338.301,17.105 337.714,18.558C336.47,21.638 336.358,22.282 336.74,24.166C337.427,27.556 339.153,29.062 343.917,30.427C346.61,31.198 348.602,32.113 349.607,33.04C351.604,34.881 357.166,46.272 358.499,51.25C358.621,51.708 359.048,52.959 359.448,54.03C359.847,55.101 360.252,56.414 360.349,56.947C360.445,57.48 360.774,59.117 361.079,60.583C362.345,66.657 362.749,69.593 362.501,70.901C362.104,72.992 362.093,75.299 362.472,76.778C362.656,77.496 362.86,78.458 362.924,78.917C363.367,82.071 366.933,84.221 369.577,82.927C372.609,81.443 374.422,78.095 374.41,74C374.402,71.067 374.047,66.119 373.754,64.833C373.618,64.237 373.505,63.525 373.504,63.25C373.498,62.485 372.354,56.069 371.987,54.75C370.59,49.72 370.114,47.936 369.911,46.972C369.782,46.36 369.255,44.823 368.739,43.555C367.544,40.616 366.685,37.804 366.675,36.796C366.662,35.546 366.978,35.42 370.16,35.404C372.68,35.391 375.792,35.095 378.669,34.593C382.65,33.898 386.873,30.228 388.074,26.419C389.757,21.079 388.484,16.04 385.127,14.758C383.667,14.2 382.358,14.924 380.5,17.318C378.385,20.042 372.379,21.304 366.159,20.331C356.193,18.773 355.383,18.539 353.167,16.583C348.619,12.57 345.906,11.208 343.492,11.727M313.25,14.758C312.517,14.989 311.193,15.4 310.309,15.673C306.596,16.816 299.336,24.549 297.682,29.122C297.425,29.834 296.893,31.054 296.5,31.833C294.154,36.49 292.929,43.945 293.579,49.609C293.714,50.787 293.897,52.66 293.985,53.773C294.51,60.396 300.124,67.727 308.72,73.012C311.794,74.902 313.575,75.878 314.5,76.178C315.096,76.372 316.524,76.97 317.674,77.506C323.889,80.404 330.936,80.962 336.616,79.005C337.959,78.543 339.417,77.934 339.855,77.653C340.998,76.919 344.323,73.407 344.9,72.324C345.167,71.825 345.626,71.079 345.921,70.667C347.081,69.044 347.375,67.542 346.764,66.36C346.073,65.025 343.644,64.868 340.13,65.933C338.018,66.573 332.96,66.697 329.963,66.182C323.865,65.136 317.241,61.766 310.49,56.276C305.816,52.475 303.404,45.902 304.974,41.25C305.16,40.7 305.475,39.688 305.674,39C306.405,36.481 306.811,35.831 309.899,32.247C311.527,30.356 314.243,29.598 318.798,29.761C322.798,29.904 323.114,29.816 324.475,28.181C329.591,22.033 321.37,12.202 313.25,14.758M260.866,28.792C262.813,29.926 265.394,35.009 264.28,35.517C263.346,35.942 259.489,34.705 259.033,33.833C258.431,32.68 259.411,28.5 260.284,28.5C260.329,28.5 260.591,28.631 260.866,28.792"/>
        </g>
    </g>
</svg>
