<svg id="svg" version="1.1" width="200" height="30" viewBox="0, 0, 400,89.68077208611729" xmlns="http://www.w3.org/2000/svg">
  <g id="svgg">
    <path id="path0" d="M39.667 5.663 C 39.071 5.735,37.910 5.803,37.087 5.814 C 35.648 5.833,33.017 6.190,29.667 6.823 C 28.366 7.068,27.577 7.366,25.250 8.490 L 22.417 9.859 20.612 11.721 C 18.274 14.133,16.406 16.450,15.329 18.273 C 14.856 19.074,14.297 19.960,14.087 20.240 C 11.419 23.808,10.373 31.146,11.257 40.083 C 11.524 42.784,14.227 49.452,16.200 52.276 C 18.130 55.039,22.256 59.102,24.467 60.417 C 25.083 60.783,26.374 61.612,27.335 62.259 C 28.297 62.906,29.458 63.648,29.917 63.908 C 30.375 64.168,31.283 64.784,31.934 65.278 C 32.591 65.776,33.925 66.535,34.934 66.984 C 35.933 67.429,38.175 68.482,39.917 69.324 C 43.134 70.880,45.843 72.045,47.500 72.584 C 48.004 72.748,49.017 73.146,49.750 73.467 C 55.560 76.013,60.605 76.036,62.860 73.527 C 66.860 69.078,65.667 65.390,59.542 63.272 C 58.328 62.853,57.090 62.383,56.792 62.228 C 56.204 61.923,51.648 59.920,48.833 58.728 C 46.024 57.539,39.693 54.326,38.321 53.392 C 37.627 52.920,36.502 52.254,35.821 51.912 C 28.851 48.407,22.643 41.640,21.570 36.374 C 20.650 31.863,20.789 30.454,22.423 27.732 C 25.420 22.738,29.975 20.189,35.959 20.156 C 40.562 20.131,42.495 19.934,43.583 19.379 C 46.700 17.789,48.422 14.105,47.276 11.479 C 47.061 10.986,46.795 10.217,46.684 9.769 C 45.916 6.649,43.447 5.204,39.667 5.663 M156.398 6.006 C 152.868 7.754,150.245 14.817,151.555 19.048 C 151.788 19.801,152.030 20.904,152.093 21.500 C 152.156 22.096,152.386 23.105,152.606 23.743 C 153.183 25.424,153.615 27.358,153.816 29.167 C 153.913 30.037,154.294 32.149,154.663 33.860 C 155.801 39.140,155.242 39.828,152.167 36.928 C 151.754 36.539,150.854 35.762,150.167 35.202 C 149.479 34.643,147.567 32.818,145.917 31.148 C 144.267 29.478,142.136 27.355,141.182 26.431 C 137.627 22.987,131.512 16.700,130.306 15.250 C 125.523 9.495,121.519 6.315,119.376 6.567 C 115.748 6.993,114.167 9.853,114.167 15.986 L 114.167 18.446 114.973 20.098 C 116.250 22.714,116.608 23.759,117.080 26.250 C 117.324 27.533,117.640 29.071,117.783 29.667 C 117.926 30.262,118.103 31.425,118.176 32.250 C 118.256 33.155,118.577 34.675,118.985 36.083 C 119.475 37.770,119.663 38.726,119.665 39.533 C 119.666 40.245,119.814 41.121,120.073 41.950 C 120.727 44.040,121.129 45.769,121.499 48.083 C 121.690 49.275,121.960 50.737,122.099 51.333 C 122.237 51.929,122.457 53.167,122.587 54.083 C 122.717 55.000,122.975 56.762,123.161 58.000 C 123.417 59.713,123.498 61.093,123.499 63.781 C 123.500 65.732,123.575 67.508,123.667 67.751 C 123.759 67.992,123.913 68.728,124.011 69.387 C 124.597 73.357,126.972 74.726,130.583 73.175 C 134.021 71.699,134.994 69.028,134.260 63.083 C 134.124 61.983,133.934 60.202,133.837 59.124 C 133.741 58.046,133.555 56.659,133.425 56.041 C 133.296 55.422,133.105 54.092,133.002 53.083 C 132.806 51.172,131.482 43.445,131.069 41.806 C 129.593 35.942,131.459 35.163,135.411 39.993 C 136.318 41.102,140.208 44.784,142.393 46.602 C 142.956 47.071,143.788 47.918,144.241 48.486 C 144.695 49.053,145.557 49.934,146.158 50.444 C 147.509 51.591,152.305 56.019,155.335 58.917 C 156.581 60.108,158.089 61.533,158.685 62.083 L 159.770 63.083 160.784 66.167 C 161.341 67.862,161.850 69.587,161.914 70.000 C 161.978 70.412,162.240 71.612,162.497 72.667 C 162.754 73.721,163.004 75.120,163.054 75.777 C 163.295 78.952,166.638 82.164,169.006 81.497 C 169.755 81.286,172.251 79.365,172.771 78.600 C 174.477 76.089,174.773 72.296,173.512 69.108 C 173.252 68.453,172.989 67.579,172.927 67.167 C 172.865 66.754,172.595 65.667,172.328 64.750 C 171.785 62.889,171.500 60.900,171.500 58.971 C 171.500 58.073,171.377 57.291,171.093 56.384 C 170.870 55.668,170.526 54.446,170.330 53.667 C 170.133 52.887,169.599 51.093,169.143 49.679 C 168.025 46.212,167.669 44.647,167.668 43.195 C 167.667 42.371,167.453 41.042,167.009 39.112 C 166.648 37.538,166.266 35.725,166.161 35.083 C 166.056 34.442,165.866 33.392,165.738 32.750 C 165.609 32.108,165.389 30.796,165.247 29.833 C 165.106 28.871,164.844 27.466,164.665 26.711 C 164.487 25.956,164.260 24.643,164.160 23.794 C 163.930 21.822,163.564 19.771,163.143 18.095 C 162.960 17.369,162.741 15.906,162.656 14.845 C 162.461 12.412,162.233 11.291,161.729 10.295 C 161.510 9.862,161.178 9.096,160.990 8.594 C 160.202 6.488,157.968 5.229,156.398 6.006 M182.048 5.966 C 179.189 6.993,177.212 9.200,175.843 12.890 C 172.857 20.939,174.452 25.440,180.780 26.827 C 182.173 27.132,184.522 27.387,189.843 27.809 C 191.839 27.967,193.035 28.370,193.694 29.107 C 196.615 32.372,201.101 40.753,202.092 44.798 C 202.402 46.061,202.872 47.579,203.138 48.172 C 203.639 49.288,203.914 50.318,204.095 51.750 C 204.152 52.208,204.352 53.183,204.538 53.917 C 204.849 55.138,204.880 55.815,204.905 62.000 L 204.933 68.750 205.367 69.799 C 206.174 71.751,207.266 72.807,208.834 73.151 C 211.638 73.768,215.591 70.178,216.158 66.500 C 216.591 63.699,216.221 56.114,215.519 53.395 C 215.327 52.649,215.057 51.183,214.920 50.137 C 214.769 48.986,214.371 47.252,213.910 45.743 C 213.492 44.372,212.935 42.382,212.672 41.321 C 212.409 40.260,211.839 38.460,211.405 37.321 C 210.972 36.182,210.411 34.650,210.159 33.917 C 209.907 33.183,209.527 32.123,209.315 31.560 C 208.570 29.581,209.057 29.245,213.000 29.022 C 223.624 28.420,229.867 24.343,230.771 17.417 C 231.192 14.187,230.727 12.659,228.544 10.102 C 226.776 8.032,225.818 8.084,222.583 10.432 C 218.888 13.113,218.423 13.323,214.851 13.921 C 209.930 14.746,199.947 14.290,197.782 13.141 C 197.581 13.034,196.854 12.372,196.167 11.669 C 191.638 7.037,185.719 4.646,182.048 5.966 M255.369 6.876 C 254.083 7.288,252.400 9.369,250.849 12.465 C 249.429 15.302,248.861 18.409,248.759 23.917 C 248.732 25.383,248.586 27.408,248.436 28.417 C 248.285 29.425,248.092 30.733,248.007 31.322 C 247.811 32.681,247.495 33.098,246.068 33.883 C 244.016 35.012,243.257 36.004,242.661 38.333 C 241.642 42.320,241.969 43.881,244.290 46.105 L 245.530 47.295 245.461 48.356 C 245.422 48.939,245.115 50.764,244.777 52.411 C 244.439 54.059,244.055 56.084,243.924 56.911 C 243.496 59.614,242.993 61.726,242.454 63.083 L 241.924 64.417 241.920 67.667 C 241.914 73.635,243.161 75.598,246.630 75.080 C 249.947 74.585,252.350 72.054,252.690 68.700 C 252.769 67.921,253.059 66.581,253.334 65.723 C 253.608 64.865,253.834 63.920,253.834 63.623 C 253.834 63.326,254.027 62.033,254.263 60.750 C 254.498 59.467,254.792 57.725,254.916 56.879 C 255.040 56.033,255.253 54.945,255.390 54.462 C 255.527 53.979,255.729 53.133,255.839 52.583 C 256.231 50.623,256.809 49.947,258.072 49.973 C 259.110 49.993,263.632 51.538,265.901 52.646 C 267.010 53.188,268.142 53.680,268.417 53.741 C 268.692 53.801,269.546 54.044,270.315 54.280 C 271.565 54.665,271.856 54.696,273.065 54.576 C 276.515 54.231,276.445 54.171,278.924 59.583 C 281.090 64.310,281.723 65.959,283.945 72.666 C 286.627 80.762,287.060 81.331,290.145 80.835 C 295.789 79.926,297.609 74.839,294.975 67.333 C 294.605 66.279,294.080 64.704,293.808 63.833 C 292.844 60.753,290.644 55.441,288.664 51.417 C 287.942 49.950,286.831 47.625,286.194 46.250 C 285.117 43.924,284.477 42.731,281.860 38.167 C 281.308 37.204,280.301 35.404,279.622 34.167 C 278.943 32.929,278.124 31.504,277.801 31.000 C 277.479 30.496,277.051 29.711,276.851 29.257 C 276.651 28.802,276.091 27.902,275.607 27.257 C 275.122 26.611,274.510 25.708,274.247 25.250 C 273.006 23.089,269.248 17.614,268.294 16.577 C 267.707 15.939,266.899 14.967,266.498 14.417 C 262.895 9.473,257.877 6.072,255.369 6.876 M79.860 9.879 C 76.492 10.956,75.266 19.579,78.110 22.184 C 79.191 23.174,82.481 24.907,84.417 25.506 C 85.368 25.800,86.278 26.282,87.244 27.003 C 87.706 27.348,88.465 27.821,88.931 28.054 C 89.398 28.287,90.110 28.730,90.515 29.038 C 90.919 29.345,91.625 29.852,92.083 30.165 C 92.542 30.477,93.517 31.300,94.250 31.994 C 94.983 32.688,96.025 33.629,96.565 34.084 C 97.914 35.224,100.572 38.189,101.419 39.500 C 101.804 40.096,102.434 40.958,102.819 41.417 C 103.503 42.230,103.908 42.996,105.634 46.750 C 107.018 49.758,106.822 51.174,104.904 52.023 C 103.233 52.762,99.664 52.721,96.417 51.926 C 95.500 51.701,94.130 51.399,93.372 51.253 C 89.071 50.428,81.778 46.623,78.399 43.443 C 74.291 39.576,72.195 35.607,72.039 31.404 L 71.958 29.225 72.658 27.487 C 73.366 25.729,73.728 23.421,73.745 20.555 C 73.757 18.446,71.105 17.717,68.794 19.194 C 66.540 20.635,64.926 23.217,64.090 26.722 C 63.868 27.654,63.518 28.867,63.313 29.417 C 62.804 30.784,62.656 36.486,63.067 38.898 C 64.246 45.812,68.257 52.316,74.340 57.177 C 76.002 58.505,80.418 61.500,80.715 61.500 C 80.810 61.500,81.426 61.835,82.083 62.244 C 83.557 63.163,84.950 63.794,87.471 64.685 C 88.541 65.063,90.054 65.697,90.833 66.093 C 93.356 67.375,99.664 68.222,103.246 67.760 C 111.393 66.710,115.955 62.287,117.182 54.250 C 117.661 51.114,117.667 49.470,117.210 47.500 C 117.008 46.629,116.687 45.092,116.497 44.083 C 115.732 40.020,112.939 34.517,108.461 28.250 C 107.382 26.741,102.373 21.575,100.534 20.075 C 97.436 17.549,94.448 15.401,90.201 12.648 C 87.318 10.779,81.726 9.282,79.860 9.879 M343.492 11.727 C 341.397 12.178,339.669 13.497,339.083 15.093 C 338.917 15.546,338.301 17.105,337.714 18.558 C 336.470 21.638,336.358 22.282,336.740 24.166 C 337.427 27.556,339.153 29.062,343.917 30.427 C 346.610 31.198,348.602 32.113,349.607 33.040 C 351.604 34.881,357.166 46.272,358.499 51.250 C 358.621 51.708,359.048 52.959,359.448 54.030 C 359.847 55.101,360.252 56.414,360.349 56.947 C 360.445 57.480,360.774 59.117,361.079 60.583 C 362.345 66.657,362.749 69.593,362.501 70.901 C 362.104 72.992,362.093 75.299,362.472 76.778 C 362.656 77.496,362.860 78.458,362.924 78.917 C 363.367 82.071,366.933 84.221,369.577 82.927 C 372.609 81.443,374.422 78.095,374.410 74.000 C 374.402 71.067,374.047 66.119,373.754 64.833 C 373.618 64.237,373.505 63.525,373.504 63.250 C 373.498 62.485,372.354 56.069,371.987 54.750 C 370.590 49.720,370.114 47.936,369.911 46.972 C 369.782 46.360,369.255 44.823,368.739 43.555 C 367.544 40.616,366.685 37.804,366.675 36.796 C 366.662 35.546,366.978 35.420,370.160 35.404 C 372.680 35.391,375.792 35.095,378.669 34.593 C 382.650 33.898,386.873 30.228,388.074 26.419 C 389.757 21.079,388.484 16.040,385.127 14.758 C 383.667 14.200,382.358 14.924,380.500 17.318 C 378.385 20.042,372.379 21.304,366.159 20.331 C 356.193 18.773,355.383 18.539,353.167 16.583 C 348.619 12.570,345.906 11.208,343.492 11.727 M313.250 14.758 C 312.517 14.989,311.193 15.400,310.309 15.673 C 306.596 16.816,299.336 24.549,297.682 29.122 C 297.425 29.834,296.893 31.054,296.500 31.833 C 294.154 36.490,292.929 43.945,293.579 49.609 C 293.714 50.787,293.897 52.660,293.985 53.773 C 294.510 60.396,300.124 67.727,308.720 73.012 C 311.794 74.902,313.575 75.878,314.500 76.178 C 315.096 76.372,316.524 76.970,317.674 77.506 C 323.889 80.404,330.936 80.962,336.616 79.005 C 337.959 78.543,339.417 77.934,339.855 77.653 C 340.998 76.919,344.323 73.407,344.900 72.324 C 345.167 71.825,345.626 71.079,345.921 70.667 C 347.081 69.044,347.375 67.542,346.764 66.360 C 346.073 65.025,343.644 64.868,340.130 65.933 C 338.018 66.573,332.960 66.697,329.963 66.182 C 323.865 65.136,317.241 61.766,310.490 56.276 C 305.816 52.475,303.404 45.902,304.974 41.250 C 305.160 40.700,305.475 39.688,305.674 39.000 C 306.405 36.481,306.811 35.831,309.899 32.247 C 311.527 30.356,314.243 29.598,318.798 29.761 C 322.798 29.904,323.114 29.816,324.475 28.181 C 329.591 22.033,321.370 12.202,313.250 14.758 M260.866 28.792 C 262.813 29.926,265.394 35.009,264.280 35.517 C 263.346 35.942,259.489 34.705,259.033 33.833 C 258.431 32.680,259.411 28.500,260.284 28.500 C 260.329 28.500,260.591 28.631,260.866 28.792 " stroke="none" fill="#000000" fill-rule="evenodd"/>
  </g>
</svg>