<svg id="svg" version="1.1" width="200" height="30" viewBox="0, 0, 400,175.20661157024793" xmlns="http://www.w3.org/2000/svg">
  <g id="svgg" style="" transform="matrix(1, 0, 0, 0.998706, 0, 0.226658)">
    <path id="path0" d="M23.741 12.269 C 23.087 12.470,22.439 13.066,21.701 14.146 C 21.387 14.605,20.838 15.353,20.480 15.808 C 19.828 16.639,19.393 17.774,18.511 20.950 L 18.069 22.539 18.227 29.097 C 18.474 39.378,19.236 45.819,20.683 49.847 C 20.890 50.425,21.123 51.533,21.200 52.309 C 21.276 53.085,21.616 54.622,21.953 55.725 C 22.926 58.904,23.667 61.767,24.103 64.039 C 24.325 65.195,24.787 66.929,25.129 67.893 C 25.472 68.857,25.753 69.772,25.754 69.927 C 25.755 70.082,25.994 71.039,26.284 72.053 C 27.199 75.244,26.695 75.562,21.813 74.876 C 17.088 74.212,15.945 75.341,14.953 81.659 C 14.878 82.135,14.979 82.530,15.375 83.323 C 15.661 83.895,16.033 84.796,16.202 85.326 C 16.893 87.494,17.819 88.450,20.046 89.291 C 20.729 89.548,22.045 90.137,22.971 90.598 C 24.191 91.206,25.302 91.589,27.001 91.988 C 30.527 92.817,32.439 93.473,32.981 94.040 C 33.692 94.782,36.124 100.990,38.285 107.578 C 39.513 111.322,39.580 111.517,42.004 118.353 C 42.823 120.666,43.634 123.071,43.804 123.697 C 43.975 124.323,44.509 126.255,44.990 127.989 C 45.472 129.724,45.924 131.498,45.994 131.932 C 46.064 132.365,46.266 133.193,46.443 133.771 C 46.619 134.350,46.884 135.632,47.031 136.621 C 47.177 137.609,47.541 139.502,47.839 140.826 C 48.136 142.149,48.424 143.784,48.479 144.459 L 48.578 145.686 49.913 146.955 C 51.437 148.404,52.146 148.803,53.896 149.198 C 56.091 149.694,57.037 148.860,59.330 144.412 L 60.710 141.736 60.663 138.717 C 60.633 136.761,60.528 135.390,60.366 134.823 C 60.228 134.341,60.062 133.316,59.997 132.545 C 59.860 130.937,58.984 127.055,58.583 126.279 C 58.434 125.991,57.922 124.169,57.444 122.230 C 56.967 120.290,56.349 117.954,56.072 117.039 C 55.795 116.124,55.445 114.835,55.295 114.176 C 55.144 113.516,54.704 112.254,54.317 111.371 C 53.325 109.109,52.180 105.277,52.030 103.718 C 51.922 102.596,51.743 102.073,50.832 100.220 C 48.660 95.801,49.438 95.221,55.541 96.708 C 56.264 96.884,57.689 97.074,58.709 97.131 C 59.754 97.189,61.053 97.383,61.687 97.576 C 62.306 97.765,63.325 98.006,63.951 98.112 C 66.336 98.517,68.812 99.033,69.908 99.355 C 71.213 99.739,74.484 100.154,78.082 100.394 C 84.204 100.801,86.548 101.845,87.330 104.509 C 88.164 107.352,88.628 109.093,88.826 110.118 C 88.937 110.696,89.254 111.879,89.530 112.746 C 90.525 115.874,91.923 122.737,92.166 125.686 C 92.349 127.901,92.775 131.060,93.039 132.158 C 93.137 132.563,93.291 134.057,93.383 135.476 C 93.587 138.661,93.861 139.407,95.321 140.759 C 98.743 143.927,102.493 143.096,104.257 138.780 C 104.556 138.049,105.071 136.811,105.401 136.030 C 105.952 134.725,106.001 134.465,106.001 132.818 C 106.001 131.693,106.111 130.613,106.296 129.918 C 106.573 128.880,106.573 128.724,106.296 127.436 C 106.134 126.680,105.920 125.063,105.819 123.841 C 105.711 122.520,105.463 121.021,105.209 120.144 C 104.974 119.333,104.663 117.825,104.518 116.794 C 104.373 115.763,103.860 113.327,103.377 111.380 C 102.895 109.433,102.429 107.326,102.342 106.697 C 102.255 106.068,101.829 104.491,101.396 103.193 C 100.963 101.895,100.519 100.255,100.410 99.549 C 100.301 98.843,99.937 97.563,99.602 96.705 C 99.267 95.847,98.605 93.547,98.131 91.593 C 97.657 89.640,97.030 87.293,96.738 86.378 C 96.445 85.462,96.122 84.161,96.020 83.487 C 95.740 81.633,95.041 78.910,93.997 75.602 C 93.479 73.964,93.002 72.230,92.936 71.748 C 92.870 71.266,92.588 70.244,92.311 69.477 C 92.033 68.709,91.680 67.409,91.526 66.587 C 91.372 65.764,90.985 64.460,90.667 63.689 C 90.348 62.918,89.964 61.689,89.814 60.958 C 89.664 60.228,89.311 58.730,89.032 57.629 C 88.752 56.529,88.469 54.919,88.403 54.052 C 88.273 52.325,86.940 45.903,86.272 43.782 C 85.854 42.456,85.545 41.924,84.600 40.907 C 84.330 40.616,83.870 39.885,83.579 39.284 C 81.167 34.306,73.733 39.912,73.173 47.131 C 72.835 51.481,73.027 54.196,73.869 57.000 C 74.428 58.863,75.418 63.004,75.677 64.564 C 75.789 65.239,76.068 66.421,76.296 67.192 C 76.525 67.963,77.006 69.816,77.366 71.310 C 77.726 72.803,78.166 74.367,78.344 74.784 C 79.297 77.016,79.605 79.406,78.982 79.739 C 78.313 80.097,73.953 79.846,72.361 79.357 C 72.024 79.254,70.561 79.101,69.110 79.019 C 67.574 78.931,65.891 78.724,65.080 78.522 C 63.280 78.075,61.940 77.921,60.096 77.951 C 57.900 77.987,54.464 77.661,50.898 77.077 C 49.163 76.793,46.812 76.491,45.673 76.407 C 42.637 76.181,42.081 75.401,41.355 70.346 C 41.259 69.671,40.852 68.213,40.451 67.105 C 39.068 63.277,38.387 61.228,37.830 59.220 C 37.523 58.112,37.049 56.407,36.777 55.432 C 36.505 54.457,36.196 53.116,36.090 52.453 C 35.985 51.791,35.633 50.302,35.309 49.146 C 34.984 47.989,34.631 46.555,34.524 45.959 C 34.417 45.362,34.172 44.419,33.981 43.862 C 33.789 43.305,33.436 41.765,33.196 40.440 C 32.956 39.116,32.692 37.852,32.610 37.632 C 32.297 36.794,32.226 35.191,32.423 33.433 C 32.599 31.877,32.587 31.407,32.348 30.248 C 32.133 29.209,32.091 28.346,32.171 26.578 C 32.240 25.042,32.205 24.002,32.068 23.478 C 31.954 23.044,31.802 21.664,31.730 20.412 C 31.564 17.550,31.364 17.128,29.018 14.710 C 26.852 12.477,25.340 11.778,23.741 12.269 M270.715 30.588 C 267.581 31.431,265.297 32.923,264.905 34.382 C 264.471 35.997,264.162 36.644,263.628 37.055 C 263.324 37.289,262.730 37.739,262.308 38.057 C 261.404 38.736,261.129 39.214,260.160 41.787 C 258.073 47.334,257.860 49.161,258.929 52.331 C 259.609 54.345,259.846 58.091,259.409 59.921 C 259.260 60.548,259.137 61.347,259.135 61.698 C 259.128 63.609,257.409 68.507,256.469 69.298 C 255.059 70.484,252.494 69.753,246.005 66.316 C 245.000 65.784,243.620 65.185,242.939 64.984 C 242.257 64.783,241.148 64.323,240.473 63.961 C 239.799 63.599,238.971 63.198,238.633 63.069 C 238.296 62.941,237.587 62.549,237.057 62.199 C 234.679 60.628,230.700 58.582,228.559 57.831 C 226.837 57.226,221.627 54.705,219.536 53.465 C 218.813 53.036,216.960 52.040,215.418 51.251 C 213.876 50.462,212.181 49.541,211.651 49.205 C 211.121 48.868,210.136 48.377,209.461 48.113 C 208.787 47.850,207.556 47.251,206.727 46.783 C 205.898 46.315,204.597 45.721,203.836 45.462 C 203.076 45.203,201.891 44.646,201.203 44.222 C 192.501 38.862,186.594 40.256,185.259 47.984 C 185.116 48.816,184.798 50.285,184.554 51.248 C 183.645 54.830,185.506 58.956,188.962 61.021 C 190.856 62.152,191.788 63.454,192.804 66.386 C 193.152 67.388,193.946 69.201,194.569 70.416 C 196.755 74.677,197.987 77.972,199.126 82.610 C 199.562 84.386,200.074 86.199,200.262 86.640 C 200.451 87.080,200.727 88.196,200.876 89.120 C 201.025 90.044,201.458 91.628,201.839 92.640 C 202.221 93.651,202.620 94.963,202.726 95.553 C 202.832 96.144,203.137 97.179,203.405 97.854 C 203.994 99.340,204.940 102.640,205.086 103.723 C 205.187 104.463,205.562 106.181,206.643 110.850 C 206.892 111.926,207.096 113.121,207.096 113.505 C 207.096 114.399,207.749 117.720,208.665 121.482 C 209.060 123.107,209.464 125.275,209.563 126.301 C 209.662 127.326,209.904 128.661,210.101 129.268 C 210.298 129.875,210.526 131.097,210.608 131.984 C 210.700 132.988,210.917 133.993,211.183 134.647 C 211.418 135.226,211.662 136.232,211.724 136.883 C 211.786 137.535,212.067 138.692,212.348 139.454 C 212.629 140.217,212.983 141.497,213.134 142.300 C 213.285 143.102,213.558 144.231,213.741 144.809 C 213.924 145.388,214.115 146.374,214.166 147.001 C 214.271 148.300,215.272 151.203,216.566 153.963 C 217.029 154.950,217.539 156.210,217.700 156.764 C 219.844 164.139,229.111 162.209,230.511 154.095 C 231.357 149.191,230.690 145.540,227.101 135.436 C 226.590 133.997,226.337 132.938,226.215 131.733 C 226.096 130.553,225.916 129.789,225.616 129.193 C 225.381 128.724,225.098 127.814,224.987 127.172 C 224.877 126.530,224.670 125.672,224.527 125.267 C 224.383 124.861,224.266 123.957,224.266 123.259 C 224.266 122.560,224.149 121.656,224.006 121.250 C 223.596 120.088,222.856 116.738,222.672 115.210 C 222.580 114.445,222.353 113.222,222.167 112.494 C 221.981 111.766,221.739 110.578,221.629 109.855 C 221.519 109.133,221.239 107.753,221.007 106.789 C 220.774 105.826,220.424 104.091,220.229 102.935 C 220.034 101.778,219.762 100.438,219.626 99.956 C 219.490 99.474,219.209 98.292,219.003 97.328 C 218.796 96.364,218.327 94.669,217.961 93.561 C 217.595 92.453,217.242 91.270,217.177 90.933 C 217.112 90.596,216.637 89.098,216.121 87.604 C 215.605 86.110,215.061 84.179,214.912 83.311 C 214.763 82.444,214.398 81.025,214.101 80.158 C 212.959 76.821,212.585 73.907,213.224 73.328 C 213.740 72.862,214.422 73.044,217.374 74.437 C 220.622 75.969,223.488 77.250,225.756 78.181 C 226.719 78.577,227.953 79.202,228.498 79.569 C 229.510 80.250,231.105 80.940,233.290 81.643 C 233.964 81.859,235.714 82.580,237.178 83.244 C 238.642 83.907,239.889 84.450,239.949 84.450 C 240.178 84.450,243.276 86.070,244.003 86.570 C 245.389 87.524,245.618 88.613,244.819 90.456 C 242.346 96.166,248.030 103.718,252.462 100.611 C 252.999 100.235,254.012 99.627,254.712 99.261 C 255.700 98.745,256.184 98.347,256.863 97.494 C 258.124 95.909,259.526 94.689,260.488 94.341 C 262.616 93.569,263.228 93.191,264.741 91.711 C 266.290 90.194,267.005 89.139,267.346 87.867 C 268.316 84.249,268.423 83.581,268.396 81.327 L 268.369 79.073 269.255 77.327 C 269.743 76.367,270.428 74.761,270.777 73.758 C 271.611 71.362,272.135 70.818,272.840 71.616 C 273.131 71.945,275.112 76.779,275.552 78.230 C 275.698 78.712,276.085 79.639,276.413 80.290 C 277.200 81.853,278.996 86.680,279.630 88.939 C 279.908 89.929,280.500 91.906,280.946 93.332 C 281.391 94.759,281.956 96.597,282.201 97.416 C 282.446 98.235,283.046 99.851,283.533 101.007 C 284.434 103.145,285.289 106.090,286.380 110.819 C 286.714 112.265,287.179 114.078,287.414 114.849 C 288.023 116.848,289.619 123.319,289.619 123.789 C 289.619 124.006,289.816 124.943,290.057 125.870 C 290.298 126.797,290.498 127.929,290.503 128.386 C 290.507 128.842,290.583 129.571,290.672 130.004 C 290.761 130.438,290.914 131.471,291.013 132.301 C 291.112 133.130,291.315 134.154,291.464 134.576 C 291.613 134.998,291.842 136.251,291.974 137.361 C 292.118 138.580,292.364 139.725,292.596 140.254 C 292.822 140.773,293.039 141.768,293.128 142.694 C 293.288 144.372,293.584 145.093,295.150 147.618 C 295.570 148.295,296.156 149.436,296.452 150.153 C 296.748 150.870,297.177 151.777,297.407 152.169 C 297.636 152.560,298.032 153.522,298.286 154.307 C 298.539 155.091,299.072 156.231,299.470 156.841 C 300.656 158.661,301.186 160.110,301.303 161.854 C 301.518 165.031,304.404 167.438,307.822 167.289 C 311.879 167.114,315.691 162.837,315.743 158.402 C 315.750 157.864,315.835 156.597,315.934 155.585 L 316.112 153.745 315.145 150.726 C 314.463 148.601,313.914 147.253,313.290 146.171 C 312.802 145.326,312.173 144.002,311.891 143.229 C 311.609 142.456,311.098 141.353,310.755 140.776 C 309.261 138.263,307.503 133.493,306.798 130.036 C 306.608 129.103,306.299 127.946,306.112 127.464 C 305.925 126.982,305.719 126.193,305.654 125.712 C 305.468 124.338,304.701 120.547,304.414 119.580 C 304.271 119.098,304.074 118.191,303.977 117.565 C 303.880 116.938,303.612 115.834,303.382 115.112 C 303.119 114.285,302.898 112.985,302.785 111.608 C 302.591 109.238,302.246 107.904,301.166 105.355 C 300.442 103.646,299.386 100.475,298.202 96.452 C 297.805 95.103,297.201 93.211,296.860 92.247 C 295.881 89.476,295.084 86.786,294.679 84.888 C 294.473 83.925,294.081 82.638,293.807 82.029 C 293.533 81.420,293.222 80.435,293.115 79.839 C 293.007 79.243,292.614 78.101,292.240 77.300 C 291.534 75.790,290.484 72.631,290.132 70.958 C 290.020 70.429,289.182 68.143,288.270 65.878 C 287.357 63.614,286.274 60.775,285.862 59.571 C 285.451 58.366,284.873 56.710,284.579 55.891 C 284.285 55.072,283.756 53.456,283.403 52.300 C 282.769 50.222,282.221 48.698,280.757 44.941 C 280.344 43.881,279.834 42.422,279.623 41.700 C 279.413 40.977,278.823 39.552,278.311 38.532 C 277.800 37.513,277.250 36.212,277.088 35.641 C 276.740 34.407,276.344 33.763,274.920 32.113 C 273.411 30.363,272.619 30.076,270.715 30.588 M342.680 36.618 C 339.999 36.948,337.660 37.829,334.987 39.516 C 331.517 41.706,324.135 50.782,324.135 52.857 C 324.135 52.949,323.358 55.384,322.409 58.269 C 320.813 63.117,320.666 63.678,320.472 65.703 C 320.356 66.908,320.117 68.524,319.942 69.295 C 319.370 71.801,319.143 74.899,319.375 77.038 C 319.752 80.518,319.632 80.778,317.331 81.463 C 315.402 82.037,311.731 85.181,311.285 86.640 C 310.938 87.775,310.696 90.822,310.811 92.609 C 310.992 95.418,311.357 95.877,314.055 96.704 C 314.726 96.909,316.184 97.419,317.296 97.836 C 318.407 98.254,319.899 98.728,320.610 98.889 C 323.086 99.451,323.190 99.581,324.135 103.305 C 324.517 104.812,325.258 107.159,325.781 108.520 C 326.304 109.881,326.902 111.501,327.110 112.121 C 327.630 113.668,328.071 114.495,329.034 115.725 C 329.486 116.303,330.162 117.289,330.535 117.915 C 331.400 119.364,332.795 121.353,333.423 122.032 C 333.691 122.322,334.186 122.992,334.523 123.522 C 335.221 124.618,335.549 124.935,337.631 126.536 C 339.038 127.618,341.575 130.131,342.416 131.277 C 342.624 131.561,343.898 132.527,345.247 133.423 C 346.597 134.320,348.292 135.555,349.014 136.168 C 353.969 140.372,358.886 143.346,363.732 145.071 C 365.033 145.534,366.925 146.307,367.937 146.788 C 372.206 148.820,372.474 148.921,374.086 149.104 C 374.941 149.201,376.135 149.397,376.738 149.539 C 378.978 150.067,382.216 149.854,386.208 148.915 C 389.388 148.168,389.064 148.448,390.815 144.920 C 391.659 143.221,392.617 141.387,392.945 140.844 C 393.821 139.395,394.792 135.917,394.561 135.057 C 394.198 133.709,392.473 133.024,390.022 133.254 C 387.047 133.534,386.143 133.439,382.491 132.467 C 376.485 130.868,369.307 127.570,364.871 124.370 C 364.293 123.953,362.928 123.082,361.839 122.435 C 360.749 121.787,359.291 120.846,358.597 120.344 C 357.418 119.489,356.780 118.960,352.634 115.398 C 349.076 112.342,343.099 106.065,342.286 104.529 C 340.966 102.039,343.462 101.126,347.343 102.680 C 348.693 103.221,348.726 103.225,350.145 103.024 C 351.199 102.874,351.941 102.870,352.938 103.009 C 355.327 103.341,355.692 103.289,356.933 102.439 C 357.543 102.022,358.751 101.314,359.620 100.865 C 364.480 98.355,366.004 94.897,364.071 90.767 C 363.218 88.943,358.966 84.774,357.539 84.361 C 356.976 84.199,356.102 83.876,355.597 83.645 C 355.092 83.414,354.173 83.180,353.555 83.126 C 352.937 83.071,351.524 82.840,350.416 82.612 C 345.933 81.688,344.571 81.490,339.641 81.042 C 335.528 80.668,334.413 80.205,333.990 78.699 C 333.671 77.559,333.844 71.633,334.242 70.083 C 334.592 68.719,335.029 66.682,335.530 64.080 C 335.981 61.739,338.030 58.469,339.729 57.380 C 340.383 56.961,340.971 56.533,341.035 56.429 C 342.192 54.558,344.754 55.995,346.536 59.515 C 347.117 60.663,348.657 66.437,348.661 67.485 C 348.668 69.027,349.371 69.178,349.792 67.729 C 350.119 66.606,350.518 66.268,352.296 65.609 C 354.493 64.795,354.570 64.635,356.642 56.630 L 357.244 54.303 357.082 51.896 C 356.980 50.381,356.746 48.776,356.449 47.565 C 356.190 46.507,355.906 45.348,355.819 44.989 C 355.660 44.332,354.504 42.884,352.168 40.417 C 349.861 37.980,345.573 36.263,342.680 36.618 M133.132 43.160 C 131.735 43.552,129.852 45.130,128.601 46.956 C 127.061 49.203,125.009 49.606,122.360 48.180 C 120.957 47.426,120.228 47.508,117.789 48.694 C 113.397 50.829,110.708 53.939,110.033 57.664 C 109.852 58.664,109.494 60.429,109.238 61.586 C 108.719 63.929,108.434 68.127,108.669 69.969 C 108.745 70.562,108.876 72.466,108.961 74.201 C 109.108 77.223,109.144 77.438,109.807 79.369 C 110.188 80.477,110.640 81.975,110.812 82.698 C 110.992 83.460,111.749 85.338,112.611 87.166 C 113.429 88.901,114.276 90.833,114.493 91.460 C 114.709 92.088,115.175 93.052,115.528 93.602 C 115.880 94.153,116.393 95.188,116.668 95.902 C 116.943 96.617,117.521 97.703,117.952 98.316 C 118.383 98.929,119.123 100.098,119.596 100.914 C 120.510 102.491,128.388 110.627,131.470 113.176 C 132.204 113.784,133.257 114.870,133.809 115.591 C 134.400 116.363,135.498 117.454,136.482 118.247 C 137.400 118.987,139.177 120.421,140.429 121.433 C 141.682 122.445,143.112 123.520,143.608 123.822 C 144.103 124.124,145.320 124.975,146.311 125.712 C 147.302 126.450,148.828 127.412,149.703 127.851 C 150.577 128.290,151.630 128.880,152.042 129.163 C 152.455 129.447,153.361 129.913,154.057 130.200 C 154.752 130.486,155.892 131.035,156.591 131.418 C 157.289 131.801,158.985 132.578,160.358 133.143 C 161.732 133.709,163.290 134.367,163.820 134.607 C 164.350 134.846,165.257 135.138,165.835 135.255 C 166.413 135.372,167.516 135.757,168.287 136.109 C 169.879 136.837,170.588 136.877,175.471 136.516 C 180.866 136.116,184.945 133.842,187.185 129.982 C 187.653 129.175,188.412 127.963,188.871 127.289 C 190.482 124.920,191.134 123.432,191.326 121.682 C 191.421 120.815,191.585 119.829,191.692 119.492 C 191.798 119.155,191.948 117.814,192.026 116.513 C 192.104 115.212,192.265 112.906,192.384 111.387 C 192.594 108.723,192.588 108.592,192.231 107.660 C 192.028 107.129,191.813 106.164,191.753 105.515 C 191.617 104.041,190.773 100.777,190.021 98.817 C 189.706 97.998,189.315 96.855,189.151 96.277 C 188.988 95.699,188.433 94.319,187.919 93.211 C 187.404 92.102,186.497 90.131,185.902 88.830 C 185.307 87.530,184.597 86.229,184.325 85.940 C 184.052 85.650,183.517 84.901,183.136 84.275 C 181.619 81.781,179.432 78.557,178.977 78.143 C 178.712 77.902,178.041 77.035,177.485 76.216 C 176.928 75.396,176.220 74.490,175.910 74.201 C 175.600 73.912,174.811 72.926,174.156 72.011 C 172.301 69.416,170.051 67.048,164.668 62.021 C 160.655 58.273,157.923 55.823,156.663 54.840 C 156.107 54.406,155.155 53.636,154.547 53.128 C 153.939 52.620,152.879 51.883,152.192 51.491 C 150.276 50.399,147.771 48.669,146.136 47.310 C 145.273 46.591,144.280 45.940,143.745 45.739 C 143.241 45.551,141.579 44.865,140.052 44.215 C 136.976 42.905,135.071 42.614,133.132 43.160 M132.071 60.524 C 139.290 63.485,142.104 64.986,144.722 67.277 C 145.348 67.825,146.436 68.717,147.140 69.259 C 149.461 71.047,151.603 72.936,154.730 75.953 C 156.428 77.591,158.465 79.517,159.257 80.233 C 160.048 80.949,161.219 82.210,161.857 83.036 C 162.496 83.862,163.744 85.247,164.631 86.115 C 169.517 90.894,174.368 98.394,176.586 104.599 C 177.257 106.478,178.005 108.535,178.246 109.170 C 179.202 111.679,179.358 115.301,178.551 116.204 L 178.039 116.776 174.390 116.775 L 170.740 116.774 168.375 115.933 C 167.074 115.470,164.906 114.786,163.557 114.413 C 157.665 112.786,153.439 110.611,149.365 107.109 C 148.594 106.447,147.317 105.443,146.526 104.880 C 145.736 104.316,144.159 102.989,143.022 101.932 C 141.885 100.875,140.247 99.464,139.382 98.797 C 134.512 95.041,130.061 89.849,126.935 84.275 C 126.475 83.456,125.878 82.461,125.606 82.064 C 124.939 81.088,123.442 77.861,123.083 76.626 C 122.923 76.075,122.529 74.989,122.208 74.212 C 121.887 73.435,121.534 72.286,121.423 71.660 C 121.312 71.034,121.111 70.140,120.975 69.674 C 119.986 66.277,120.490 63.618,122.266 62.876 C 124.387 61.989,125.615 61.344,126.618 60.592 C 128.646 59.070,128.530 59.072,132.071 60.524 " stroke="none" fill="#050507" fill-rule="evenodd" style="stroke-width: 4px;"/>
  </g>
</svg>