<svg width="200" height="30" viewBox="0 0 386 162" version="1.1" xmlns="http://www.w3.org/2000/svg" xmlns:xlink="http://www.w3.org/1999/xlink" xml:space="preserve" xmlns:serif="http://www.serif.com/" style="fill-rule:evenodd;clip-rule:evenodd;stroke-linejoin:round;stroke-miterlimit:2;">
    <g id="Artboard1" transform="matrix(1,0,0,1,-11.687,-7.44887)">
        <rect x="11.687" y="7.449" width="385.014" height="161.66" style="fill:none;"/>
        <g id="svgg" transform="matrix(1,0,0,0.998706,0.686996,0.675532)">
            <path id="path0" d="M23.741,12.269C23.087,12.47 22.439,13.066 21.701,14.146C21.387,14.605 20.838,15.353 20.48,15.808C19.828,16.639 19.393,17.774 18.511,20.95L18.069,22.539L18.227,29.097C18.474,39.378 19.236,45.819 20.683,49.847C20.89,50.425 21.123,51.533 21.2,52.309C21.276,53.085 21.616,54.622 21.953,55.725C22.926,58.904 23.667,61.767 24.103,64.039C24.325,65.195 24.787,66.929 25.129,67.893C25.472,68.857 25.753,69.772 25.754,69.927C25.755,70.082 25.994,71.039 26.284,72.053C27.199,75.244 26.695,75.562 21.813,74.876C17.088,74.212 15.945,75.341 14.953,81.659C14.878,82.135 14.979,82.53 15.375,83.323C15.661,83.895 16.033,84.796 16.202,85.326C16.893,87.494 17.819,88.45 20.046,89.291C20.729,89.548 22.045,90.137 22.971,90.598C24.191,91.206 25.302,91.589 27.001,91.988C30.527,92.817 32.439,93.473 32.981,94.04C33.692,94.782 36.124,100.99 38.285,107.578C39.513,111.322 39.58,111.517 42.004,118.353C42.823,120.666 43.634,123.071 43.804,123.697C43.975,124.323 44.509,126.255 44.99,127.989C45.472,129.724 45.924,131.498 45.994,131.932C46.064,132.365 46.266,133.193 46.443,133.771C46.619,134.35 46.884,135.632 47.031,136.621C47.177,137.609 47.541,139.502 47.839,140.826C48.136,142.149 48.424,143.784 48.479,144.459L48.578,145.686L49.913,146.955C51.437,148.404 52.146,148.803 53.896,149.198C56.091,149.694 57.037,148.86 59.33,144.412L60.71,141.736L60.663,138.717C60.633,136.761 60.528,135.39 60.366,134.823C60.228,134.341 60.062,133.316 59.997,132.545C59.86,130.937 58.984,127.055 58.583,126.279C58.434,125.991 57.922,124.169 57.444,122.23C56.967,120.29 56.349,117.954 56.072,117.039C55.795,116.124 55.445,114.835 55.295,114.176C55.144,113.516 54.704,112.254 54.317,111.371C53.325,109.109 52.18,105.277 52.03,103.718C51.922,102.596 51.743,102.073 50.832,100.22C48.66,95.801 49.438,95.221 55.541,96.708C56.264,96.884 57.689,97.074 58.709,97.131C59.754,97.189 61.053,97.383 61.687,97.576C62.306,97.765 63.325,98.006 63.951,98.112C66.336,98.517 68.812,99.033 69.908,99.355C71.213,99.739 74.484,100.154 78.082,100.394C84.204,100.801 86.548,101.845 87.33,104.509C88.164,107.352 88.628,109.093 88.826,110.118C88.937,110.696 89.254,111.879 89.53,112.746C90.525,115.874 91.923,122.737 92.166,125.686C92.349,127.901 92.775,131.06 93.039,132.158C93.137,132.563 93.291,134.057 93.383,135.476C93.587,138.661 93.861,139.407 95.321,140.759C98.743,143.927 102.493,143.096 104.257,138.78C104.556,138.049 105.071,136.811 105.401,136.03C105.952,134.725 106.001,134.465 106.001,132.818C106.001,131.693 106.111,130.613 106.296,129.918C106.573,128.88 106.573,128.724 106.296,127.436C106.134,126.68 105.92,125.063 105.819,123.841C105.711,122.52 105.463,121.021 105.209,120.144C104.974,119.333 104.663,117.825 104.518,116.794C104.373,115.763 103.86,113.327 103.377,111.38C102.895,109.433 102.429,107.326 102.342,106.697C102.255,106.068 101.829,104.491 101.396,103.193C100.963,101.895 100.519,100.255 100.41,99.549C100.301,98.843 99.937,97.563 99.602,96.705C99.267,95.847 98.605,93.547 98.131,91.593C97.657,89.64 97.03,87.293 96.738,86.378C96.445,85.462 96.122,84.161 96.02,83.487C95.74,81.633 95.041,78.91 93.997,75.602C93.479,73.964 93.002,72.23 92.936,71.748C92.87,71.266 92.588,70.244 92.311,69.477C92.033,68.709 91.68,67.409 91.526,66.587C91.372,65.764 90.985,64.46 90.667,63.689C90.348,62.918 89.964,61.689 89.814,60.958C89.664,60.228 89.311,58.73 89.032,57.629C88.752,56.529 88.469,54.919 88.403,54.052C88.273,52.325 86.94,45.903 86.272,43.782C85.854,42.456 85.545,41.924 84.6,40.907C84.33,40.616 83.87,39.885 83.579,39.284C81.167,34.306 73.733,39.912 73.173,47.131C72.835,51.481 73.027,54.196 73.869,57C74.428,58.863 75.418,63.004 75.677,64.564C75.789,65.239 76.068,66.421 76.296,67.192C76.525,67.963 77.006,69.816 77.366,71.31C77.726,72.803 78.166,74.367 78.344,74.784C79.297,77.016 79.605,79.406 78.982,79.739C78.313,80.097 73.953,79.846 72.361,79.357C72.024,79.254 70.561,79.101 69.11,79.019C67.574,78.931 65.891,78.724 65.08,78.522C63.28,78.075 61.94,77.921 60.096,77.951C57.9,77.987 54.464,77.661 50.898,77.077C49.163,76.793 46.812,76.491 45.673,76.407C42.637,76.181 42.081,75.401 41.355,70.346C41.259,69.671 40.852,68.213 40.451,67.105C39.068,63.277 38.387,61.228 37.83,59.22C37.523,58.112 37.049,56.407 36.777,55.432C36.505,54.457 36.196,53.116 36.09,52.453C35.985,51.791 35.633,50.302 35.309,49.146C34.984,47.989 34.631,46.555 34.524,45.959C34.417,45.362 34.172,44.419 33.981,43.862C33.789,43.305 33.436,41.765 33.196,40.44C32.956,39.116 32.692,37.852 32.61,37.632C32.297,36.794 32.226,35.191 32.423,33.433C32.599,31.877 32.587,31.407 32.348,30.248C32.133,29.209 32.091,28.346 32.171,26.578C32.24,25.042 32.205,24.002 32.068,23.478C31.954,23.044 31.802,21.664 31.73,20.412C31.564,17.55 31.364,17.128 29.018,14.71C26.852,12.477 25.34,11.778 23.741,12.269M270.715,30.588C267.581,31.431 265.297,32.923 264.905,34.382C264.471,35.997 264.162,36.644 263.628,37.055C263.324,37.289 262.73,37.739 262.308,38.057C261.404,38.736 261.129,39.214 260.16,41.787C258.073,47.334 257.86,49.161 258.929,52.331C259.609,54.345 259.846,58.091 259.409,59.921C259.26,60.548 259.137,61.347 259.135,61.698C259.128,63.609 257.409,68.507 256.469,69.298C255.059,70.484 252.494,69.753 246.005,66.316C245,65.784 243.62,65.185 242.939,64.984C242.257,64.783 241.148,64.323 240.473,63.961C239.799,63.599 238.971,63.198 238.633,63.069C238.296,62.941 237.587,62.549 237.057,62.199C234.679,60.628 230.7,58.582 228.559,57.831C226.837,57.226 221.627,54.705 219.536,53.465C218.813,53.036 216.96,52.04 215.418,51.251C213.876,50.462 212.181,49.541 211.651,49.205C211.121,48.868 210.136,48.377 209.461,48.113C208.787,47.85 207.556,47.251 206.727,46.783C205.898,46.315 204.597,45.721 203.836,45.462C203.076,45.203 201.891,44.646 201.203,44.222C192.501,38.862 186.594,40.256 185.259,47.984C185.116,48.816 184.798,50.285 184.554,51.248C183.645,54.83 185.506,58.956 188.962,61.021C190.856,62.152 191.788,63.454 192.804,66.386C193.152,67.388 193.946,69.201 194.569,70.416C196.755,74.677 197.987,77.972 199.126,82.61C199.562,84.386 200.074,86.199 200.262,86.64C200.451,87.08 200.727,88.196 200.876,89.12C201.025,90.044 201.458,91.628 201.839,92.64C202.221,93.651 202.62,94.963 202.726,95.553C202.832,96.144 203.137,97.179 203.405,97.854C203.994,99.34 204.94,102.64 205.086,103.723C205.187,104.463 205.562,106.181 206.643,110.85C206.892,111.926 207.096,113.121 207.096,113.505C207.096,114.399 207.749,117.72 208.665,121.482C209.06,123.107 209.464,125.275 209.563,126.301C209.662,127.326 209.904,128.661 210.101,129.268C210.298,129.875 210.526,131.097 210.608,131.984C210.7,132.988 210.917,133.993 211.183,134.647C211.418,135.226 211.662,136.232 211.724,136.883C211.786,137.535 212.067,138.692 212.348,139.454C212.629,140.217 212.983,141.497 213.134,142.3C213.285,143.102 213.558,144.231 213.741,144.809C213.924,145.388 214.115,146.374 214.166,147.001C214.271,148.3 215.272,151.203 216.566,153.963C217.029,154.95 217.539,156.21 217.7,156.764C219.844,164.139 229.111,162.209 230.511,154.095C231.357,149.191 230.69,145.54 227.101,135.436C226.59,133.997 226.337,132.938 226.215,131.733C226.096,130.553 225.916,129.789 225.616,129.193C225.381,128.724 225.098,127.814 224.987,127.172C224.877,126.53 224.67,125.672 224.527,125.267C224.383,124.861 224.266,123.957 224.266,123.259C224.266,122.56 224.149,121.656 224.006,121.25C223.596,120.088 222.856,116.738 222.672,115.21C222.58,114.445 222.353,113.222 222.167,112.494C221.981,111.766 221.739,110.578 221.629,109.855C221.519,109.133 221.239,107.753 221.007,106.789C220.774,105.826 220.424,104.091 220.229,102.935C220.034,101.778 219.762,100.438 219.626,99.956C219.49,99.474 219.209,98.292 219.003,97.328C218.796,96.364 218.327,94.669 217.961,93.561C217.595,92.453 217.242,91.27 217.177,90.933C217.112,90.596 216.637,89.098 216.121,87.604C215.605,86.11 215.061,84.179 214.912,83.311C214.763,82.444 214.398,81.025 214.101,80.158C212.959,76.821 212.585,73.907 213.224,73.328C213.74,72.862 214.422,73.044 217.374,74.437C220.622,75.969 223.488,77.25 225.756,78.181C226.719,78.577 227.953,79.202 228.498,79.569C229.51,80.25 231.105,80.94 233.29,81.643C233.964,81.859 235.714,82.58 237.178,83.244C238.642,83.907 239.889,84.45 239.949,84.45C240.178,84.45 243.276,86.07 244.003,86.57C245.389,87.524 245.618,88.613 244.819,90.456C242.346,96.166 248.03,103.718 252.462,100.611C252.999,100.235 254.012,99.627 254.712,99.261C255.7,98.745 256.184,98.347 256.863,97.494C258.124,95.909 259.526,94.689 260.488,94.341C262.616,93.569 263.228,93.191 264.741,91.711C266.29,90.194 267.005,89.139 267.346,87.867C268.316,84.249 268.423,83.581 268.396,81.327L268.369,79.073L269.255,77.327C269.743,76.367 270.428,74.761 270.777,73.758C271.611,71.362 272.135,70.818 272.84,71.616C273.131,71.945 275.112,76.779 275.552,78.23C275.698,78.712 276.085,79.639 276.413,80.29C277.2,81.853 278.996,86.68 279.63,88.939C279.908,89.929 280.5,91.906 280.946,93.332C281.391,94.759 281.956,96.597 282.201,97.416C282.446,98.235 283.046,99.851 283.533,101.007C284.434,103.145 285.289,106.09 286.38,110.819C286.714,112.265 287.179,114.078 287.414,114.849C288.023,116.848 289.619,123.319 289.619,123.789C289.619,124.006 289.816,124.943 290.057,125.87C290.298,126.797 290.498,127.929 290.503,128.386C290.507,128.842 290.583,129.571 290.672,130.004C290.761,130.438 290.914,131.471 291.013,132.301C291.112,133.13 291.315,134.154 291.464,134.576C291.613,134.998 291.842,136.251 291.974,137.361C292.118,138.58 292.364,139.725 292.596,140.254C292.822,140.773 293.039,141.768 293.128,142.694C293.288,144.372 293.584,145.093 295.15,147.618C295.57,148.295 296.156,149.436 296.452,150.153C296.748,150.87 297.177,151.777 297.407,152.169C297.636,152.56 298.032,153.522 298.286,154.307C298.539,155.091 299.072,156.231 299.47,156.841C300.656,158.661 301.186,160.11 301.303,161.854C301.518,165.031 304.404,167.438 307.822,167.289C311.879,167.114 315.691,162.837 315.743,158.402C315.75,157.864 315.835,156.597 315.934,155.585L316.112,153.745L315.145,150.726C314.463,148.601 313.914,147.253 313.29,146.171C312.802,145.326 312.173,144.002 311.891,143.229C311.609,142.456 311.098,141.353 310.755,140.776C309.261,138.263 307.503,133.493 306.798,130.036C306.608,129.103 306.299,127.946 306.112,127.464C305.925,126.982 305.719,126.193 305.654,125.712C305.468,124.338 304.701,120.547 304.414,119.58C304.271,119.098 304.074,118.191 303.977,117.565C303.88,116.938 303.612,115.834 303.382,115.112C303.119,114.285 302.898,112.985 302.785,111.608C302.591,109.238 302.246,107.904 301.166,105.355C300.442,103.646 299.386,100.475 298.202,96.452C297.805,95.103 297.201,93.211 296.86,92.247C295.881,89.476 295.084,86.786 294.679,84.888C294.473,83.925 294.081,82.638 293.807,82.029C293.533,81.42 293.222,80.435 293.115,79.839C293.007,79.243 292.614,78.101 292.24,77.3C291.534,75.79 290.484,72.631 290.132,70.958C290.02,70.429 289.182,68.143 288.27,65.878C287.357,63.614 286.274,60.775 285.862,59.571C285.451,58.366 284.873,56.71 284.579,55.891C284.285,55.072 283.756,53.456 283.403,52.3C282.769,50.222 282.221,48.698 280.757,44.941C280.344,43.881 279.834,42.422 279.623,41.7C279.413,40.977 278.823,39.552 278.311,38.532C277.8,37.513 277.25,36.212 277.088,35.641C276.74,34.407 276.344,33.763 274.92,32.113C273.411,30.363 272.619,30.076 270.715,30.588M342.68,36.618C339.999,36.948 337.66,37.829 334.987,39.516C331.517,41.706 324.135,50.782 324.135,52.857C324.135,52.949 323.358,55.384 322.409,58.269C320.813,63.117 320.666,63.678 320.472,65.703C320.356,66.908 320.117,68.524 319.942,69.295C319.37,71.801 319.143,74.899 319.375,77.038C319.752,80.518 319.632,80.778 317.331,81.463C315.402,82.037 311.731,85.181 311.285,86.64C310.938,87.775 310.696,90.822 310.811,92.609C310.992,95.418 311.357,95.877 314.055,96.704C314.726,96.909 316.184,97.419 317.296,97.836C318.407,98.254 319.899,98.728 320.61,98.889C323.086,99.451 323.19,99.581 324.135,103.305C324.517,104.812 325.258,107.159 325.781,108.52C326.304,109.881 326.902,111.501 327.11,112.121C327.63,113.668 328.071,114.495 329.034,115.725C329.486,116.303 330.162,117.289 330.535,117.915C331.4,119.364 332.795,121.353 333.423,122.032C333.691,122.322 334.186,122.992 334.523,123.522C335.221,124.618 335.549,124.935 337.631,126.536C339.038,127.618 341.575,130.131 342.416,131.277C342.624,131.561 343.898,132.527 345.247,133.423C346.597,134.32 348.292,135.555 349.014,136.168C353.969,140.372 358.886,143.346 363.732,145.071C365.033,145.534 366.925,146.307 367.937,146.788C372.206,148.82 372.474,148.921 374.086,149.104C374.941,149.201 376.135,149.397 376.738,149.539C378.978,150.067 382.216,149.854 386.208,148.915C389.388,148.168 389.064,148.448 390.815,144.92C391.659,143.221 392.617,141.387 392.945,140.844C393.821,139.395 394.792,135.917 394.561,135.057C394.198,133.709 392.473,133.024 390.022,133.254C387.047,133.534 386.143,133.439 382.491,132.467C376.485,130.868 369.307,127.57 364.871,124.37C364.293,123.953 362.928,123.082 361.839,122.435C360.749,121.787 359.291,120.846 358.597,120.344C357.418,119.489 356.78,118.96 352.634,115.398C349.076,112.342 343.099,106.065 342.286,104.529C340.966,102.039 343.462,101.126 347.343,102.68C348.693,103.221 348.726,103.225 350.145,103.024C351.199,102.874 351.941,102.87 352.938,103.009C355.327,103.341 355.692,103.289 356.933,102.439C357.543,102.022 358.751,101.314 359.62,100.865C364.48,98.355 366.004,94.897 364.071,90.767C363.218,88.943 358.966,84.774 357.539,84.361C356.976,84.199 356.102,83.876 355.597,83.645C355.092,83.414 354.173,83.18 353.555,83.126C352.937,83.071 351.524,82.84 350.416,82.612C345.933,81.688 344.571,81.49 339.641,81.042C335.528,80.668 334.413,80.205 333.99,78.699C333.671,77.559 333.844,71.633 334.242,70.083C334.592,68.719 335.029,66.682 335.53,64.08C335.981,61.739 338.03,58.469 339.729,57.38C340.383,56.961 340.971,56.533 341.035,56.429C342.192,54.558 344.754,55.995 346.536,59.515C347.117,60.663 348.657,66.437 348.661,67.485C348.668,69.027 349.371,69.178 349.792,67.729C350.119,66.606 350.518,66.268 352.296,65.609C354.493,64.795 354.57,64.635 356.642,56.63L357.244,54.303L357.082,51.896C356.98,50.381 356.746,48.776 356.449,47.565C356.19,46.507 355.906,45.348 355.819,44.989C355.66,44.332 354.504,42.884 352.168,40.417C349.861,37.98 345.573,36.263 342.68,36.618M133.132,43.16C131.735,43.552 129.852,45.13 128.601,46.956C127.061,49.203 125.009,49.606 122.36,48.18C120.957,47.426 120.228,47.508 117.789,48.694C113.397,50.829 110.708,53.939 110.033,57.664C109.852,58.664 109.494,60.429 109.238,61.586C108.719,63.929 108.434,68.127 108.669,69.969C108.745,70.562 108.876,72.466 108.961,74.201C109.108,77.223 109.144,77.438 109.807,79.369C110.188,80.477 110.64,81.975 110.812,82.698C110.992,83.46 111.749,85.338 112.611,87.166C113.429,88.901 114.276,90.833 114.493,91.46C114.709,92.088 115.175,93.052 115.528,93.602C115.88,94.153 116.393,95.188 116.668,95.902C116.943,96.617 117.521,97.703 117.952,98.316C118.383,98.929 119.123,100.098 119.596,100.914C120.51,102.491 128.388,110.627 131.47,113.176C132.204,113.784 133.257,114.87 133.809,115.591C134.4,116.363 135.498,117.454 136.482,118.247C137.4,118.987 139.177,120.421 140.429,121.433C141.682,122.445 143.112,123.52 143.608,123.822C144.103,124.124 145.32,124.975 146.311,125.712C147.302,126.45 148.828,127.412 149.703,127.851C150.577,128.29 151.63,128.88 152.042,129.163C152.455,129.447 153.361,129.913 154.057,130.2C154.752,130.486 155.892,131.035 156.591,131.418C157.289,131.801 158.985,132.578 160.358,133.143C161.732,133.709 163.29,134.367 163.82,134.607C164.35,134.846 165.257,135.138 165.835,135.255C166.413,135.372 167.516,135.757 168.287,136.109C169.879,136.837 170.588,136.877 175.471,136.516C180.866,136.116 184.945,133.842 187.185,129.982C187.653,129.175 188.412,127.963 188.871,127.289C190.482,124.92 191.134,123.432 191.326,121.682C191.421,120.815 191.585,119.829 191.692,119.492C191.798,119.155 191.948,117.814 192.026,116.513C192.104,115.212 192.265,112.906 192.384,111.387C192.594,108.723 192.588,108.592 192.231,107.66C192.028,107.129 191.813,106.164 191.753,105.515C191.617,104.041 190.773,100.777 190.021,98.817C189.706,97.998 189.315,96.855 189.151,96.277C188.988,95.699 188.433,94.319 187.919,93.211C187.404,92.102 186.497,90.131 185.902,88.83C185.307,87.53 184.597,86.229 184.325,85.94C184.052,85.65 183.517,84.901 183.136,84.275C181.619,81.781 179.432,78.557 178.977,78.143C178.712,77.902 178.041,77.035 177.485,76.216C176.928,75.396 176.22,74.49 175.91,74.201C175.6,73.912 174.811,72.926 174.156,72.011C172.301,69.416 170.051,67.048 164.668,62.021C160.655,58.273 157.923,55.823 156.663,54.84C156.107,54.406 155.155,53.636 154.547,53.128C153.939,52.62 152.879,51.883 152.192,51.491C150.276,50.399 147.771,48.669 146.136,47.31C145.273,46.591 144.28,45.94 143.745,45.739C143.241,45.551 141.579,44.865 140.052,44.215C136.976,42.905 135.071,42.614 133.132,43.16M132.071,60.524C139.29,63.485 142.104,64.986 144.722,67.277C145.348,67.825 146.436,68.717 147.14,69.259C149.461,71.047 151.603,72.936 154.73,75.953C156.428,77.591 158.465,79.517 159.257,80.233C160.048,80.949 161.219,82.21 161.857,83.036C162.496,83.862 163.744,85.247 164.631,86.115C169.517,90.894 174.368,98.394 176.586,104.599C177.257,106.478 178.005,108.535 178.246,109.17C179.202,111.679 179.358,115.301 178.551,116.204L178.039,116.776L170.74,116.774L168.375,115.933C167.074,115.47 164.906,114.786 163.557,114.413C157.665,112.786 153.439,110.611 149.365,107.109C148.594,106.447 147.317,105.443 146.526,104.88C145.736,104.316 144.159,102.989 143.022,101.932C141.885,100.875 140.247,99.464 139.382,98.797C134.512,95.041 130.061,89.849 126.935,84.275C126.475,83.456 125.878,82.461 125.606,82.064C124.939,81.088 123.442,77.861 123.083,76.626C122.923,76.075 122.529,74.989 122.208,74.212C121.887,73.435 121.534,72.286 121.423,71.66C121.312,71.034 121.111,70.14 120.975,69.674C119.986,66.277 120.49,63.618 122.266,62.876C124.387,61.989 125.615,61.344 126.618,60.592C128.646,59.07 128.53,59.072 132.071,60.524" style="fill:rgb(5,5,7);"/>
        </g>
    </g>
</svg>
