
<svg id="svg" version="1.1" width="200" height="30" viewBox="0, 0, 400,106.29183400267738" xmlns="http://www.w3.org/2000/svg">
  <g id="svgg">
    <path id="path1" d="M145.030 10.150 C 143.303 10.747,142.356 12.349,141.400 16.291 C 140.155 21.423,142.168 25.159,145.692 24.257 C 148.667 23.494,150.061 22.290,150.989 19.680 C 152.136 16.458,151.942 14.842,150.098 12.264 C 148.487 10.011,147.104 9.434,145.030 10.150 M44.917 20.836 C 38.109 21.125,32.839 22.511,31.495 24.366 C 30.129 26.252,29.265 28.422,29.196 30.138 C 28.984 35.424,30.418 37.247,37.750 41.008 C 39.767 42.042,41.604 43.017,41.833 43.174 C 42.063 43.331,44.183 44.630,46.546 46.061 C 48.909 47.491,51.533 49.157,52.377 49.763 C 53.220 50.369,54.137 50.981,54.414 51.124 C 59.779 53.883,70.345 63.949,72.679 68.523 C 73.159 69.465,73.833 72.193,73.833 73.195 C 73.833 75.123,71.907 76.699,69.000 77.148 C 67.373 77.399,58.961 77.538,56.885 77.347 C 55.894 77.256,53.958 77.098,52.583 76.995 C 49.181 76.740,44.032 75.950,32.500 73.914 C 30.768 73.608,29.342 73.196,26.167 72.081 C 25.021 71.679,23.188 71.077,22.093 70.744 C 16.668 69.090,11.111 65.453,8.987 62.166 C 7.556 59.953,5.998 60.195,5.409 62.720 C 3.913 69.129,6.983 75.009,13.534 78.281 C 17.189 80.107,21.346 81.827,23.685 82.482 C 24.382 82.678,25.414 83.025,25.977 83.254 C 26.541 83.483,27.652 83.822,28.446 84.007 C 29.241 84.192,30.422 84.526,31.070 84.749 C 32.079 85.095,39.887 86.737,42.167 87.081 C 42.579 87.144,43.329 87.298,43.833 87.424 C 44.337 87.550,45.559 87.729,46.547 87.823 C 47.535 87.916,49.520 88.188,50.957 88.426 C 53.647 88.872,55.261 89.003,62.417 89.353 C 70.367 89.742,74.430 88.707,77.712 85.456 C 81.866 81.343,83.620 75.212,82.153 69.932 C 81.147 66.310,80.683 65.121,78.574 60.750 C 77.860 59.271,74.543 54.830,72.848 53.083 C 72.136 52.350,71.412 51.530,71.238 51.262 C 70.430 50.011,66.070 46.481,61.431 43.321 C 54.487 38.591,53.668 38.026,52.687 37.294 C 52.194 36.925,50.971 36.189,49.969 35.657 C 44.146 32.569,45.996 31.541,55.167 32.770 C 61.143 33.571,63.002 33.854,65.371 34.319 C 69.844 35.197,70.596 34.954,72.347 32.059 C 73.596 29.994,73.576 28.467,72.267 25.867 C 71.261 23.870,70.149 23.118,67.917 22.923 C 67.183 22.859,65.908 22.664,65.083 22.489 C 62.984 22.044,58.082 21.337,57.083 21.335 C 56.625 21.334,55.688 21.218,55.000 21.078 C 53.445 20.761,49.139 20.658,44.917 20.836 M348.000 28.747 C 346.348 29.276,343.607 31.975,342.497 34.166 C 342.289 34.579,341.726 35.554,341.246 36.333 C 340.022 38.325,339.964 38.459,339.119 41.250 C 338.209 44.256,337.396 48.691,337.262 51.383 C 337.147 53.697,336.984 54.158,335.750 55.667 C 334.405 57.310,334.280 57.701,334.309 60.167 C 334.340 62.828,334.589 63.401,336.173 64.452 C 337.778 65.517,338.121 65.960,338.238 67.112 C 338.292 67.646,338.482 68.758,338.660 69.583 C 338.838 70.408,339.034 71.496,339.096 72.000 C 339.158 72.504,339.273 73.089,339.353 73.301 C 339.433 73.512,339.839 75.001,340.255 76.611 C 342.049 83.555,346.126 88.917,353.143 93.561 C 357.048 96.144,357.933 96.674,359.461 97.337 C 360.353 97.725,362.001 98.445,363.123 98.938 C 369.046 101.539,375.227 102.261,379.667 100.870 C 380.813 100.511,382.199 100.084,382.748 99.921 C 384.074 99.527,384.674 99.094,385.788 97.727 C 386.301 97.098,387.145 96.133,387.664 95.583 C 389.275 93.877,389.580 92.950,388.939 91.710 C 388.391 90.649,388.306 90.634,384.061 90.824 C 380.907 90.964,380.020 90.952,378.917 90.753 C 378.183 90.620,377.353 90.509,377.072 90.506 C 376.447 90.499,371.837 89.452,370.917 89.108 C 367.798 87.943,364.559 86.448,363.400 85.640 C 362.676 85.135,361.303 84.241,360.349 83.653 C 357.498 81.895,353.829 78.477,352.225 76.083 C 349.493 72.008,347.937 67.548,348.908 66.577 L 349.356 66.129 353.886 66.217 C 357.248 66.283,359.040 66.397,360.833 66.659 C 362.162 66.854,364.300 67.077,365.583 67.157 C 366.867 67.236,368.854 67.392,370.000 67.504 C 375.640 68.056,378.304 66.571,379.172 62.392 C 379.805 59.339,376.603 56.578,371.083 55.418 C 369.983 55.187,368.221 54.813,367.167 54.586 C 363.519 53.801,353.919 53.149,350.098 53.427 C 346.367 53.699,345.893 52.357,347.472 45.992 C 348.537 41.698,349.278 40.537,351.562 39.588 C 353.511 38.778,355.272 36.827,355.587 35.130 C 356.178 31.942,351.173 27.731,348.000 28.747 M143.407 29.502 C 141.874 30.260,140.337 32.170,139.853 33.917 C 139.075 36.722,139.051 37.070,139.100 44.750 C 139.207 61.247,139.298 65.703,139.559 67.333 C 139.698 68.204,139.861 69.517,139.920 70.250 C 140.085 72.312,140.482 75.358,140.669 76.002 C 140.762 76.322,140.985 77.540,141.165 78.710 C 141.542 81.156,141.707 81.548,142.749 82.464 C 146.013 85.337,149.791 83.148,150.362 78.052 C 150.525 76.606,150.512 76.137,150.275 74.885 C 150.123 74.078,149.922 72.858,149.828 72.175 C 149.735 71.491,149.553 70.516,149.424 70.008 C 148.779 67.465,148.511 62.115,148.678 55.083 C 148.685 54.808,148.639 52.633,148.578 50.250 C 148.503 47.394,148.535 44.866,148.670 42.833 C 149.136 35.852,149.152 36.056,147.830 32.690 C 146.546 29.421,145.334 28.548,143.407 29.502 M219.162 29.774 C 218.298 30.349,216.934 31.794,216.229 32.881 C 215.825 33.503,215.034 34.590,214.471 35.298 C 211.667 38.818,211.394 43.434,213.832 46.110 C 214.677 47.038,214.911 47.671,215.087 49.500 C 215.144 50.096,215.302 51.108,215.439 51.750 C 215.575 52.392,215.756 54.515,215.840 56.468 C 215.924 58.422,216.028 60.077,216.070 60.146 C 216.431 60.729,216.695 72.391,216.612 84.083 C 216.565 90.825,223.133 91.966,225.719 85.667 C 226.918 82.748,227.027 81.987,226.515 80.094 C 226.270 79.185,226.174 78.082,226.093 75.250 C 225.900 68.449,225.683 63.756,225.511 62.667 C 224.816 58.268,225.982 57.498,228.616 60.619 C 229.056 61.140,230.320 62.508,231.424 63.659 C 233.979 66.319,235.467 68.019,236.277 69.200 C 237.145 70.467,239.231 73.217,240.158 74.316 C 240.575 74.811,241.404 75.879,242.000 76.690 C 243.324 78.492,246.263 82.278,247.739 84.083 C 249.475 86.207,249.583 86.504,249.586 89.198 C 249.589 91.887,249.775 92.295,251.641 93.708 C 254.319 95.737,258.532 93.234,259.267 89.177 C 259.393 88.484,259.628 87.242,259.789 86.417 C 260.044 85.115,260.083 83.893,260.083 77.167 L 260.083 69.417 259.554 66.167 C 259.264 64.379,258.905 61.942,258.757 60.750 C 258.609 59.558,258.341 57.758,258.162 56.750 C 257.982 55.742,257.720 54.204,257.580 53.333 C 257.439 52.462,257.147 51.000,256.931 50.083 C 256.715 49.167,256.485 47.976,256.421 47.438 C 256.357 46.900,256.199 46.161,256.070 45.796 C 255.941 45.431,255.753 44.446,255.652 43.608 C 255.552 42.769,255.286 41.558,255.062 40.917 C 254.837 40.275,254.427 38.850,254.149 37.750 C 252.701 32.011,249.427 31.123,246.231 35.601 C 245.365 36.815,244.964 37.894,244.669 39.806 C 244.303 42.180,244.505 43.225,246.593 49.750 C 247.361 52.150,248.220 55.714,248.420 57.333 C 248.482 57.837,248.640 58.700,248.771 59.250 C 249.157 60.870,249.279 65.033,248.948 65.307 C 248.388 65.772,246.854 64.292,243.849 60.384 C 243.201 59.542,241.789 57.901,240.710 56.737 C 239.632 55.574,238.418 54.239,238.013 53.770 C 237.345 52.996,235.937 51.538,228.179 43.583 C 224.885 40.206,224.505 39.501,224.316 36.428 C 224.021 31.614,221.427 28.267,219.162 29.774 M111.333 30.400 C 110.921 30.516,109.946 30.782,109.167 30.990 C 98.843 33.755,92.630 44.361,93.978 56.917 C 94.314 60.043,95.485 64.703,96.324 66.250 C 98.414 70.106,99.042 71.145,100.252 72.750 C 102.719 76.022,105.794 78.356,112.500 82.044 C 117.330 84.701,123.155 85.658,125.929 84.250 C 128.490 82.949,129.248 82.054,130.516 78.828 C 132.335 74.199,131.100 71.883,127.315 72.829 C 124.596 73.508,120.858 72.942,118.083 71.430 C 110.843 67.485,106.902 64.170,105.273 60.655 C 102.519 54.711,102.584 54.918,102.589 52.083 C 102.599 46.568,104.937 43.960,111.928 41.662 C 114.057 40.963,114.123 40.953,117.333 40.819 C 122.362 40.610,123.503 40.029,124.388 37.227 C 125.099 34.976,125.100 34.882,124.425 33.588 C 123.111 31.066,122.815 30.892,119.453 30.663 C 118.150 30.574,116.558 30.428,115.917 30.339 C 114.322 30.118,112.238 30.146,111.333 30.400 M188.221 33.252 C 186.729 33.517,184.116 34.380,183.305 34.876 C 180.379 36.665,175.955 41.541,175.078 43.942 C 174.916 44.386,174.378 45.680,173.883 46.817 C 173.387 47.953,172.865 49.453,172.723 50.150 C 172.266 52.377,171.898 52.719,170.019 52.653 C 166.668 52.535,165.771 52.822,164.896 54.290 C 163.178 57.176,163.378 60.338,165.393 62.111 C 166.199 62.821,166.395 62.930,169.015 64.138 C 171.643 65.349,171.655 65.371,172.171 69.667 C 172.363 71.271,172.669 73.325,172.851 74.230 C 173.033 75.136,173.290 76.495,173.421 77.251 C 173.553 78.006,173.933 79.252,174.265 80.020 C 174.597 80.788,175.002 81.797,175.165 82.262 C 176.628 86.431,182.037 90.507,188.662 92.433 C 191.357 93.217,200.607 93.013,202.538 92.127 C 209.058 89.134,210.724 84.498,205.514 83.845 C 204.761 83.751,204.089 83.638,204.020 83.596 C 203.898 83.520,202.301 83.330,198.935 82.990 C 195.457 82.638,190.195 81.000,188.250 79.664 C 184.640 77.184,182.897 74.661,182.088 70.745 C 181.378 67.310,181.678 67.240,191.750 68.500 C 197.733 69.249,201.181 66.950,201.202 62.198 C 201.220 58.017,198.556 56.861,185.583 55.420 C 181.032 54.914,180.584 54.323,182.119 50.857 C 183.947 46.729,186.376 45.292,191.583 45.260 C 195.440 45.236,196.745 44.621,197.912 42.280 C 199.967 38.156,193.665 32.285,188.221 33.252 M300.917 35.459 C 298.556 35.607,295.735 36.496,292.000 38.270 C 289.309 39.548,286.294 42.387,284.678 45.167 C 282.782 48.427,282.156 49.687,281.825 50.917 C 281.627 51.650,281.242 52.765,280.968 53.395 C 280.667 54.088,280.378 55.173,280.237 56.145 C 280.108 57.028,279.920 58.275,279.819 58.917 C 279.166 63.052,280.105 70.925,281.656 74.322 C 282.014 75.107,282.508 76.425,282.754 77.250 C 283.249 78.915,283.465 79.331,285.394 82.333 C 287.153 85.072,287.597 85.593,290.030 87.781 C 295.304 92.525,298.807 94.995,302.155 96.329 C 303.093 96.702,304.225 97.193,304.671 97.419 C 307.960 99.086,313.761 99.568,317.887 98.518 C 321.995 97.473,324.439 95.605,325.946 92.360 C 326.344 91.504,326.964 90.393,327.323 89.891 C 328.646 88.044,328.496 85.857,326.992 85.079 C 326.219 84.679,325.649 84.787,323.830 85.677 C 319.568 87.761,314.124 87.761,309.672 85.677 C 308.706 85.226,307.054 84.472,306.000 84.002 C 303.045 82.686,301.965 81.972,300.099 80.100 C 299.174 79.173,297.578 77.645,296.553 76.705 C 292.459 72.953,289.888 68.195,289.484 63.623 C 288.528 52.816,292.980 47.810,303.721 47.611 C 306.892 47.553,307.320 47.238,308.325 44.225 C 309.141 41.779,308.714 39.419,307.055 37.207 C 306.222 36.096,303.430 35.301,300.917 35.459 " stroke="none" fill="#000000" fill-rule="evenodd"/>
  </g>
</svg>