<svg width="200" height="30" viewBox="0 0 388 99" version="1.1" xmlns="http://www.w3.org/2000/svg" xmlns:xlink="http://www.w3.org/1999/xlink" xml:space="preserve" xmlns:serif="http://www.serif.com/" style="fill-rule:evenodd;clip-rule:evenodd;stroke-linejoin:round;stroke-miterlimit:2;">
    <g id="Artboard1" transform="matrix(1,0,0,1,-5.91119,-4.37264)">
        <rect x="5.911" y="4.373" width="387.248" height="98.76" style="fill:none;"/>
        <g id="svgg" transform="matrix(1,0,0,1,0.911185,0.372643)">
            <path id="path1" d="M145.03,10.15C143.303,10.747 142.356,12.349 141.4,16.291C140.155,21.423 142.168,25.159 145.692,24.257C148.667,23.494 150.061,22.29 150.989,19.68C152.136,16.458 151.942,14.842 150.098,12.264C148.487,10.011 147.104,9.434 145.03,10.15M44.917,20.836C38.109,21.125 32.839,22.511 31.495,24.366C30.129,26.252 29.265,28.422 29.196,30.138C28.984,35.424 30.418,37.247 37.75,41.008C39.767,42.042 41.604,43.017 41.833,43.174C42.063,43.331 44.183,44.63 46.546,46.061C48.909,47.491 51.533,49.157 52.377,49.763C53.22,50.369 54.137,50.981 54.414,51.124C59.779,53.883 70.345,63.949 72.679,68.523C73.159,69.465 73.833,72.193 73.833,73.195C73.833,75.123 71.907,76.699 69,77.148C67.373,77.399 58.961,77.538 56.885,77.347C55.894,77.256 53.958,77.098 52.583,76.995C49.181,76.74 44.032,75.95 32.5,73.914C30.768,73.608 29.342,73.196 26.167,72.081C25.021,71.679 23.188,71.077 22.093,70.744C16.668,69.09 11.111,65.453 8.987,62.166C7.556,59.953 5.998,60.195 5.409,62.72C3.913,69.129 6.983,75.009 13.534,78.281C17.189,80.107 21.346,81.827 23.685,82.482C24.382,82.678 25.414,83.025 25.977,83.254C26.541,83.483 27.652,83.822 28.446,84.007C29.241,84.192 30.422,84.526 31.07,84.749C32.079,85.095 39.887,86.737 42.167,87.081C42.579,87.144 43.329,87.298 43.833,87.424C44.337,87.55 45.559,87.729 46.547,87.823C47.535,87.916 49.52,88.188 50.957,88.426C53.647,88.872 55.261,89.003 62.417,89.353C70.367,89.742 74.43,88.707 77.712,85.456C81.866,81.343 83.62,75.212 82.153,69.932C81.147,66.31 80.683,65.121 78.574,60.75C77.86,59.271 74.543,54.83 72.848,53.083C72.136,52.35 71.412,51.53 71.238,51.262C70.43,50.011 66.07,46.481 61.431,43.321C54.487,38.591 53.668,38.026 52.687,37.294C52.194,36.925 50.971,36.189 49.969,35.657C44.146,32.569 45.996,31.541 55.167,32.77C61.143,33.571 63.002,33.854 65.371,34.319C69.844,35.197 70.596,34.954 72.347,32.059C73.596,29.994 73.576,28.467 72.267,25.867C71.261,23.87 70.149,23.118 67.917,22.923C67.183,22.859 65.908,22.664 65.083,22.489C62.984,22.044 58.082,21.337 57.083,21.335C56.625,21.334 55.688,21.218 55,21.078C53.445,20.761 49.139,20.658 44.917,20.836M348,28.747C346.348,29.276 343.607,31.975 342.497,34.166C342.289,34.579 341.726,35.554 341.246,36.333C340.022,38.325 339.964,38.459 339.119,41.25C338.209,44.256 337.396,48.691 337.262,51.383C337.147,53.697 336.984,54.158 335.75,55.667C334.405,57.31 334.28,57.701 334.309,60.167C334.34,62.828 334.589,63.401 336.173,64.452C337.778,65.517 338.121,65.96 338.238,67.112C338.292,67.646 338.482,68.758 338.66,69.583C338.838,70.408 339.034,71.496 339.096,72C339.158,72.504 339.273,73.089 339.353,73.301C339.433,73.512 339.839,75.001 340.255,76.611C342.049,83.555 346.126,88.917 353.143,93.561C357.048,96.144 357.933,96.674 359.461,97.337C360.353,97.725 362.001,98.445 363.123,98.938C369.046,101.539 375.227,102.261 379.667,100.87C380.813,100.511 382.199,100.084 382.748,99.921C384.074,99.527 384.674,99.094 385.788,97.727C386.301,97.098 387.145,96.133 387.664,95.583C389.275,93.877 389.58,92.95 388.939,91.71C388.391,90.649 388.306,90.634 384.061,90.824C380.907,90.964 380.02,90.952 378.917,90.753C378.183,90.62 377.353,90.509 377.072,90.506C376.447,90.499 371.837,89.452 370.917,89.108C367.798,87.943 364.559,86.448 363.4,85.64C362.676,85.135 361.303,84.241 360.349,83.653C357.498,81.895 353.829,78.477 352.225,76.083C349.493,72.008 347.937,67.548 348.908,66.577L349.356,66.129L353.886,66.217C357.248,66.283 359.04,66.397 360.833,66.659C362.162,66.854 364.3,67.077 365.583,67.157C366.867,67.236 368.854,67.392 370,67.504C375.64,68.056 378.304,66.571 379.172,62.392C379.805,59.339 376.603,56.578 371.083,55.418C369.983,55.187 368.221,54.813 367.167,54.586C363.519,53.801 353.919,53.149 350.098,53.427C346.367,53.699 345.893,52.357 347.472,45.992C348.537,41.698 349.278,40.537 351.562,39.588C353.511,38.778 355.272,36.827 355.587,35.13C356.178,31.942 351.173,27.731 348,28.747M143.407,29.502C141.874,30.26 140.337,32.17 139.853,33.917C139.075,36.722 139.051,37.07 139.1,44.75C139.207,61.247 139.298,65.703 139.559,67.333C139.698,68.204 139.861,69.517 139.92,70.25C140.085,72.312 140.482,75.358 140.669,76.002C140.762,76.322 140.985,77.54 141.165,78.71C141.542,81.156 141.707,81.548 142.749,82.464C146.013,85.337 149.791,83.148 150.362,78.052C150.525,76.606 150.512,76.137 150.275,74.885C150.123,74.078 149.922,72.858 149.828,72.175C149.735,71.491 149.553,70.516 149.424,70.008C148.779,67.465 148.511,62.115 148.678,55.083C148.685,54.808 148.639,52.633 148.578,50.25C148.503,47.394 148.535,44.866 148.67,42.833C149.136,35.852 149.152,36.056 147.83,32.69C146.546,29.421 145.334,28.548 143.407,29.502M219.162,29.774C218.298,30.349 216.934,31.794 216.229,32.881C215.825,33.503 215.034,34.59 214.471,35.298C211.667,38.818 211.394,43.434 213.832,46.11C214.677,47.038 214.911,47.671 215.087,49.5C215.144,50.096 215.302,51.108 215.439,51.75C215.575,52.392 215.756,54.515 215.84,56.468C215.924,58.422 216.028,60.077 216.07,60.146C216.431,60.729 216.695,72.391 216.612,84.083C216.565,90.825 223.133,91.966 225.719,85.667C226.918,82.748 227.027,81.987 226.515,80.094C226.27,79.185 226.174,78.082 226.093,75.25C225.9,68.449 225.683,63.756 225.511,62.667C224.816,58.268 225.982,57.498 228.616,60.619C229.056,61.14 230.32,62.508 231.424,63.659C233.979,66.319 235.467,68.019 236.277,69.2C237.145,70.467 239.231,73.217 240.158,74.316C240.575,74.811 241.404,75.879 242,76.69C243.324,78.492 246.263,82.278 247.739,84.083C249.475,86.207 249.583,86.504 249.586,89.198C249.589,91.887 249.775,92.295 251.641,93.708C254.319,95.737 258.532,93.234 259.267,89.177C259.393,88.484 259.628,87.242 259.789,86.417C260.044,85.115 260.083,83.893 260.083,77.167L260.083,69.417L259.554,66.167C259.264,64.379 258.905,61.942 258.757,60.75C258.609,59.558 258.341,57.758 258.162,56.75C257.982,55.742 257.72,54.204 257.58,53.333C257.439,52.462 257.147,51 256.931,50.083C256.715,49.167 256.485,47.976 256.421,47.438C256.357,46.9 256.199,46.161 256.07,45.796C255.941,45.431 255.753,44.446 255.652,43.608C255.552,42.769 255.286,41.558 255.062,40.917C254.837,40.275 254.427,38.85 254.149,37.75C252.701,32.011 249.427,31.123 246.231,35.601C245.365,36.815 244.964,37.894 244.669,39.806C244.303,42.18 244.505,43.225 246.593,49.75C247.361,52.15 248.22,55.714 248.42,57.333C248.482,57.837 248.64,58.7 248.771,59.25C249.157,60.87 249.279,65.033 248.948,65.307C248.388,65.772 246.854,64.292 243.849,60.384C243.201,59.542 241.789,57.901 240.71,56.737C239.632,55.574 238.418,54.239 238.013,53.77C237.345,52.996 235.937,51.538 228.179,43.583C224.885,40.206 224.505,39.501 224.316,36.428C224.021,31.614 221.427,28.267 219.162,29.774M111.333,30.4C110.921,30.516 109.946,30.782 109.167,30.99C98.843,33.755 92.63,44.361 93.978,56.917C94.314,60.043 95.485,64.703 96.324,66.25C98.414,70.106 99.042,71.145 100.252,72.75C102.719,76.022 105.794,78.356 112.5,82.044C117.33,84.701 123.155,85.658 125.929,84.25C128.49,82.949 129.248,82.054 130.516,78.828C132.335,74.199 131.1,71.883 127.315,72.829C124.596,73.508 120.858,72.942 118.083,71.43C110.843,67.485 106.902,64.17 105.273,60.655C102.519,54.711 102.584,54.918 102.589,52.083C102.599,46.568 104.937,43.96 111.928,41.662C114.057,40.963 114.123,40.953 117.333,40.819C122.362,40.61 123.503,40.029 124.388,37.227C125.099,34.976 125.1,34.882 124.425,33.588C123.111,31.066 122.815,30.892 119.453,30.663C118.15,30.574 116.558,30.428 115.917,30.339C114.322,30.118 112.238,30.146 111.333,30.4M188.221,33.252C186.729,33.517 184.116,34.38 183.305,34.876C180.379,36.665 175.955,41.541 175.078,43.942C174.916,44.386 174.378,45.68 173.883,46.817C173.387,47.953 172.865,49.453 172.723,50.15C172.266,52.377 171.898,52.719 170.019,52.653C166.668,52.535 165.771,52.822 164.896,54.29C163.178,57.176 163.378,60.338 165.393,62.111C166.199,62.821 166.395,62.93 169.015,64.138C171.643,65.349 171.655,65.371 172.171,69.667C172.363,71.271 172.669,73.325 172.851,74.23C173.033,75.136 173.29,76.495 173.421,77.251C173.553,78.006 173.933,79.252 174.265,80.02C174.597,80.788 175.002,81.797 175.165,82.262C176.628,86.431 182.037,90.507 188.662,92.433C191.357,93.217 200.607,93.013 202.538,92.127C209.058,89.134 210.724,84.498 205.514,83.845C204.761,83.751 204.089,83.638 204.02,83.596C203.898,83.52 202.301,83.33 198.935,82.99C195.457,82.638 190.195,81 188.25,79.664C184.64,77.184 182.897,74.661 182.088,70.745C181.378,67.31 181.678,67.24 191.75,68.5C197.733,69.249 201.181,66.95 201.202,62.198C201.22,58.017 198.556,56.861 185.583,55.42C181.032,54.914 180.584,54.323 182.119,50.857C183.947,46.729 186.376,45.292 191.583,45.26C195.44,45.236 196.745,44.621 197.912,42.28C199.967,38.156 193.665,32.285 188.221,33.252M300.917,35.459C298.556,35.607 295.735,36.496 292,38.27C289.309,39.548 286.294,42.387 284.678,45.167C282.782,48.427 282.156,49.687 281.825,50.917C281.627,51.65 281.242,52.765 280.968,53.395C280.667,54.088 280.378,55.173 280.237,56.145C280.108,57.028 279.92,58.275 279.819,58.917C279.166,63.052 280.105,70.925 281.656,74.322C282.014,75.107 282.508,76.425 282.754,77.25C283.249,78.915 283.465,79.331 285.394,82.333C287.153,85.072 287.597,85.593 290.03,87.781C295.304,92.525 298.807,94.995 302.155,96.329C303.093,96.702 304.225,97.193 304.671,97.419C307.96,99.086 313.761,99.568 317.887,98.518C321.995,97.473 324.439,95.605 325.946,92.36C326.344,91.504 326.964,90.393 327.323,89.891C328.646,88.044 328.496,85.857 326.992,85.079C326.219,84.679 325.649,84.787 323.83,85.677C319.568,87.761 314.124,87.761 309.672,85.677C308.706,85.226 307.054,84.472 306,84.002C303.045,82.686 301.965,81.972 300.099,80.1C299.174,79.173 297.578,77.645 296.553,76.705C292.459,72.953 289.888,68.195 289.484,63.623C288.528,52.816 292.98,47.81 303.721,47.611C306.892,47.553 307.32,47.238 308.325,44.225C309.141,41.779 308.714,39.419 307.055,37.207C306.222,36.096 303.43,35.301 300.917,35.459"/>
        </g>
    </g>
</svg>
